<svg version="1.2" xmlns="http://www.w3.org/2000/svg" viewBox="0 0 1500 1000" width="1500" height="1000">
	<title>back1-svg</title>
	<defs>
		<clipPath clipPathUnits="userSpaceOnUse" id="cp1">
			<path d="m1500 0v1000h-1500v-1000z"/>
		</clipPath>
	</defs>
	<style>
		.s0 { opacity: .6;fill: #e7f0fe } 
	</style>
	<g id="Clip-Path" clip-path="url(#cp1)">
		<g id="Layer">
			<path id="Layer" fill-rule="evenodd" class="s0" d="m1671.4 586.3c-17.1 43.7-49.3 82.9-67.4 92.5 0.5 1.8 0.9 3.6 1.1 5.2l3.1 20.3c1 6.8 1.2 13.7 0.5 20.5l-11.4 93.4 13.3 44.1c0 0-0.2 0.2-0.5 0.6 0.3 1.2 1.1 4.4 1.6 8.8 5.4 40.4 5.3 160.5 5.7 163 0.3 1.7 0.3 3.3 0.3 4.8q0.7 1.4 1 3.1c11.2 65.6 11.9 167.1 11.8 199 0 0 1.8 3.3 4.3 6.6q1 1.3 2.1 2.5 0.1 0.1 0.2 0.2 0.4 0.4 0.9 0.9 0.1 0.1 0.3 0.2 0.5 0.6 1.1 1c3.9 3.2 10.8 5.6 13.2 6.5 0.5 0.1 0.9 0.2 0.9 0.2 0 0 10.4 2.6 14.7 4.9q0.8 0.5 1.3 0.9c0.9 0.8 1.2 1.6 1.2 2.3 0.5 2.8-1.5 6-4 6.6-3.3 0.7-21.8 1.5-27.2 0.8-5.3-0.8-9.1-5.6-12-5.5-3 0.1-8.4 0.5-10.5-0.7-0.9-0.6-1.2-2.5-1.3-4.8-0.5-3.9 0.9-10.8 0.9-10.8 0.2-2 0.4-4.3 0.7-6.1 0.4-2.8 0.5-3.8 0.6-4.1-11.4-28.7-44.6-120.9-29.6-192.5 0.4-2.2 1-4.2 1.7-5.9q-0.6-1.3-0.9-2.7-0.2-1.2-0.5-2.4 0.1 0.6 0.2 1.2-0.6-2.4-1.1-4.9c-7.2-32-19-82.9-22.5-98.2l-6.1 101.9c0.2 3.8-0.9 7.5-3.1 10.4-0.8 2.8-2.4 5.8-4.1 8.9l-22.4 29.7c17.3 67.6 14.8 140 14.5 147.5q0 0.7 0 0.7l-0.9 0.2c1.1 1.4 2.3 2.9 3.4 4.3 1.7 1.8 4 4.1 6.5 6.5 5.3 4.9 12.4 10.4 12.4 13.6q0 0.1 0 0.3c0.4 0.8 0.6 1.4 0.6 2 0.1 3.4-7.1 10.4-11.6 12.5-4.4 2.2-16.4 3.3-17.8 0.6-0.5-0.9-1-2.4-1.4-4.3-1.1-3.6-2.1-10.6-2.3-13.1-0.1-1.8-0.7-8.7-1.2-14.2-0.3-1.7-0.6-3.4-0.9-5l-0.1 0.1-30.5-112.9-65 86.2c0 0-0.9 1.2-2.2 2.9q0 0.1-0.2 0.3c-2.1 2.9-4.9 6.9-5.9 8.8-1 2.9-2.5 5.5-3.6 7.5q-0.7 1.2-1.3 2.3-0.2 0.4-0.3 0.6c-0.7 2.3-3.3 8.5-5.1 11.3-0.7 1.6-1.5 2.9-2 3.5-0.5 0.6-1.7 0.7-3.2 0.5-2.5 34.3-5.7 64.2-7.3 78.9 0 0 1.3 3.4 3.5 6.9q0.8 1.4 1.8 2.7 0 0.1 0.1 0.2 0.4 0.5 0.8 0.9 0.1 0.2 0.2 0.4 0.5 0.5 1 1 0.8 0.8 1.6 1.5 0.3 0.2 0.5 0.3c3.6 2.8 8.2 5.1 10.1 5.9 0.5 0.3 0.8 0.4 0.8 0.4 0 0 9.9 3.6 13.9 6.4q0.7 0.5 1.2 1 1 1.4 0.9 2.4c0.1 2.7-2.1 5.7-4.7 5.9-3.2 0.3-21.4-0.9-26.5-2.2-5.1-1.2-8.4-6.4-11.2-6.6-2.9-0.2-8.3-0.4-10.1-1.8-0.9-0.7-1-2.6-0.8-4.8-0.1-3.9 2.1-10.5 2.1-10.5 0.3-1.9 0.8-4.1 1.3-5.9 0.6-2.6 0.9-3.6 1-3.9-3.1-11.5-8.5-32.8-12.5-58.7-1.2 0-2.3-0.1-3.2-0.1-3.4-0.1-8 5.6-14.2 6.4-2.4 0.3-7.1 0.4-12.1 0.3 1.5 1.8 3.4 4 5.5 6.4 4.8 5.3 11.4 11.2 11.2 14.4q-0.1 0.1-0.1 0.3c0.3 0.8 0.5 1.5 0.5 2-0.2 3.3-8 9.6-12.6 11.3-4.7 1.7-16.7 1.8-17.9-0.9-0.4-0.9-0.7-2.5-0.9-4.3-0.9-3.7-1.2-10.6-1.2-13.1 0-1.8 0-8.6 0-14.1q-0.1-1.4-0.3-2.8c-1.9-0.2-3.4-0.4-4.2-0.5-3.3-0.8-5.9-3.3-4.6-6.1-0.4-1.2-0.1-2.5 1.3-3.8 0.9-0.9 2.9-1.9 5.2-2.8l-15.9-87.4-27.9 29.5c-1.6 55.5-7.8 114.2-10.4 136.8 0 0 1.4 3.4 3.6 7q0.8 1.3 1.7 2.6 0.1 0.1 0.2 0.3 0.4 0.4 0.7 0.9 0.2 0.1 0.3 0.3 0.5 0.6 1 1.1c3.5 3.5 9.9 6.6 12.2 7.7 0.5 0.2 0.8 0.4 0.8 0.4 0 0 9.9 3.5 13.8 6.3q0.8 0.5 1.3 1c0.7 0.9 0.9 1.7 0.8 2.4 0.2 2.8-2.1 5.7-4.6 6-3.3 0.3-21.4-0.9-26.6-2.2-5.1-1.3-8.3-6.4-11.2-6.7-2.8-0.2-8.2-0.4-10-1.8-0.9-0.6-1-2.5-0.8-4.7-0.1-3.9 2-10.5 2-10.5 0.4-1.9 0.9-4.2 1.3-5.9 0.7-2.6 1-3.6 1.1-4-4.6-16.5-13.7-53.6-16.7-95l-16.6 17.5-1.1 8.6c0 0-0.2 0.3-0.6 0.8 0 0.7 0.1 1.6 0.2 2.7 0.2 2.2 0.3 5 0.3 7.3 0 0 1.2 8.2 0.3 12.9-0.2 2.5-0.7 4.6-1.8 5.2-2.5 1.2-8.9 0.4-12.4 0-1.9-0.1-4.4 1.6-7.4 3.2 2.8 67.2-13.7 133.4-14.4 135.9q0.6 0.5 1.2 1.1c3.3 2.6 11.9 9.7 13.1 10.5 5 3.4 13.2 6.5 18.5 8.3 4.7 1.3 12.5 3.6 14.7 5.6 1.4 1.3 1.7 2.6 1.2 3.7 1.4 2.7-1.2 5.2-4.3 5.9-3.8 0.9-24.9 2.1-31 1.3-6.1-0.7-10.6-6.2-13.9-6-3.4 0.1-9.6 0.7-11.9-0.7-1.1-0.6-1.5-2.7-1.6-5.1-0.6-4.6 0.9-12.6 0.9-12.6 0.1-2.4 0.4-5.1 0.6-7.2 0.2-1.1 0.3-2 0.4-2.7-0.4-0.4-0.6-0.7-0.6-0.7l-0.7-9.5-9.5-127.8c-0.7-0.2-1.4-0.3-1.8-0.4-3.2-0.9-5.7-3.5-4.2-6.2-0.4-1.2-0.1-2.5 1.4-3.7 0.8-0.6 2.1-1.2 3.7-1.8l-5-66.9c-0.1-1.9-0.2-3.5-0.4-5.1q-0.4-3.2-0.9-6.9l-41.2 43.8-29.7 130.6c1 0.5 1.9 1 2.6 1.5q0.8 0.5 1.3 1.1c0.7 0.8 0.9 1.6 0.8 2.3 0.2 2.8-2.1 5.7-4.6 6-0.5 0-1.4 0-2.6 0l-9.2 40.3q-0.2 1.9-0.5 3.8c-0.2 5.3-0.6 12.1-0.6 13.8-0.1 2.4-0.8 9.2-1.7 12.7-0.4 1.8-0.7 3.4-1.1 4.2-1.3 2.7-12.9 2.1-17.4 0.2-4.4-1.9-11.6-8.4-11.7-11.6 0-0.6 0.2-1.3 0.6-2q0-0.2-0.1-0.4c0-3 6.6-8.6 11.5-13.6 2.3-2.4 4.5-4.7 6-6.5q1.4-1.8 2.7-3.7l-0.4-0.8q0 0 0-0.5c-0.3-2.8-1.4-17.2-1.5-38-0.2 0-0.4-0.1-0.6-0.1-5.1-1.3-8.3-6.4-11.2-6.6-2.8-0.3-8.2-0.4-10.1-1.8-0.8-0.7-0.9-2.6-0.7-4.8-0.1-3.9 2-10.5 2-10.5 0.4-1.9 0.9-4.2 1.3-5.9 0.7-2.6 1-3.6 1.1-3.9-1.4-5.2-3.3-12.3-5.3-21-2.2 0-4.2 0-5.4-0.2-6.1-0.8-10.6-6.2-13.9-6.1-3.4 0.2-9.6 0.7-11.9-0.6-1.1-0.6-1.5-2.7-1.6-5.2-0.6-4.6 0.9-12.6 0.9-12.6 0.1-2.3 0.3-5 0.6-7.1 0.2-1.2 0.3-2 0.3-2.7-0.3-0.5-0.6-0.8-0.6-0.8l-0.7-9.4-8.8-119.2-34.5 36.6c-6.8 27.8-11.6 44.3-13.9 53.7q-0.1 0.2-0.1 0.4c51.6 42.7 78.2 149.9 87.3 194.5q0.2-0.1 0.4-0.2c2.1 2.7 5.5 10.5 8.2 13.3 1.7 1.6 4 3.7 6.6 5.8 5.3 4.3 12.3 9 12.7 12q0 0.3-0.1 0.7c0.7 0.8 1.1 1.6 1.2 2.2 0.3 3-5.6 10-9.4 12.3-3.9 2.3-14.6 4.4-16.1 2.1-0.5-0.8-1.1-2.3-1.7-4.1-1.4-3.2-3.2-10.2-3.6-12.7q-0.1-0.3-0.2-0.7-0.5-1.2-1-2.6c-0.8-2.3-2-5.3-2.6-8.5-0.8-2.2-3.2-6.9-4.9-10.3q-0.2-0.3-0.2-0.3c-1-2-1.8-3.5-1.8-3.5l-99.3-181.8c-1.4-3.9-2.8-7.6-3.1-11-1.2-2.6-1.7-5.6-1.3-8.6l-0.1-7.2-3.8 4.1-9.1 39.8q-0.2 1.8-0.5 3.7c-0.3 5.4-0.6 12.1-0.6 13.8-0.1 2.5-0.8 9.3-1.7 12.8-0.4 1.8-0.8 3.4-1.2 4.2-1 2.2-9.4 2.2-14.6 1-4.5 29.8-13.1 58.7-21.6 82.2-0.4 1.4-0.8 2.8-1.1 4.2q0.3-1.4 0.6-2.8c-8.4 22.7-16.5 40.2-20.4 48.2l1.7 0.2c0 0 0.1 0.5 0.5 4.7 0.2 1.9 0.3 4.4 0.4 6.5 0 0 1.1 7.5 0.3 11.6-0.1 2.5-0.6 4.5-1.6 5.1-2.2 1.1-8 0.4-11.2 0.1-3.1-0.2-7.4 4.8-13.2 5.3-5.7 0.4-25.5-1.4-28.9-2.3-2.7-0.7-4.6-4.3-4-7.2 0.1-0.8 0.4-1.6 1.4-2.4 0.4-0.4 0.9-0.6 1.5-0.9 4.1-2 12.9-3.8 15.4-4.3q0.6-0.1 0.6-0.1c0 0 10-2.6 15.4-6.5q0.6-0.5 1.2-1 0.2-0.1 0.3-0.3 0.5-0.4 1-0.8 0.1-0.1 0.2-0.2 1.3-1.3 2.4-2.6c2.6-3 4.5-6.1 4.9-6.7 0.1-13.5 0.5-50.6 2.9-93.1-1-0.8-1.9-1.3-2.8-1.4-2.8-0.2-8.2-0.4-10.1-1.8-0.8-0.6-0.9-2.6-0.7-4.8-0.1-3.9 2-10.4 2-10.4 0.4-2 0.9-4.2 1.3-5.9 0.7-2.7 1-3.6 1.1-4-7.7-27.7-28.2-113.5-11.1-180.6l-17.4-64.4-6.9 40.1c-0.2 3.8-1.7 7.2-4.1 9.8-1.1 2.7-3 5.4-5 8.3l-40.4 42.7c-0.8 60-8 128.8-10.8 153.8 0 0 1.4 3.4 3.5 7q0.9 1.3 1.8 2.6 0.1 0.1 0.2 0.3 0.3 0.4 0.7 0.9 0.1 0.1 0.3 0.3 0.4 0.6 0.9 1.1c3.5 3.5 9.9 6.6 12.2 7.7 0.5 0.2 0.9 0.4 0.9 0.4 0 0 9.8 3.5 13.8 6.3q0.8 0.5 1.2 1c0.8 0.9 1 1.7 0.9 2.4 0.2 2.8-2.1 5.7-4.6 6-3.3 0.3-21.5-0.9-26.6-2.2-5.1-1.3-8.3-6.4-11.2-6.7-1.4-0.1-3.4-0.2-5.3-0.4 3.5 13.6 6.2 25.7 8.1 35q0.2-0.1 0.5-0.2c2 2.7 5.4 10.5 8.1 13.3 1.7 1.6 4 3.7 6.6 5.8 5.3 4.3 12.3 9 12.7 12q0 0.3 0 0.7c0.6 0.8 1 1.6 1.1 2.2 0.3 3-5.6 10-9.4 12.3-3.9 2.3-14.6 4.4-16.1 2.1-0.5-0.8-1.1-2.3-1.7-4.1-1.4-3.2-3.1-10.2-3.6-12.7q-0.1-0.3-0.2-0.7-0.5-1.2-1-2.6c-0.8-2.3-2-5.3-2.6-8.5-0.8-2.2-3.2-6.9-4.9-10.3q-0.2-0.3-0.2-0.3c-1-2-1.8-3.4-1.8-3.4l-66.7-122.3c-2.3 2.6-5.3 5.9-6.4 7.6-1.3 2.7-3 5.1-4.3 6.9q-0.8 1.2-1.5 2.1-0.2 0.4-0.4 0.6c-0.9 2.2-4.1 8-6.1 10.5-1 1.4-1.8 2.6-2.5 3.2-1.9 1.7-10.9-2.7-13.8-5.6-2.9-2.9-6.5-10.5-5.4-13.1 0.2-0.6 0.8-1.2 1.5-1.7 0-0.2 0-0.5 0.1-0.7 1.1-2.5 8.4-5.1 14.1-7.7 2.7-1.2 5.3-2.5 7.2-3.5 3-1.9 7.8-8 10.3-10q0.2 0.2 0.4 0.3c0.1-0.2 0.2-0.4 0.3-0.7l-2.9-5.4c-1.2-0.1-2.2-0.2-2.7-0.3-3.3-0.8-6-3.3-4.6-6.1-0.5-1.2-0.2-2.5 1.2-3.8q0.1-0.1 0.3-0.3l-17.4-31.9c-1-2.7-1.9-5.4-2.5-7.8l-24.5 25.9q1 0.9 2.1 1.7c5.3 4.4 12.3 9.1 12.6 12.1q0.1 0.3 0 0.7c0.6 0.8 1 1.6 1.1 2.2 0.4 3-5.5 10-9.4 12.3-3.3 2-11.9 3.8-15 2.7-2.1 14.7-5.2 29.1-8.8 42.8 3.1 2.1 6.4 3.7 7.9 4.4 0.5 0.2 0.8 0.4 0.8 0.4 0 0 9.9 3.5 13.8 6.3q0.8 0.5 1.3 1c0.7 0.9 0.9 1.7 0.8 2.4 0.2 2.8-2.1 5.7-4.6 6-3 0.3-19-0.8-25.3-2-2.6 8.4-5.3 16.3-7.9 23.7-0.4 1.4-0.7 2.8-1.1 4.2q0.3-1.4 0.6-2.8c-8.3 22.7-16.5 40.2-20.3 48.2l1.6 0.2c0 0 0.1 0.5 0.5 4.7 0.2 1.9 0.3 4.4 0.4 6.5 0 0 1.1 7.5 0.3 11.7-0.1 2.4-0.6 4.4-1.6 5-2.2 1.2-8 0.4-11.2 0.2-3.1-0.3-7.4 4.7-13.2 5.2-5.7 0.5-25.4-1.4-28.9-2.3-2.7-0.7-4.6-4.3-3.9-7.2 0-0.8 0.4-1.6 1.3-2.4q0.6-0.4 1.5-0.9c4.1-2 12.9-3.8 15.4-4.3q0.6-0.1 0.6-0.1c0 0 10-2.6 15.4-6.5q0.6-0.4 1.2-1 0.2-0.1 0.4-0.2 0.4-0.5 0.9-0.9 0.1-0.1 0.2-0.2 1.3-1.3 2.4-2.6c2.6-3 4.5-6.1 4.9-6.7 0.1-13.9 0.5-53.2 3.2-97.5-0.2 0.3-0.5 0.7-0.7 1q-0.3 0.4-0.4 0.6c-1 2.2-4.1 8-6.2 10.5-0.9 1.4-1.8 2.6-2.4 3.2-1.9 1.7-10.9-2.6-13.8-5.6-2.9-2.9-6.5-10.5-5.5-13.1 0.3-0.6 0.8-1.1 1.6-1.7 0-0.2 0-0.5 0.1-0.6 1-2.6 8.3-5.1 14.1-7.8 2.7-1.2 5.3-2.5 7.2-3.5 2.1-1.4 5.2-4.9 7.7-7.5 1.1-14.1 2.5-28.2 4.2-42-3.5-22.3-5.9-47.9-5.1-73.4l-28.7-52.8-84.8 89.9c-3.3 49-13.3 89-13.7 90.9q0.5 0.5 1.2 1.1c3.2 2.7 11.8 9.7 13 10.5 5 3.5 13.2 6.5 18.5 8.3 4.8 1.3 12.5 3.6 14.8 5.6 1.3 1.3 1.6 2.6 1.2 3.7 1.3 2.7-1.2 5.2-4.4 5.9-3.7 0.9-24.9 2.1-31 1.3-6.1-0.7-10.5-6.2-13.9-6-3.3 0.1-9.5 0.7-11.9-0.7-1-0.6-1.4-2.6-1.5-5.1-0.7-4.6 0.8-12.6 0.8-12.6 0.2-2.3 0.4-5.1 0.7-7.2q0.1-1.6 0.3-2.7c-0.4-0.4-0.6-0.7-0.6-0.7l-0.7-9.5-2.1-28.1-0.1 0.1c-2.3 1.2-8.1 0.5-11.2 0.2-3.1-0.2-7.5 4.7-13.2 5.2q-0.6 0.1-1.3 0.1c-0.9 1.5-1.8 2.8-2.6 4q-0.8 1.1-1.5 2-0.2 0.4-0.3 0.6c-1 2.2-4.2 8-6.2 10.5-0.9 1.4-1.8 2.6-2.5 3.2-1.8 1.7-10.9-2.6-13.8-5.6-2.8-2.9-6.4-10.5-5.4-13.1 0.2-0.6 0.8-1.1 1.5-1.7 0.1-0.2 0.1-0.5 0.1-0.6 0.3-0.7 1-1.4 2-2.1-2.1-1.2-3.5-4.2-2.9-6.7 0-0.8 0.4-1.6 1.4-2.4q0.4-0.6 1.5-0.9c4-2 12.9-3.9 15.3-4.3q0.6-0.2 0.6-0.2c0 0 9.5-2.4 15-6.1 2.9-5.8 6.4-12.7 10.5-20.3 0.2-18.7 0.9-54.1 3.4-93.1l-3.5-47.4c-0.2-1.9-0.3-3.6-0.4-5.2-4.6-33.9-16.1-47.5-19.7-98.7q-0.9 0-1.8 0 0 0.5-0.1 0.9c-0.1 1-1.5 13-1.5 12 0-0.3 0.1-12.6 0.1-13q-0.2 0-0.4 0c-2.2 60.9-11.1 140.3-11.2 143.1q-0.2 3.9-0.9 7.3c0 6.2-2 15.2-4.6 26.9l-43.4 140.2q-0.3 1.9-0.5 3.8c-0.3 5.3-0.6 12.1-0.7 13.8-0.1 2.4-0.7 8.7-1.6 12.3q0.6 1 1.3 2 0.1 0.1 0.2 0.2 0.4 0.5 0.7 1 0.2 0.1 0.3 0.3 0.5 0.5 1 1 0.7 0.8 1.6 1.5 0.2 0.2 0.5 0.4c3.5 2.7 8.2 5 10.1 5.8 0.5 0.3 0.8 0.4 0.8 0.4 0 0 9.9 3.6 13.8 6.4q0.8 0.5 1.3 1c0.7 0.9 0.9 1.7 0.8 2.4 0.2 2.7-2.1 5.7-4.6 5.9-3.3 0.4-21.4-0.9-26.6-2.1-5.1-1.3-8.3-6.5-11.2-6.7-2.8-0.2-8.2-0.4-10-1.8-0.9-0.6-1-2.6-0.8-4.8-0.1-2.5 0.8-6.2 1.4-8.5-4.4-2.2-10.8-8.2-10.8-11.2 0-0.6 0.2-1.3 0.5-2q0-0.2 0-0.3c-0.1-2.8 5.1-7.5 9.7-12-9.3-38.3-24.1-117.5-4.5-177.3 0.7-2.1 1.5-4 2.3-5.6q-0.4-1.3-0.5-2.7-0.2-1.2-0.3-2.4 0 0.6 0 1.2-0.2-2.5-0.4-4.9c-3.6-32.1-9.6-82.9-11.4-98.2l-17 98.7c-0.2 3.8-1.7 7.2-4.1 9.8-1.1 2.7-3 5.4-5 8.3l-13.9 14.7c-1.8 19.5-3.5 35.5-4.6 45.2 0 0 1.4 3.4 3.6 7q0.8 1.4 1.8 2.7 0.1 0.1 0.1 0.3 0.4 0.4 0.8 0.9 0.1 0.2 0.3 0.3 0.4 0.6 0.9 1.1c3.6 3.6 10.1 6.8 12.5 7.9 0.5 0.2 0.8 0.4 0.8 0.4 0 0 10.1 3.6 14.1 6.4q0.8 0.5 1.3 1.1c0.7 0.9 0.9 1.7 0.8 2.4 0.2 2.8-2.1 5.8-4.7 6-3.3 0.4-21.8-0.8-27-2.2-5.2-1.3-8.5-6.5-11.4-6.7-3-0.3-8.4-0.4-10.3-1.9-0.9-0.6-1-2.6-0.8-4.8-0.1-4 2.1-10.7 2.1-10.7 0.4-2 0.9-4.2 1.3-6 0.7-2.7 1-3.7 1.1-4-1.5-5.3-3.4-12.6-5.4-21.4l-26.8 28.4c0 11.1-0.2 18.5-0.3 20.6q0 0.7 0 0.7l-0.9 0.2c1.1 1.4 2.2 2.9 3.4 4.3 1.7 1.8 4 4.1 6.5 6.5 5.3 5 12.4 10.4 12.4 13.6q0 0.1 0 0.3c0.4 0.8 0.6 1.4 0.6 2 0.1 3.4-7.1 10.4-11.6 12.6-4.4 2.1-16.4 3.2-17.9 0.5-0.4-0.9-0.9-2.4-1.3-4.3-1.1-3.6-2.1-10.5-2.3-13.1-0.1-1.7-0.7-8.7-1.2-14.2-0.3-1.7-0.6-3.4-0.9-5l-0.1 0.1-2.2-8.1-51.4 54.5c0 0-1 1.1-2.4 2.6q0 0-0.3 0.2c-2.3 2.6-5.5 6.2-6.7 8-1.3 2.7-3 5.1-4.3 6.9q-0.8 1.2-1.5 2.1-0.2 0.4-0.3 0.6c-1 2.1-4.2 8-6.2 10.5-1 1.4-1.8 2.6-2.5 3.2-1.9 1.7-10.9-2.7-13.8-5.6-2.9-2.9-6.5-10.5-5.4-13.1 0.2-0.6 0.8-1.2 1.5-1.7 0.1-0.2 0.1-0.5 0.1-0.7 1.1-2.5 8.4-5.1 14.1-7.7 2.8-1.3 5.3-2.5 7.2-3.5 3-1.9 7.8-8.1 10.3-10q0.2 0.2 0.4 0.3c9.7-19.7 27.8-53.6 50.8-85.1l-34-125.7-85.9 91c0 0-1.1 1.1-2.5 2.7q0 0-0.3 0.2c-0.7 0.8-1.4 1.7-2.2 2.5l-2.6 41.1c0.5 18.1 0.1 37.9-0.7 57.8q0 0.7-0.1 1.4c-2.2 50.9-7.5 101.6-9.8 122.3 0 0 1.3 3.4 3.5 7q0.8 1.3 1.8 2.6 0 0.1 0.1 0.2 0.4 0.5 0.8 1 0.1 0.1 0.2 0.3 0.5 0.5 1 1c3.5 3.5 9.9 6.7 12.2 7.8 0.5 0.2 0.8 0.3 0.8 0.3 0 0 9.9 3.6 13.9 6.4q0.7 0.5 1.2 1c0.7 0.9 0.9 1.7 0.9 2.4 0.1 2.7-2.1 5.7-4.7 5.9-3.2 0.4-21.4-0.8-26.5-2.1-5.2-1.3-8.4-6.5-11.2-6.7-2.9-0.2-8.3-0.4-10.1-1.8-0.9-0.6-1-2.5-0.8-4.8-0.1-3.8 2.1-10.4 2.1-10.4 0.3-1.9 0.8-4.2 1.3-5.9 0.6-2.7 0.9-3.6 1-4-3.8-13.8-10.8-41.9-14.8-75-0.7 0.5-1.6 0.9-2.6 1.1-3.7 0.9-24.8 2.1-30.9 1.3-6.1-0.7-10.6-6.2-13.9-6-3.4 0.1-9.6 0.7-11.9-0.7-1.1-0.6-1.5-2.6-1.6-5.1-0.6-4.6 0.9-12.6 0.9-12.6 0.1-2.3 0.4-5.1 0.6-7.2 0.2-1.1 0.3-2 0.4-2.7-0.4-0.4-0.6-0.7-0.6-0.7l-0.7-9.5-2.6-34.6-97.4 103.2c0 0-1 1.1-2.4 2.6q0 0-0.2 0.3c-2.4 2.5-5.6 6.1-6.8 7.9-1.3 2.7-3 5.1-4.3 6.9q-0.8 1.2-1.5 2.1-0.2 0.4-0.3 0.6c-1 2.2-4.2 8-6.2 10.5-0.9 1.4-1.8 2.6-2.4 3.2-1.9 1.7-11-2.6-13.8-5.6-2.9-2.9-6.5-10.5-5.5-13.1 0.2-0.6 0.8-1.2 1.5-1.7 0.1-0.2 0.1-0.5 0.1-0.6 1.1-2.6 8.4-5.2 14.1-7.8 2.8-1.2 5.3-2.5 7.2-3.5 3-1.9 7.9-8 10.4-10q0.1 0.2 0.3 0.3c16.4-33.1 56.3-106.4 103.8-140.9l-9.4-126.6c-0.1-1.9-0.2-3.5-0.4-5.1-4.5-33.9-14.1-107.4-17.7-158.6q-0.8 0-1.7 0-0.1 0.5-0.1 1c-0.1 0.9-1.5 0.9-1.5-0.1q0-0.5 0-1-0.2 0-0.4 0c-2.1 60.9-11 140.3-11.2 143.2q-0.2 3.8-0.8 7.2c0 6.2-2 15.2-4.6 26.9l-45.5 200.1q-0.2 1.9-0.5 3.8c-0.3 5.3-0.6 12.1-0.6 13.8-0.1 2.4-0.8 9.2-1.7 12.8-0.4 1.8-0.7 3.3-1.2 4.1-1.2 2.7-12.9 2.1-17.3 0.2-4.4-1.9-11.6-8.4-11.7-11.6 0-0.6 0.2-1.3 0.6-2q0-0.2-0.1-0.3c0-3.1 6.6-8.7 11.5-13.6 2.3-2.5 4.5-4.8 6-6.6q1.4-1.8 2.7-3.7l-0.4-0.8q0 0-0.1-0.5c-0.7-9-10.4-134.9 31.8-209.5q-2.7-12.7-4.8-25.5c-10-46.4-17.5-105.4-15.9-140.8 0.8-17 3.2-30.4 6.5-41q-0.6-0.2-1.2-0.5 0.1-0.5 0.4-1.1 1.5-4.6 3.3-9.4 0.1-0.1 0.1-0.2c12.1-32.5 31.5-75.1 32.5-108.8-7 1.4-14 3.1-21 4-14.5 1.9-30.5-0.1-40.7-12.5-10.3-12.3-12-33.7 1-41.9 5.5-3.5 13.7-7 19.5-9.8 13.4-6.6 18.6-26.4 19.7-43.9q0.1-1.6 0.1-3.3c-0.4-4.3-0.6-8.3-0.4-11.7-23.9-22.6-50.3-57.1-84.1-91.7-1.3-1.4 6.1-9.4 14.9-17.5-6.3-18.6-8.9-52.3-10-83.2-0.3-10.1-0.8-20.6-1.3-28.8q0-0.8 0-1.5-0.1-1-0.2-1.9 0-0.1 0-0.2c-0.1-2.1-0.2-4-0.3-5.6 0-0.4 0-0.9-0.1-1.3-4.3-5-12.7-14.7-13.2-16.1-0.6-1.7-0.2-15.7-0.2-15.7l4.7-11.4c0 0 2.6 2.6 1.5 5.6 1.1 1.7 3 4.9-0.2 9.3-0.9 5.2 0.9 9.6 0.9 9.6 0 0 1.2 0.9 2.8 2.3 0.8 0.2 1.6 0.3 1.9 0 0.7-1-2.7-8.7-2.5-10 1.4-1.5 3.7-1.1 4.8 0 1.1 4.5 4.6 20 4.6 20l0.8 3.4q1.1 3.2 2.2 6.2 0.5 1.6 1 3.2 0.5 1.4 1 2.8c15.9 48.4 19.3 79.9 18.5 99.4 4.3-3 7.5-4.7 8.4-3.9 10.2 9.4 25.1 30.9 39.4 54.7-0.5-7.1-0.8-14.2-0.8-21.4-10.4-23.5-23.4-59.8-12.7-75.1 2.8-4 5.6-5.5 8.3-5.2 6.9-25.3 33.2-32.2 49.4-35.4 5.9-1.2 12.3-2 18.8-2.2-5.1-16.7-9.9-38.6-13.4-67.1l-3.7-23.5-5.5-6.4-6.1-10.6-10.3-12.4c-0.5-0.6-0.9-2-0.3-2.5 0.9-0.8 1.7-0.7 2.3-0.1l9.5 9.8 0.1-0.1 1.3-1.2-10.6-16.4c-0.6-0.8-0.4-1.9 0.4-2.5l0.2-0.1q0.6-0.4 1.4-0.3 0.7 0.1 1.1 0.8l10.9 15.4 0.2-0.2 0.9-0.5-8.5-18.8c-0.4-0.8-0.1-1.8 0.7-2.3l0.2-0.1q0.8-0.5 1.6-0.2 0.9 0.2 1.2 1l8.9 18 1.2-0.7-4.3-17.3c-0.1-0.4 0-0.8 0.3-1 2.8-2.1 4 2.5 4.4 3.8l5.2 15.4 1.1 2.8 5.4 4.1 0.9-3.5-9.9-11.4c-0.7-0.8-0.6-2.1 0.2-2.8l0.1-0.2q0.6-0.5 1.5-0.5 0.8 0 1.4 0.6l8.7 9.3c0.6-0.9 1.4-1.7 2.2-2.2l-7.8-12.1c-0.5-0.8-0.4-2 0.5-2.6l0.2-0.3q0.8-0.6 1.7-0.4 1 0.1 1.6 0.9l12.6 18.5 1.2-1-7.5-18.4c-0.1-0.4-0.1-0.9 0.2-1.2 2.8-2.7 4.8 2.2 5.5 3.5l8.1 16.3 2.2 3.9 4.1 4.7 1.9-0.9 0.9-7.8c0.4-3.1 3.1-7.5 6.1-6.8 0.3 0.1 0.7 0.2 0.9 0.5 0.2 0.2 0 0.6-0.1 0.9l-2.3 8.4 0.7 10.9-1.5 9.1-1.2 5 6.6 28.1c3.8 6.5 7.9 13.7 12 20.5 18.6 31.3 37.3 66.4 42.5 88.3 5.1 2.9 10.2 6.2 15.5 9.7q0.1-0.3 0.2-0.6c-0.3-19 2.2-43.4 5.2-66.2 2-15.2 3.8-31.6 4.7-39.3q0-0.3 0.1-0.5 0-0.1 0.1-0.1-0.2-0.2-0.4-0.6c-0.1-0.5-0.1-1.1 0.1-1.6l3.2-6.9c0 0 6.7-14.4 8.6-18.6 1.4-0.8 3.7-0.7 4.7 1 0 1.3-4.9 8.2-4.4 9.3 0.2 0.4 1 0.4 1.9 0.4 1.8-1 3.2-1.7 3.2-1.7 0 0 2.7-3.9 2.8-9.2-2.2-5 0.3-7.8 1.8-9.1-0.5-3.1 2.6-5.2 2.6-5.2l2.2 12.1c0 0-2.5 13.8-3.4 15.4-0.8 1.3-13.5 10.8-17.9 14.1 0.4-0.1 0.7-0.1 1.1-0.1q0.8 4.8 1.5 9.4l0.2 1.1c2.7 17.6 4.3 32.9 5.1 46.2q0-0.1 0.1-0.2 1.8-2.3 3.8-4.2c-0.8-4.5-0.9-9.2-0.7-10.5 0.2-1.4 0.5-2.8 0.8-4.1q0.1-0.5 0.2-0.9 0.5-1.9 1.2-3.7 0.1-0.2 0.2-0.4 0.6-1.6 1.4-3 0.2-0.4 0.4-0.7 0.8-1.6 1.8-3 0.2-0.2 0.4-0.5 1-1.2 2-2.3 0.2-0.3 0.4-0.5 1.1-1.2 2.4-2.3 0.3-0.2 0.6-0.5 1.2-0.9 2.5-1.8 0.2-0.1 0.3-0.2 1.4-0.9 2.9-1.8 0.4-0.1 0.7-0.3 1.6-0.8 3.2-1.5 0 0 0.1 0 1.6-0.7 3.3-1.2 0.3-0.1 0.7-0.2 1.7-0.6 3.4-1 0.3 0 0.5-0.1 1.6-0.4 3.3-0.7 0.3 0 0.7-0.1 1.7-0.3 3.6-0.5 0.3 0 0.6-0.1 1.7-0.1 3.4-0.2 0.3-0.1 0.5-0.1 1.9-0.1 3.8-0.1 0.3 0 0.7 0 1.8 0 3.6 0 0.1 0 0.2 0c6.3 0.3 12.5 1.1 18 2.2 2.6 0.6 5.6 1.2 8.6 2.1q2.1-8.5 4.8-17.6l6.4-25.4-2.8-8.7-1.6-13.4-5.1-16.9c-0.2-0.8-0.1-2.4 0.8-2.7 1.3-0.4 2 0 2.4 1l5.4 13.9 0.1-0.1 1.8-0.6-3.7-21.1c-0.2-1.1 0.5-2.1 1.6-2.3l0.2-0.1q0.8-0.1 1.5 0.3 0.7 0.5 0.9 1.3l4.3 20.2 0.3-0.1 1.2-0.1-0.7-22.6c0-1 0.7-1.9 1.7-2l0.4-0.1q0.9-0.1 1.7 0.5 0.7 0.6 0.8 1.5l1.2 22 1.5-0.2 3.1-19.2c0-0.5 0.3-0.9 0.7-1 3.8-0.8 2.9 4.3 2.8 5.8l-1.4 17.8-0.1 4.3 1 6.1 2 0.2 4.8-6.1c1.9-2.4 6.4-4.7 8.6-2.6 0.2 0.2 0.5 0.5 0.5 0.8 0 0.3-0.3 0.5-0.5 0.7l-6.3 5.9-4.9 9.5-5.9 7-3.6 3.5-8.7 27c-0.2 6.4-0.3 13.4-0.4 20.3q1.9 1.1 3.7 2.3c7.5 2.8 15.5 7 22.4 13.3 5.3-6.8 11.2-13.9 17.8-21.4q0.5-0.6 1.2-1.1c2-8.4 6.5-26.6 7.7-28.2 1.5-2.3 17.9-14.6 17.9-14.6l17.1-6c0 0-1 4.9-5.2 6.5-1 2.6-3.1 7.4-10.9 8.4-6.8 3.8-10.3 9.6-10.3 9.6 0 0-0.1 2-0.4 4.8 0.5 1.1 1 1.9 1.6 1.8 1.7-0.1 7.8-10.5 9.6-11.5 2.8 0 4.2 2.6 3.9 4.7-4.3 5.1-19.2 22.7-19.2 22.7l-0.7 0.9c1.7-0.5 2-1.5 1 1.3-2.7 8.1-7.1 32.5-11.6 47.4q-1.4 4.8-2.9 9.3c1 10-0.1 21.8-4.1 35.9 0 0-0.1 1.4-0.3 3.8q7.2-6.6 16.5-10.5 3.4-4.9 6.7-9.7c2.1-3 2.6-6.4 2.5-9.8-0.3-5.7-0.8-11.4-1.3-17-0.7-7.1 1.3-13 7.5-17 0.9-0.7 1.8-1.7 3-0.8 1.4 1.1 0.3 2.3-0.3 3.4-1.1 2.2-2.2 4.5-3.8 7.7 3.2-2.4 5.6-4.2 7.9-5.9 1.1-0.7 2.4-1.6 3.4-0.2 0.9 1.3 0 2.5-1 3.4-2.6 2.5-5.5 4.8-6.4 9 2.9-1.3 4.2-3.8 6.5-5.3 2.4-1.6 4-1.1 4.7 1.8 1.3 5.4 4 10.3 7 15 1.4 2.3 2.3 4.6 1.9 7.3-0.6 3.9 1.1 6.5 4.1 8.7 2.6 1.9 5.2 3.6 7.9 5.3 2.7 0.5 5.5 1.3 8.4 2.3q0.9 0.4 1.8 0.7c-0.3-6.6-0.6-13.1-0.9-18.7q0-1.2-0.1-2.4-0.1-0.9-0.1-1.7 0-0.3 0-0.5-0.2-3-0.3-5.4c-0.1-0.4-0.1-0.9-0.1-1.3-4.3-5-12.8-14.7-13.2-16-0.6-1.8-0.2-15.8-0.2-15.8l4.6-11.4c0 0 2.6 2.7 1.5 5.6 1.2 1.7 3.1 4.9-0.2 9.3-0.9 5.2 0.9 9.6 0.9 9.6 0 0 1.2 0.9 2.8 2.3 0.9 0.2 1.6 0.3 1.9 0 0.8-1-2.7-8.7-2.4-10 1.4-1.5 3.6-1.1 4.8 0 1 4.5 4.6 20 4.6 20l0.8 3.4q1.1 3.2 2.1 6.3 0.5 1.5 1.1 3 0.4 1.5 0.9 2.9c4 12.2 7.2 23.3 9.8 33.3q3.1 3.5 5.8 7.9c3.8-2.9 7.2-5.5 7.2-5.5l16.8-5.9c0 0-0.9 4.8-5.1 6.5-1 2.5-3.1 7.2-10.7 8.1-1.9 1.1-3.4 2.3-4.8 3.5 0.7 1.7 1.4 3.4 2 5.2 1.3-2 2.6-3.6 3.2-4 2.8 0 4.2 2.5 3.9 4.6-1.2 1.3-3.1 3.7-5.3 6.3 2.1 9.6 2.7 21.3 1.1 35.6 0 0 0.1 1.2 0.1 3.4 0.8 1.7 1.3 3.7 1.3 5.9 4.2 4.7 8.8 10.4 13.8 17 6.7-9 13.8-17.9 20.8-26.1 1.5-2.9 2.4-5.9 2.7-8.9q-0.3-2.7-0.5-5.2-1.7-6.9-2.3-12.8c-1.7-4.5-3.4-7.4-3.4-7.4l1.7-0.3q-10.6-22-22.2-55.4c-7.5-21.5-16.7-45.4-16.7-45.4-0.4-1.1-2.6-6.8-4-11.3l-3.3-5.8c0 0-11.6-20.2-15-26 0.4-2.5 2.8-5.5 6.1-5.5 1.6 1.1 5.4 13 7.3 13.1 0.7 0.1 1.6-0.8 2.4-2 0.6-3.3 1.1-5.7 1.1-5.7 0 0-2.3-6.6-8.8-11-8.7-0.9-9.6-6.4-9.9-9.4-4.4-1.9-4-7.6-4-7.6l17.9 6.6c0 0 15 14.1 16 16.6 0.8 1.8 0.3 20 0 30.4l4.6 9.1c14.9 17.6 35.6 44 50.8 71.7 3.3-2 6.9-3.7 10.4-5.1-5.1-16.5-5.4-34.1-6-51.5-0.2-7.5 1.1-15 3.9-22 6.1-14.6 13.3-19.7 22.6-32.5 3.2-4.3 8.4-12.1 10.2-17.7 1-6.6-0.9-12.9-4.8-18.8-3.8-5.7-4.4-12.1-5.3-18.6-0.1-0.9-0.2-1.9 0.7-2.6 1.1-0.7 2 0.1 2.9 0.6 1.4 0.9 2.2 2.3 2.9 3.8 2.3 4.9 5 9.7 8.2 14.7 1.1-1.9 0.8-3.7 1.1-5.4 0.3-1.6 0.9-3.1 2.7-3 1.6 0 2.3 1.6 2.2 2.9-0.6 7.4 2.5 14.6 0 22.2-1 2.9-2 7.5-4 13.1-0.3 0-0.5-0.1-0.8-0.2-1.8 5.2-3.6 9.3-3.4 9.7-1.1 1.9-17.9 34.1-18.8 47.6-1.1 16.2 6.1 31.5 11.7 46.6 0.7 1.8 2.5 3.5 4.8 2 3.1-2 5.2-1.4 6.5-1.4q0.4-0.8 0.7-1.5 0.6 0 1.1 0c0.2-0.8 0.4-1.9 0.5-3.7 0.2-5.6-5.9-14.6-7.5-20.3-3.5-13-3-25.7 5.1-37 18.5-25.6 47.1-2.1 45.3 22-0.9 10.8-7.4 20.9-9.5 31.1-1 4.9 0.9 10.6 5.3 12.7 3.9 1.9 8.8 0.6 12.1-2.2 3.4-2.7 5.4-6.7 7.1-10.7 12.1-28.5 7.8-57.1-5.6-83.9-4.1-8.3-9.8-17.7-14-26.4q-0.1 0.1-0.2 0.1c-1.6-4-3.2-7.9-4.9-11.7-2.3-4.9 0.6-9.5 3-13.5 3.9-6.4 6.2-13 5.4-20.6-0.2-1.9 0.6-3.4 2.7-3.5 1.9-0.1 2.2 1.3 2.9 2.9 3.3 7.7 1.2 15.2-0.7 22.7-1.2 4.9-0.7 9.3 1.9 13.7 0.6 1 4.1 9.1 4.6 10 9.8 16.2 35.9 60.6 33.8 77.2-0.8 6.7-0.4 13.6-0.4 20.4 0 0.7-0.2 1.5-0.2 2.3 0.2 3.4 0.1 6.8-0.6 10.1q-0.7 3.5-1.5 6.9c4.5-2.1 10-2.1 14 0.7q0.3-0.1 0.5-0.2c2.9-3.9 6.9-6.9 11.4-8.8 1.4-10.8 2.7-22 3.6-30.2 0.4-3.2 0.7-5.9 0.9-8q0-0.3 0.1-0.5l0.1-0.1q-0.2-0.2-0.3-0.6c-0.2-0.5-0.1-1.1 0.1-1.6l3.2-6.8c0 0 6.7-14.5 8.6-18.7 1.4-0.8 3.7-0.7 4.7 1 0 1.3-5 8.2-4.4 9.3 0.2 0.4 0.9 0.4 1.8 0.4 1.9-1 3.2-1.7 3.2-1.7 0 0 2.7-3.9 2.9-9.2-2.3-5 0.3-7.7 1.7-9.1-0.4-3.1 2.6-5.2 2.6-5.2l2.2 12.2c0 0-2.4 13.7-3.4 15.3-0.8 1.3-13.4 10.8-17.8 14.1l1-0.1q0.9 4.8 1.6 9.4l0.2 1.1h-0.1q2.4 14.9 3.6 27.6c5.7 1.3 11 4.5 14.8 9q1.4 0.3 2.8 0.6c8.1-6.6 19.9-8.5 29.5-4.5 10.3 4.2 17.6 14.8 17.9 25.8 0.1 2.4-0.1 4.8 0.4 7.1 0.9 4 3.8 7.1 5.9 10.6 5.8 9.8 4.9 23.1-2.2 31.9 5.6 4.9 10.2 12.1 8.5 19.3-1.5 6.3-9.9 10.3-14.9 7.1q-0.4 1.2-0.8 2.3 0.3-0.5 0.5-0.6c3.4-0.1 6.5 2.4 7.3 4.5-2.4 5.2-10.7 22.9-10.7 22.9l-1.6 3.4c1.2 1.6 2.5 3.3 3.8 5.1 1 0 2.1 0 3.2 0.1q0.4 0 1.2 0c13.4-18.3 29.6-34.3 46.9-44.8-12.1-15.6-25.2-42.5-39.2-80.4-5.8-15.8-12.6-42.1-16-50.7-1.2-2.9-0.8-1.9 0.7-1.7l-0.7-0.8c0 0-15.4-17-19.8-22-0.6-2.3 0.4-5.3 2.9-5.8 1.6 0.8 8.3 11.3 9.8 11.1 0.6 0 1-1 1.3-2.2-0.6-3.1-1-5.3-1-5.3 0 0-3.8-5.8-10.3-9-7 0.3-9.5-4.6-10.6-7.4-4-1.1-5.5-6.4-5.5-6.4l15.9 3.8c0 0 16.1 10.9 17.7 13.1 1.3 1.7 7.4 21.1 10.2 30.1q0.7 0.4 1.3 1 6.6 7.1 12.5 13.9c-4.7-16.1-9-36.6-12.2-62.6l-3.7-23.5-5.4-6.4-6.1-10.6-10.4-12.4c-0.5-0.6-0.9-2-0.3-2.5 1-0.8 1.7-0.8 2.4-0.1l9.5 9.8v-0.1l1.3-1.2-10.6-16.4c-0.5-0.8-0.3-1.9 0.5-2.5l0.2-0.1q0.6-0.4 1.3-0.3 0.8 0.1 1.2 0.7l10.8 15.5 0.2-0.2 1-0.6-8.6-18.7c-0.4-0.8-0.1-1.8 0.7-2.3l0.3-0.2q0.7-0.4 1.6-0.2 0.8 0.3 1.2 1.1l8.9 17.9 1.2-0.6-4.3-17.3c-0.1-0.4-0.1-0.8 0.3-1 2.8-2.1 3.9 2.5 4.4 3.8l5.1 15.4 1.1 2.8 5.4 4.1 1-3.5-9.9-11.4c-0.7-0.8-0.7-2.1 0.1-2.8l0.2-0.2q0.6-0.6 1.4-0.5 0.9 0 1.4 0.6l8.7 9.3c0.7-0.9 1.4-1.7 2.3-2.2l-7.8-12.1c-0.6-0.9-0.4-2 0.4-2.7l0.3-0.2q0.7-0.6 1.7-0.5 1 0.2 1.5 1l12.7 18.5 1.2-1-7.5-18.4c-0.2-0.4-0.2-0.9 0.2-1.2 2.8-2.7 4.7 2.2 5.4 3.5l8.2 16.3 2.2 3.8 4 4.8 1.9-0.9 1-7.8c0.3-3.1 3.1-7.5 6.1-6.8 0.3 0.1 0.7 0.2 0.8 0.5 0.2 0.2 0.1 0.5 0 0.8l-2.4 8.5 0.8 10.8-1.5 9.2-1.3 5 6.7 28.1c3.7 6.5 7.9 13.6 12 20.5 18.6 31.3 37.3 66.3 42.4 88.3 5.1 2.9 10.3 6.2 15.5 9.7q3.2-9.6 6.9-19.1c4.3-11.2 9-22.4 16.5-31.8q1.8-2.3 3.7-4.2c-0.7-4.5-0.8-9.2-0.6-10.5 0.2-1.5 0.4-2.8 0.8-4.1q0.1-0.5 0.2-0.9 0.5-2 1.2-3.7 0.1-0.2 0.2-0.4 0.6-1.6 1.4-3.1 0.1-0.3 0.3-0.6 0.9-1.6 1.9-3 0.2-0.3 0.4-0.5 0.9-1.2 1.9-2.4 0.2-0.2 0.4-0.4 1.1-1.1 2.3-2.2-0.2-0.1-0.5-0.2 5.2-7.6 10.5-15.1c2.1-3 2.6-6.3 2.4-9.8-0.3-5.7-0.8-11.3-1.3-17-0.6-7.1 1.4-13 7.5-17 1-0.6 1.9-1.7 3-0.8 1.4 1.1 0.3 2.3-0.2 3.4-1.1 2.2-2.3 4.5-3.9 7.7 3.3-2.4 5.6-4.2 8-5.8 1-0.8 2.3-1.7 3.4-0.3 0.9 1.3 0 2.5-1 3.4-2.7 2.5-5.6 4.8-6.4 9 2.8-1.2 4.2-3.8 6.4-5.2 2.4-1.6 4-1.2 4.7 1.7 1.4 5.5 4.1 10.3 7 15 1.5 2.3 2.3 4.7 1.9 7.3-0.6 3.9 1.2 6.5 4.2 8.7 3.2 2.3 6.4 4.4 9.8 6.5q0.6 0.1 1.3 0.2c8.1 1.7 18.9 4.4 28 10.4 3.3-9.7 7.1-18.9 11.1-27.3 0.7-1.3 7.5-1.3 14.9-0.5-2.5-16.4-1.8-41.4-0.2-64.6 0.6-9.3 1.1-19.2 1.5-26.4 0.1-2.7 0.2-4.9 0.3-6.7q0-0.2 0-0.5h0.1q-0.2-0.2-0.3-0.5c-0.1-0.4-0.1-0.9 0-1.3l2.3-6c0 0 4.9-12.4 6.3-16.1 1.1-0.7 3-0.8 4 0.5 0 1.2-3.7 7.2-3.2 8.1 0.1 0.3 0.8 0.3 1.5 0.2 1.5-1 2.6-1.6 2.6-1.6 0 0 2.1-3.5 1.9-7.9-2.1-4-0.1-6.5 1-7.7-0.5-2.6 1.9-4.5 1.9-4.5l2.6 10c0 0-1.4 11.6-2.1 13-0.6 1.2-10.7 10-14.2 13l0.8-0.2q1 4 1.9 7.8l0.2 0.8c11.1 49.6 9.5 78 6 93.3 3.5 0.9 5.8 2 5.5 3-1.7 6.4-4.4 15.1-7.8 24.9q0.4 0.2 0.6 0.5c1.1 4.5 4.6 20 4.6 20l0.8 3.4q1.1 3.1 2.2 6.2 0.5 1.6 1 3.1 0.5 1.5 1 2.9c7.4 22.5 12 41.4 14.9 57.1l8.8 3.2c0 0 14.7 13.8 15.8 16.3 0.8 1.8 0.3 19.7-0.1 29.9l4.6 8.9c7.2 8.5 15.9 19.2 24.6 31.1q-0.7-6.1-1.4-12c-3.2-0.4-3.3-3-3.2-6.3q0.1-11.1 0.3-22.2c-0.9-8.9-1.6-17.2-2.2-24.4-2.7-10.5-3.3-19.4-2.3-26.9-0.1-1.1-0.1-1.7-0.1-1.7h0.4c0.5-3.5 1.5-6.6 2.7-9.5-1.8-6.6-4.2-13.1-6.8-19.6-6.1-15.1-11-30.2-9.2-46.8 0.4-4.3-0.1-8.9-1-13.2-3.9-18.5 1.5-35.1 11.1-50.3 15.2-24.2 27.7-49.7 40.5-75.2 1.8-3.7 4.5-7 6.9-10.4 1.2-1.8 2.5-4.4 5.1-2.9 2.3 1.4 1 3.9 0.2 6-0.3 0.8-0.7 1.5-1.6 3.5 4.3-1.7 7.3-3 10.4-4.1 4-1.4 6 0.4 4.1 4.1-2.6 4.9-3.6 10.7-9.3 13.8-5.1 2.7-4.3 8.4-4.7 13-0.4 3.7-0.1 7.7-1.4 11.1-4.4 11.4 2.3 19.1 8.5 26.8 2.6 3.2 8.1 1.8 11.7 4.9 7.2 6.2 15.1 11.8 13.5 23.1-0.1 0.8-0.1 2 0.3 2.6 7.2 9.9 10 22.1 17 32 3.7 5.4 10.6 7.6 14.6 13.2 6.2 8.4 9.5 17.1 6.2 27.2-2.3 7.1-3.2 14.4-4.1 21.7 0.5 0.4 1 0.8 1.4 1.3q0.2 0.2 0.4 0.5 1.2 1.2 2.2 2.6 0.2 0.3 0.4 0.6 1.1 1.6 2.1 3.3 0.2 0.4 0.3 0.8 0.9 1.6 1.6 3.3 0.1 0.3 0.2 0.5 0.7 2 1.3 4.1 0.1 0.5 0.2 1c0.4 1.5 0.7 3 0.9 4.6 0.2 2.1-0.2 11.6-2.3 17.6q1.1 2.8 2.2 5.4l9.8-3.4c0 0-1 4.8-5.2 6.4-0.4 1.1-1 2.6-2.2 4q1.5 4.4 2.4 8.1c9 5.3 18.4 11.6 27.9 18.6q5.1-10.8 10.5-20.7c-2.3-2.1-2.7-4.8-2.9-6.6-4.3-1.8-3.9-7.4-3.9-7.4l12 4.4q0 0 0.1-0.1c0.2-0.4 0.6-0.7 1-0.9-0.4-6.6-0.3-14.1 0-22.1-10-17.3-21.2-42.7-31.9-79.9v0.1l-0.3-1.1q-1.4-4.6-2.7-9.4c0.4-0.1 0.7-0.2 1.1-0.3-5.5-1.2-21.5-4.6-22.8-5.5-1.6-1.1-9.9-12.7-9.9-12.7l-3.2-12.2c0 0 3.8 0.6 4.7 3.7 2 0.7 5.5 2.1 5.6 7.7 2.4 4.8 6.6 7.3 6.6 7.3 0 0 1.6 0 3.8 0.2 0.8-0.3 1.5-0.7 1.5-1.2 0.1-1.2-7.5-5.5-8.1-6.7 0.2-2 2.3-3.1 3.9-2.9 3.7 3.1 16.2 13.6 16.2 13.6l6 5c0.4 0.3 0.7 0.8 0.7 1.4q0.1 0.4 0 0.7 0 0 0.1 0 0.2 0.2 0.3 0.5c1.1 1.8 2.6 4.1 4.3 6.9 4.6 7.5 10.9 17.8 17.1 27.4q5.4 8.3 10.5 16.8 0.7-5.8 1.5-11.4c2-15.2 3.8-31.7 4.7-39.3q0-0.3 0.1-0.6h0.1q-0.3-0.3-0.4-0.6c-0.1-0.5-0.1-1.1 0.1-1.6l3.2-6.9c0 0 6.7-14.4 8.6-18.6 1.4-0.8 3.7-0.8 4.7 1 0 1.3-4.9 8.2-4.4 9.2 0.2 0.4 1 0.5 1.9 0.5 1.8-1.1 3.2-1.8 3.2-1.8 0 0 2.6-3.9 2.8-9.2-2.2-4.9 0.3-7.7 1.7-9.1-0.4-3.1 2.7-5.2 2.7-5.2l2.2 12.2c0 0-2.5 13.7-3.5 15.4-0.7 1.3-13.4 10.8-17.8 14.1l1.1-0.2q0.8 4.9 1.5 9.5l0.2 1c5.1 32.7 6.2 57.5 5.3 76.3 3.1 6.3 5.8 12.3 7.8 17.7 7.5-5.2 14.7-9.3 16.2-8.2 4.1 2.9 8.3 6.1 12.4 9.4-5-23.5-8.5-44.9-9.1-57.9-4.8-15.5-9.5-52.8 12.5-129.1l6.4-25.3-2.8-8.7-1.6-13.4-5.1-16.9c-0.3-0.8-0.1-2.5 0.8-2.7 1.2-0.4 2 0 2.4 0.9l5.4 14v-0.1l1.9-0.6-3.7-21.2c-0.2-1 0.5-2 1.6-2.2l0.2-0.1q0.8-0.2 1.5 0.3 0.7 0.4 0.8 1.2l4.3 20.3 0.3-0.1 1.2-0.2-0.6-22.6c0-1 0.7-1.8 1.7-2h0.4q0.9-0.2 1.7 0.4 0.7 0.6 0.7 1.6l1.3 22 1.5-0.2 3-19.3c0.1-0.4 0.4-0.8 0.8-0.9 3.7-0.9 2.9 4.3 2.8 5.7l-1.4 17.8-0.1 4.4 1 6 2 0.3 4.8-6.1c1.9-2.5 6.4-4.8 8.5-2.7 0.3 0.3 0.5 0.6 0.5 0.9 0 0.3-0.2 0.5-0.5 0.7l-6.2 5.9-4.9 9.5-5.9 7-3.6 3.5-8.7 27c-0.2 7.3-0.3 15.4-0.4 23.3-0.3 35.7-2.4 74.7-9.2 95.7 12.2 22.4 23.2 51.3 30.8 80.2 9.6-1.6 15.4-9.2 18.3-16.7 5.5-13.8 5.7-29.3 7.9-44.1 2.1-14.8 6.8-29.8 19.5-39.7q1.1-0.9 2.4-1.7 1.1-1.7 2.3-3.3 0.3-0.3 0.5-0.6 1.2-1.4 2.4-2.6 0.3-0.3 0.5-0.5c0.7-0.7 1.3-1.2 2-1.8 0.9-19.7 6.4-38.4 13.6-56.7 1.4-3.5 2.2-7.1 3.9-10.3 7.1-13.8 5.5-27.2-1.7-40.2-5.3-9.7-5.4-20.1-5.9-30.6-0.1-1.5-0.1-3.1 1.4-4 1.9-1.1 3.3 0.3 4.6 1.3 2.2 1.7 3.3 4 4.2 6.5 3 8.2 6.7 16.2 11.1 24.7 2-2.8 1.9-5.8 2.5-8.6 0.7-2.4 1.8-4.7 4.7-4.4 2.7 0.3 3.5 2.9 3.2 5-2 11.7 2 23.9-3.1 35.6-3.6 8.3-4.4 17.7-4.9 26.6-0.8 15.2-4 29.9-7 44.7 9.2 0.6 18.3 0.4 27.5-0.2q1.2 0.1 2.4 0.3-0.1-0.2-0.1-0.4 7.8-0.6 15.6-1.2-0.2-5-0.7-9.9c-2.2-19.6-3-39.4-6.1-59-1.2-7.4 4.4-12.5 9.2-17 7.6-7.2 13.1-15.2 14.8-25.6 0.5-2.8 2.1-4.4 5-3.8 2.6 0.5 2.5 2.6 2.8 5 1.5 11.6-4.1 20.9-9.4 30.3-3.4 6.1-4.4 12.2-2.5 19.2 5.4 19.9 11.9 39.5 14.5 60.2 0.6 5.1 1 10.2 0.8 15.3q-0.3 0.8-0.7 1.5c3.6 2.3 7 5.1 9.9 8.3 5 3.3 9.2 7.6 12.2 12.4 3.5-10.3 7.5-20.2 11.8-29.1 0.6-1.4 7.4-1.3 14.9-0.5-2.5-16.5-1.8-41.5-0.2-64.6 0.6-9.4 1.1-19.3 1.5-26.5 0.1-2.6 0.2-4.9 0.3-6.6q0-0.3 0-0.5h0.1q-0.2-0.3-0.3-0.6c-0.2-0.4-0.2-0.8 0-1.3l2.3-5.9c0 0 4.8-12.5 6.2-16.1 1.1-0.8 3.1-0.9 4 0.5 0.1 1.1-3.7 7.2-3.2 8 0.2 0.3 0.9 0.4 1.6 0.3 1.5-1 2.6-1.7 2.6-1.7 0 0 2.1-3.4 1.9-7.8-2.1-4-0.2-6.5 1-7.8-0.6-2.5 1.9-4.5 1.9-4.5l2.5 10.1c0 0-1.3 11.6-2 13-0.6 1.1-10.8 9.9-14.3 12.9l0.9-0.2q1 4 1.8 7.8l0.2 0.9c7.7 34.2 9.3 58.3 8.4 75q0.1-0.1 0.2-0.2 1.2-1 2.5-1.8 0.2-0.1 0.3-0.2 1.4-1 3-1.8 0.3-0.1 0.6-0.3 1.6-0.8 3.2-1.5 0.1 0 0.1 0 1.6-0.7 3.3-1.2 0.3-0.1 0.7-0.3 1.7-0.5 3.4-0.9 0.3-0.1 0.5-0.1 1.6-0.4 3.3-0.7 0.3 0 0.7-0.1 1.8-0.3 3.6-0.5 0.3 0 0.7-0.1 1.6-0.1 3.3-0.2 0.2-0.6 0.4-1.1 1.3-3.1 2.6-6.3l1.1-3.4c0 0 4.7-15.7 6-20.3 1.3-1 3.6-1.3 4.9 0.3 0.2 1.3-3.8 9.1-3.1 10.1 0.2 0.3 1 0.3 1.9 0.1 1.8-1.3 3-2.2 3-2.2 0 0 2.2-4.4 1.6-9.8-3-4.7-0.8-7.9 0.4-9.5-0.9-3.1 1.9-5.7 1.9-5.7l4.1 12c0 0-0.6 14.3-1.3 16.1-0.6 1.3-9.9 10.8-14.6 15.7q-0.2 0.8-0.3 1.9 0 0.3-0.1 0.6 0 0.7-0.1 1.3 0.1 0 0.2 0 0.1 0 0.2 0c6.3 0.2 12.5 1.1 18 2.2 8.4 1.7 19.7 4.6 29 11 4.7-4.8 11-10.7 11-10.7l16.3-7.9c0 0-0.4 5-4.5 7.2-0.7 2.7-2.3 7.6-9.9 9.4-2.2 1.7-4 3.5-5.4 5.2q2.2 1.1 4.4 2.4c0.8-1.4 1.6-2.5 2-2.9 2.8-0.3 4.5 2.1 4.5 4.2-0.4 0.5-0.9 1.3-1.4 2 16.7 12.1 29.7 34.2 18.1 75 0 0-0.8 10.9-2.7 27.3q6.6-1.2 13.8-1.4c4.1-0.5 12.2-0.9 21.4 1.4 19 4.6 42.3 20.6 42.2 71.2 0 0 0.3 1.2 0.5 3.4 1.6 2.7 2.5 6.4 2.2 10.4-0.3 3.4-1.4 6.4-2.9 8.7q-0.1 0.9-0.3 1.8c0.1 0.4 9.7 50.5-34.4 53.4-4 0.2-7.7 0.1-11.2-0.2l0.4 7.1 0.5 6.8c5.9 0.6 10.5 1.2 11.4 1.4 5.3 1.4 9.9 3.1 13.7 4.8q1.3 0.6 2.7 1.5c5.5-19.8 19.7-46.7 26.9-59.8 7.8-14.1 17.1-29.5 26.4-43.1 6.3-15.6-7.3-33.7-7.3-33.7l1.6-0.5q-12.9-20.6-28.2-52.6c-9.8-20.5-21.6-43.3-21.6-43.3-0.5-1-3.3-6.4-5.1-10.7l-4-5.4c0 0-13.7-18.8-17.7-24.3 0-2.4 2.1-5.7 5.4-6.1 1.8 0.9 6.8 12.4 8.7 12.3 0.7 0 1.5-1.1 2.2-2.3 0.2-3.4 0.4-5.7 0.4-5.7 0 0-2.9-6.4-9.9-10-8.7 0-10.3-5.3-10.9-8.3-4.6-1.4-4.8-7.1-4.8-7.1l18.5 4.6c0 0 16.4 12.3 17.8 14.7 1 1.7 2.5 19.9 3.3 30.3l5.5 8.5c23 21.5 58.3 58.3 75.5 94.4 27.1 24.9-1.9 78.2-1.9 78.2zm-1112.6-37.3c0.5-0.9 1-2.2 1.4-3.6q-0.7 1.8-1.4 3.6zm-661.8-257.4l2.4 2.6 0.2-0.3 1-0.7-2.5-3.9zm-1.4 7.1l0.5-0.6-0.4-0.5zm35.7 117.7q0.4 0.2 0.8 0.4 1.7 0.9 3.3 1.9 0.1 0.1 0.3 0.3 1.4 0.9 2.8 2.1 0.3 0.2 0.6 0.5 1.4 1.2 2.7 2.6 0.2 0.2 0.5 0.5 1.1 1.2 2.1 2.6 0.2 0.3 0.4 0.6 1.1 1.6 2.1 3.3 0.2 0.4 0.4 0.8 0.8 1.6 1.5 3.3 0.1 0.3 0.2 0.5 0.7 2 1.3 4.1 0.1 0.5 0.2 1c0.4 1.5 0.7 3 0.9 4.6 0.3 2.2-0.2 12.2-2.5 18.1 8.6 8.4 17.2 17.7 25.3 27.4q3.6-7.6 7.4-14.6c-2.7-3.4-5-6.5-6.8-9.2-12.4-11-36.2-41.1-57.3-119.1l-7.8-25.4-7-6.2-8.2-10.5-1.8 5.6-1.7 4.3 2.3 25.7c2.5 6.2 5.3 13.1 8.1 19.7 7 16.9 13.9 34.8 18.9 50.9q1.5 0.4 3 0.8 0.4 0.2 0.8 0.3 1.9 0.6 3.6 1.4 0.1 0 0.1 0 1.8 0.8 3.5 1.7zm29.5 105.4q0.1 0.7 0.2 1.5 0.2-0.5 0.3-0.9-0.2-0.3-0.5-0.6zm-23.2 45.7q2.2 7 4.5 14.1 2.1-2.6 4.3-5.3 1.8-9.3 4.3-19c-3.5 4-7.9 7.5-13.1 10.2zm49.6 627.9q-0.2-0.4-0.3-0.9c-0.8-0.6-1.5-1.1-2-1.6-3-3.1-6.6-10.8-5.6-13.4 0.3-0.6 0.8-1.2 1.6-1.8 0-0.2 0-0.4 0.1-0.6 0.4-1 1.7-2 3.5-3-3.6-31.4-8.4-72.3-10-85.8l-17 98.8c-0.1 3.7-1.6 7.2-4 9.8-1.2 2.6-3.1 5.4-5.1 8.2l-5 5.4c-4.1 40.3-11.8 70.8-12.2 72.5q0.6 0.5 1.2 1.1c3.3 2.6 11.9 9.6 13.1 10.4 5 3.5 13.2 6.6 18.5 8.4 3.9 1 9.9 2.8 13.1 4.5-0.8-7.9-1.4-16.1-1.7-24.4-8.3-0.1-17.9-0.7-20.4-1.3-3.3-0.7-5.9-3.2-4.5-6-0.5-1.2-0.2-2.5 1.2-3.8 2.2-2.2 10.3-4.7 15.1-6 2.4-0.9 5.4-2 8.5-3.3 0.5-21.2 3.3-42.4 9.6-61.7 0.6-2 1.4-3.9 2.3-5.5zm14.4-551.7q-0.5-0.7-1-1.3c-1.5-1.8-2.9-4.3-4-7.2-5.1 2.9-10.4 5.4-15.7 7.8q-0.2 0.1-0.3 0.2 0.1-0.1 0.2-0.2-0.4 0.2-0.8 0.4 0.4-0.2 0.9-0.5c3.1-2.9 6.2-5.9 9-9-7.7-1.1-11.9-3-13.9-4 3 0.1 9.2-6.2 9.7-6.9 3.7-4.3 6.2-9.9 8-15.6 0.6-4.2 1.5-8.3 3-12.2 1.8-10.5 0.6-20.6-1.5-30.6q-1.6-1.9-3.3-3.8c-12.5 26.7-25.7 52.3-35.3 66.1q3.2 10 6.5 20 0.5 1.6 1 3.3c10.7-5.1 23.5-7.4 37.5-6.5zm-11.2-9.7c-3 3.1-6.2 6.1-9.5 8.9 5.3-2.5 10.6-5.2 15.5-8.3q-3.3-0.3-6-0.6zm93-122.5q-0.3 0-0.5 0.1l-0.1 1.3-0.1 0.1-1.5 17.4zm101.7 81.9c-9-4.9-19.9-13.2-28-26.9-2.1-3.6-5.7-11.6-9-21.6q-0.2 1.2-0.4 2.4c8.4 21.5 12 45.2 11 66.7 7.5-2 14.7-3.4 18.5-3.8 0.2 0 0.7 0 1.3 0.1 1.6-5.1 3.7-10.7 6.6-16.9zm14.8-152.7c3.1-5.7 2.1-11 0.3-16.6-0.3-0.8-0.3-2.3-1.6-2.1-1.1 0.1-1.2 1.4-1.3 2.4-0.1 4.9-2.2 9.6-0.2 14.6 0.7 1.9-0.2 4.2-1.3 6.1q-1.8 3.3-3.3 6.6 3.9-0.6 8.1-0.8c-1.8-3.2-2.3-7.3-0.7-10.2zm66.2 139.4q-1.8-2.4-3.7-4.8c-3.5 13.6-12.7 28.6-36.1 28.3-2.1 5.1-4.3 9.8-6.5 14.1 2.1 0.5 3.6 0.9 4 1.1 0.5 0.2 0.9 0.4 1.4 0.6 7.1-11.7 17.9-19.9 31.2-24.3 3.3-5.4 6.7-10.5 9.7-15zm43.5 14.9q0.3 0.5 0.7 1.1 2 0.8 4.1 1.8-0.5-4.1-1-8.3-1.9 2.8-3.8 5.4zm6.2 508.7q-2.8-12.8-4.8-25.6c-1.4-6.3-2.7-12.7-3.9-19.3-3.4 39.4-7.5 76.3-7.4 77.7 0.1 1.7-0.1 3.3-0.3 4.7q0.1 0.3 0.2 0.5c4.2-13.5 9.6-26.4 16.2-38zm121.7-67.2q-1.2 4.5-2.4 8.4-0.4 1.4-1.1 2.8 0.5 1.2 0.8 2.6 1.3-6.9 2.7-13.8zm63.8-433c-2.8 0.4-4.4 0.5-4.4 0.5 0 0 0.4-0.1 1.2-0.4-1.7 0.3-2.7 0.4-2.9 0.4v1.4h-0.1l-1.1 25.1q0.3 0 0.5 0c-0.1-6.8 0.7-13.4 2.9-19.1 1.1-2.8 2.4-5.4 3.9-7.9zm44.2-28.2q0.2-0.1 0.5-0.1l0.2-1q-0.3 0.6-0.7 1.1zm3.1 551q-0.4-1.2-0.6-2.6-0.1-1.2-0.3-2.5 0 0.3 0 0.6 0 0 0 0-0.2-2.1-0.4-4.3c-3.6-32-9.6-82.9-11.4-98.2l-11.4 66.7c8.5 13.2 16.1 28 22.7 43.3q0.7-1.6 1.4-3zm-0.9-4.5q0.1 0.3 0.1 0.6-0.1-0.3-0.1-0.6zm157.6 79.5q3-3.9 6.2-7.8c1.4-8.3 3.4-16.4 5.9-24.1 0.7-2.1 1.5-3.9 2.3-5.6q-0.4-1.2-0.6-2.6-0.1-1.2-0.2-2.5 0 0.6 0 1.2-0.2-2.4-0.4-4.9c-1.9-16.5-4.4-37.9-6.6-56.9zm-25.1-706.4c-1.3 5.9-1.9 11.9-1.7 17.9q1.1-8.3 2.9-16.5-0.6-0.7-1.2-1.4zm-94.9-197.4l2.4 2.6 0.2-0.3 1-0.7-2.5-3.9zm-1.4 7.1l0.5-0.6-0.4-0.5zm2.9 920.6q1.2-6.7 2.6-13.4-1.2 4.5-2.4 8.4-0.4 1.4-1.1 2.7 0.4 1.2 0.8 2.5 0-0.1 0.1-0.2zm31.3-38.7l-0.8-71.3c-3.9 13.4-13.9 47.9-22.4 77.4l-1.4 6c-2.1 8.9-4.3 17.7-6.7 26.6 9.6-13.6 20.1-26.9 31.3-38.7zm24.2-590.8q-5.7-14.2-11.7-31.5-0.3-0.9-0.7-1.9c-5.6 11.3-12.4 23.7-19.7 35.9 2.7 4.3 5 9.4 6.6 15.4 2.7 0 5.2 0.7 7.4 2.2q0.3-0.1 0.5-0.2c2.9-4 7-7 11.6-8.9 1.8-3.5 3.8-7.2 6-11zm35.6-79.1c-0.1-0.9-0.2-1.7-0.2-2.6 0-6.5 0.8-13 2.4-19.2-7.2-8.4-13.1-15.9-17-21.8-12.4-10.9-36.2-41-57.3-119l-7.8-25.5-7-6.1-8.2-10.5-1.8 5.6-1.7 4.3 2.3 25.7c2.5 6.2 5.3 13.1 8 19.7 12.6 30.1 24.7 63.5 26.5 83.6 21 16.6 43.6 40.9 61.8 65.8zm-14.2 47.3c2.1-2.8 4.4-5.8 6.8-8.8-8.8-10.8-18.1-22.9-26.9-34.9 0.6 4.7 0.7 8.6 0.5 11.9q-0.1 1.6-0.5 3.1c6.7 8.8 13.6 18.6 20.1 28.7zm20.6 667.2c-2.7-12.8-6-31.1-8.5-52.2l-21.8 23.1c-3 11.4-5.2 19.4-6.6 25q0 0.2-0.1 0.3c8.5 7.1 16.3 15.8 23.5 25.8 4.1-7.1 8.6-14.5 13.5-22zm1.5-638.6q-1.3 3.9-2.5 7.6 0.5 1.4 1.1 2.8 0.3-0.9 0.6-1.8c0.5-2.9 0.7-5.7 0.8-8.6zm39.6 767.9c-5.1-18.6-16-63.2-17.5-110.8l-6.1 6.5c0.2 2.1 0.5 4.7 0.7 7 0 0 1.6 8.2 1 13-0.1 2.6-0.5 4.7-1.6 5.4-2.4 1.4-8.8 0.9-12.3 0.7-0.3 0-0.6 0.1-1 0.2 14.9 28.6 26 61.2 33.9 89.5 0.3-1 0.5-1.7 0.5-1.7 0.4-1.9 0.9-4.1 1.4-5.9 0.6-2.6 0.9-3.5 1-3.9zm29.4-1015.9c-0.3-0.8-0.3-2.3-1.6-2.1-1.1 0.1-1.2 1.4-1.3 2.4-0.1 4.8-2.2 9.6-0.2 14.6 0.7 1.9-0.2 4.2-1.3 6.1-0.6 1.1-1.2 2.2-1.7 3.3q2.6-0.5 5.1-1.1c-0.5-2.3-0.3-4.7 0.7-6.7 3-5.6 2.1-11 0.3-16.5zm91.1 53.4c0.9 0.3 1.6 0.3 1.9 0 0.3-0.4-0.1-1.8-0.6-3.5q-0.6 1.7-1.3 3.5zm-3.6 10.1c3.9 5.7 6.8 12.7 8.2 21q-0.1-1.7-0.2-3.4 0-1.2-0.1-2.4-0.1-0.8-0.1-1.6 0-0.3 0-0.6c-0.1-2-0.2-3.8-0.3-5.3-0.1-0.5-0.1-1-0.1-1.4-1.9-2.1-4.4-5-6.8-7.9q-0.3 0.8-0.6 1.6zm34.9 154.8c-6.3-8-13.1-15.9-20.5-23.5-1-1 0.7-3.7 3.6-6.7-5.4-19.2-7.7-50.3-8.7-79q-0.2-4.3-0.4-8.6c-0.4 7.3-1.7 15.2-4.3 24.1 0 0-4.9 67.9-19.3 121.5q3.9 5.6 7.6 11.4c2.9 0 5.8 0 8.7 0.3 1.7 0 4.2 0.1 7.1 0.4-2-8.4-4.2-18-3.9-19.2 0.7-2.2 13.6-14.7 13.6-14.7zm8.2-34c-1.5-2.5-4.3-7.4-7.1-12.2q0.1 2.5 0 4.8c2.1 2 4.5 4.5 7.1 7.4zm2.8-23.9c0 0-2.2-6.6-8.7-10.9q-1.6-0.1-2.9-0.5 0.4 3.1 0.7 6 0.1 0 0.2 0c1.7 1.1 5.4 12.8 7.2 12.9 0.7 0.1 1.6-0.8 2.4-2 0.6-3.2 1.1-5.5 1.1-5.5zm12.1 798.3l-0.4-0.8q0 0 0-0.5c-0.2-1.4-0.5-5.4-0.8-11.5l-2.4 2.5q0.5 7.3 0.3 14.7c0.2-0.2 0.4-0.5 0.6-0.7q1.4-1.8 2.7-3.7zm26.5-930.2c3.7 6.7 4.4 15.2 6.2 23.3 1.9 8.3 9 9.7 15 12.4 3.6 1.6 6.7-2.1 5.5-6.4-1.8-6.4-4.5-12.3-9.2-17.2-4.9-5.2-6.8-11.3-4.7-18.3 0.7-2.1 1.3-4.2 1.1-6.4-1-13.5 5-24.2 14-33.5 1.8-1.9 2.7-3.5 1.1-5.6-2.3-3.1-2.7-9.2-6.7-8.9-3 0.2-3.5 6-4.9 9.4-0.6 1.7-1.2 3.4-1.5 5.1-1.9 12.8-6 24.8-13 35.8-1.8 2.7-3.2 5.8-2.9 10.3zm60.8 783.4c-0.5-5.1-1.3-12.3-2.2-22.2l-2.2 16.3q-1 4.6-1.9 9.1 3.1-1.7 6.3-3.2zm51.3 162.3c-2.6-14.5-4.9-30.8-6.2-48-3.5 21.5-7.1 35.8-7.4 36.9q0.6 0.5 1.2 1.1c2.9 2.3 10 8.1 12.4 10zm4.8-150.1q-0.5-1.3-0.6-2.7-0.2-1.2-0.3-2.4 0 0.6 0 1.2-0.2-2.5-0.4-5c-3.6-31.4-9.4-81.1-11.3-97.3-1 6.3-2.1 12.4-3.2 18.3-0.4 4.9-1 9.8-2 14.6 0 0.3-0.2 0.4-0.5 0.5 10 25 13.9 54.2 14.5 82.9q0.7-2.3 1.4-4.6c0.7-2 1.5-3.9 2.4-5.5zm4.4-566c-3.2-4-6.5-8.2-9.9-12.5 2.5 9.8 4.4 18.7 5.9 26.7q1.8-6.9 4-14.2zm30.3-0.2c3.7 7.4 6.5 14.5 8.4 21q0.8 0.4 1.6 0.9-0.4-6.1 0.3-11.2c-0.1-1-0.1-1.6-0.1-1.6l0.4-0.1c1.6-9.6 5.8-16.8 11.3-22.4-4.2-4.2-8.4-8.5-12.6-12.8-3 8.8-6.1 17.6-9.3 26.2zm-19.1-31.9q3.4-8.6 7-17.2c-4.9-5.5-9.4-10.7-13.4-15.5 2.7 8 3.2 16.9 1.2 25.4q2.7 3.6 5.2 7.3zm10.7 772.1q-0.2 0.1-0.4 0.1c-0.9 0.2-2.9 0.5-5.4 0.7-0.9 8.8-1.7 16.2-2.3 21.6 0 0 1.3 3.4 3.5 6.9q0.8 1.4 1.7 2.7 0.1 0.1 0.2 0.2 0.3 0.4 0.6 0.8c0.4-10.3 1-21.4 2.1-33zm3-25c-1.4 2.6-3.6 6.3-5.1 8.2-0.9 1.4-1.7 2.5-2.3 3.1q0 0.4-0.1 0.8c2.1 0.7 4.1 1.5 5.6 2.3q0.8-7.2 1.9-14.4zm27.8-90.2q-2.7-12.8-4.8-25.6c-9.1-42-16-94.5-16.1-130.3-3.5 43.7-8.5 88.7-8.4 90.2 0.1 1.7-0.1 3.3-0.3 4.7q0.6 1.5 0.7 3.1c2.2 37.8-0.4 86.9-3.6 127.6q0.5-0.2 0.8-0.4c2.7-1.7 6.9-6.8 9.5-9.2 5-21.5 12.1-42.3 22.2-60.1zm2.7-679.9l-1.3-2.3c0 0-1-1.7-2.5-4.3q-0.4 1.3-0.8 2.6c1.6 1.3 3.1 2.7 4.6 4zm54.9 621c-4.1-33.8-8.6-73.3-10.7-104.6q-0.9 0-1.8 0-0.1 0.5-0.1 1c-0.1 0.9-1.5 0.9-1.5 0q0-0.6 0-1.1-0.2 0-0.4 0c-1.7 49.4-7.9 111-10.2 134 7.7-10.3 16-20.3 24.7-29.3zm17.9-598.3q-1-3.2-2.1-6.6c-24.4-20.2-48.8-42.1-63-56.3q-0.4 1.1-0.8 2.1c2.4 2.5 4.4 4.6 4.7 5.5 0.8 1.8 0.3 19.6 0 29.8l4.5 9c4.6 5.4 9.8 11.8 15.3 18.7q2.4-0.5 4.6-0.9c6.2-1.3 13.1-2.1 20.1-2.3q0.1 0 0.1 0 2.1 0 4.1 0 0.4 0 0.8 0 2.1 0.1 4.2 0.2 0.3 0 0.5 0 1.9 0.2 3.8 0.4 0.4 0 0.7 0.1 1.3 0.1 2.5 0.3zm38.4 688c-3-18.1-7.4-51.2-7.4-87.9l-3.5 3.7c-2 14.5-4.3 28.7-6.7 41.7-0.4 4.9-1 9.7-1.9 14.5-0.1 0.3-0.3 0.5-0.5 0.5 5.3 13.5 8.9 28.1 11.2 43.2 0.1 0 0.2-0.1 0.3-0.2q0.1 0.2 0.3 0.3c2.3-4.5 5-9.9 8.2-15.8zm14.7-653c-3.6-2.3-7.6-5-12-8q-1.4 3.6-2.8 7.1 0 0.4 0.1 0.8c0.3 2.1-0.2 11.5-2.3 17.5 4.4-7.2 10.2-13 17-17.4zm29.6 541.7q-0.5-1.3-0.6-2.7-0.2-1.2-0.3-2.4 0 0.6 0 1.2-0.2-2.5-0.4-5c-1.5-13.2-3.4-29.5-5.2-45.3l-15.4 126.3q5-8 10.5-16.2c1.1-17.4 3.8-34.6 9-50.4 0.7-2.1 1.5-3.9 2.4-5.5zm9-581.5c-11.6-4.9-23.4-11.9-35.3-16.2-1.2 4.9-2.4 9.6-3.6 13.6-0.3 1.2-0.7 2.3-1 3.4 4.9 7.5 9.3 14.7 12.7 21.5l0.4-0.2q0.4-0.1 0.7-0.2l24.4-6.8c0.5-5 1-10.1 1.7-15.1zm35.7 8.6q1.1-1.9 2.2-4-1 0.4-2.1 0.7zm4 561l-11.7-64.3q-1-5.3-1.7-10c-3.5 40-7.6 77.8-7.5 79.2 0 1.7-0.1 3.3-0.3 4.7q0.5 1.5 0.7 3.1 0.1 2.6 0.2 5.3c6.6-6.7 13.4-12.8 20.3-18zm60.8-559.1q1.7 2.6 3.4 5.2 0.1-4.1-0.3-8.2c-1 1-2 2-3.1 3zm6.4 664.3c-0.7-2.5-16.5-63.4-16.5-128.6l-2.4 13.8c-0.1 3.8-1.7 7.2-4.1 9.9-1 2.3-2.6 4.7-4.4 7.3 5.9 47 3.1 93 1 115.7 4.2-1.7 8.6-3.8 11.8-6 1.2-0.9 10-8.2 13.3-11q0.7-0.6 1.3-1.1zm159.3-594.2l-1.5-17.2c-0.7-0.3-1.5-0.7-2.3-1 2.5 5.7 3.3 11.9 2.9 18.2q0.4 0 0.9 0z"/>
		</g>
	</g>
</svg>