<svg version="1.2" xmlns="http://www.w3.org/2000/svg" viewBox="0 0 1800 1122" width="1800" height="1122">
	<title>back2-svg</title>
	<style>
		.s0 { fill: #b8babb } 
		.s1 { fill: #7f7f81 } 
		.s2 { fill: #272425 } 
		.s3 { fill: #e7f0fe } 
	</style>
	<filter id="f0">
		<feFlood flood-color="#7cffff" flood-opacity=".18" />
		<feBlend mode="normal" in2="SourceGraphic"/>
		<feComposite in2="SourceAlpha" operator="in" />
	</filter>
	<g id="Folder 2" style="opacity: .5" filter="url(#f0)">
		<path id="Layer" class="s0" d="m1446 362c0.9-2.9 3.5-2 3.5-2 0 0 24.5 7 47.8 13.6-3.2-8.9-7.9-16.7-10.9-21.3-0.7 0.4-1.4 0.6-2.3 0.6-2.5 0-4.6-2.1-4.6-4.7q0-1 0.4-1.9c-1.5-1.2-3.4-2.7-5.2-4.4-3.1-3.1 0.1-6.7-1.6-9.1-1.7-2.4-3.6-3.9-5.5-6.7-1.9-2.8-4.4-5.9-6.7-9.9-2.3-3.9-1.1-10.3-1.1-10.3 1.4 7.1 4.8 9.8 4.8 9.8-1.9-2.2-3.7-10.3-3.7-10.3l1.7-1.7c2.9 1.9 9 16.1 8.4 14.1-0.6-1.9-2.7-7.6-4-9.2-1.2-1.5-3.3-6-3.3-6l3-2.2 2.1 3.4c0 0-1.2-3.5-0.8-4.3 0.5-0.8 1.7-1.3 1.7-1.3 0 0-0.5-0.8 1 1 1.4 1.8 2.6 9.4 2.6 9.4 1.2-4.2-0.5-10.8-0.5-10.8 1.6 3.5 2.4 6.9 2.2 10.8-0.3 4 3.4 10.5 3.4 10.5 0.9 3.7 2.7 8.3 3.4 10.3 0.6 2 0.3 4 0.2 5.4-0.1 1.5 0.1 2.4 1.4 4.5 0.7 1.2 1.2 3.1 1.5 4.4 2.2 0.3 3.9 2.2 3.9 4.5 0 1.7-0.9 3.1-2.1 3.9 6.3 8.2 10.1 15.6 12.4 22 16.6 4.8 32.3 9.2 37.5 10.5 12.6 3.2 18.8 6.5 18.8 6.5-4.1 34.6-19.1 94.1-19.1 94.1-2.9-2.7-29.6-9.1-31.1-9.1-1.4 0-7.6 1.4-8.8 1.1-1.1-0.2-2.3 1.5-17.5-1.7-15.3-3.2-21.4-13.5-21.4-13.5-4.1-1.2-30.8-9.4-30.8-9.4 0 0 18.5-87.6 19.3-90.6z"/>
		<path id="Layer" class="s0" d="m1078.2 555.6c3.5-0.9 2.5-3.4 2.5-3.4l-8.7-4.1c0 0-10.3 4.7-13.4 8.1-3.1 3.5-3.1 1.9-3.1 1.9 0 0-0.7-2.2 1.2-4.7 1.9-2.5 1.9-6.2 2.5-9 0.6-2.8 2.2-10 4.1-10 1.8 0 14-2.8 17.1-3.4 3.1-0.7 4.7-6 7.8-10 3.1-4.1 15.9-22.2 17.2-23.8 1.2-1.5 5.3-7.5 7.2-8.4 0 0 12.8 16.3 26 33 0.8-11.8-1.1-26-11.4-36.7-9.3-9.8-13.5-16.4-15.2-21.3q-0.2 0-0.4 0c-5.1 0-9.3-4.2-9.3-9.3q0-0.9 0.1-1.8-1.3-1.6-2.8-3.7c-3.3-4.9-2.5-5.7-3-10.1-0.5-4.5-1-6.2-0.8-9.2 0.1-3-0.5-5.9-1.3-8.5-0.7-2.7-0.5-5-0.9-7.7-0.3-2.6-2-5.4-2.6-6.9-0.6-1.4-1.2-3.5-1.6-4.9-0.4-1.5 0.5-4.4 0.5-4.4 0 0 0.4 1.4 1.2 5.1 0.9 3.7 1.8 2.7 2.9 3.9 1.1 1.1 1.9 2.7 2.1 4.7 0.3 2 4.9 13.2 4 10.7-0.8-2.4-1.3-5.7-1.7-8.1-0.4-2.3-2.3-6-3.6-8.4-1.4-2.3-2.3-7.5-1.7-8.3 0.7-0.7 5-0.9 5-0.9 0 0 3 5.9 3 5.5 0-0.5-1.7-5.6-1.7-5.6l1.7-0.2c0 0 2-0.2 2.4 1.1 0.4 1.2 0.3 13.4 0.3 13.4l1 0.5c0.1-0.4 1-1.8 0.1-5.8-0.9-4.1 0.9-8.8 0.9-8.8 0 0-0.3 2.1 0.1 5.7 0.4 3.7 1.8 3.9 2.1 6.6 0.3 2-0.4 5.8-0.8 7.7 0.5-0.9 1.5-2 2.7-5.3 1.8-4.8-0.5-8.4-0.5-8.4 1.8 1.8 3.6 1.3 1.3 7.2-2.4 5.8-5.7 21 1.1 31.1 1.2 1.9 2.2 3.5 2.9 4.9 3.7 1.3 6.3 4.8 6.3 8.9 0 4.2-2.8 7.8-6.7 8.9 1.7 4.6 4.5 9.6 9.2 14.5 11.8 12.1 18 22 15.7 44.8 9.1 11.4 18.2 22.9 23.3 29.5 12.8 16.2 10.3 20.6 8.1 25-2.1 4.3-21.2 40.5-30.6 44.9l-16.8-22.2c0 0-8.8 1.9-15.6-0.6-6.9-2.5-14.7-5.6-18.1-7.2-3.5-1.5-11.3-4.6-14.4-6.2-3.1-1.6-15.3-16.6-17.2-18.4-1.8-1.9-3.4-2.2-3.4-2.2 0 0 20.3-8.8 23.7-9.7z"/>
		<path id="Layer" class="s0" d="m1010.8 256.5c1.8-21 1.2-24.1 1.2-24.1 0 0 10.5-4.2 15.4-3.6 0 0 7.2-28.3 8.1-31.9 0.9-3.6 2.4-5.7 3-1.8 0 0 26.8 12.9 49.6 24.4 16.5-18.2 9.7-29.4 4.9-34-0.5 0.8-1.4 1.3-2.5 1.3-1.7 0-3.1-1.4-3.1-3.1q0-0.2 0-0.4c-1.6-1.5-3.7-3.5-5.9-4.3-3.4-1.4-11.1-13.5-9.8-12.8 1.3 0.7 2.6 3.1 2.7 3.5 0 0.4 9.5 7.4 9.5 7.4 0 0-1.3-1.2-2.4-2.4-1.1-1.3-1.8-2.7-2.3-3.9-0.4-1.3-3-3.1-4.6-4-1.5-0.9-1.4-3.8-1.4-3.8 0.4 0.2 2.5 1.6 3.5 2.5 0.9 0.9 2.2 2.3 2.7 2.8 0.6 0.6 2.6 1.7 2.6 1.7-1.2-1.1-1-1.3-3.5-4.2-2.5-2.9-4-3.1-3.9-3.4 0.1-0.3 1.8-2.7 1.8-2.7 0 0 2.2 0.1 3 0.6 0.8 0.5 0.8 2.4 1.7 3.7 0.8 1.2 3.7 5 3.7 5-0.1-0.7 0.8-2.6-0.5-3.2-1.3-0.6-3.1-5.5-3.1-5.5 0 0 3.7 4.3 4.6 5.7 1 1.5 1.2 4 1.6 6.2 0.4 2.3 1.6 4.4 3 6.1 0.6 0.7 1 1.6 1.2 2.4 1.2 0.5 2.1 1.6 2.1 3q0 0.4-0.2 0.8c5.7 3.5 6.3 10.9 6.8 15.7 0.3 3.1-4.9 11.5-10.8 20 15.6 7.9 29 15.1 29.9 16.8 2.4 4.2 0.6 5.4 0.6 5.4l-3.3 12.9c0 0-20.4 78.6-21.9 83.4 0 0-0.6 2.4-5.2-0.9-4.5-3.3-45.1-22-51.7-26.5-6.6-4.5-26.5-13.3-26.5-13.3l2.4-10.5c0 0-4.8-9.9-3-31z"/>
		<path id="Layer" class="s0" d="m615.5 302.8c-1.4-3.1-1-4.6-1-7.5 0-2.9-1.4-6.3-1-9.4 0.4-3.1-1.3-13-1.3-13 1.2 1.2 2.5 4.1 3.1 5.9 0.6 1.8 1.6 5.2 1.2 7.9-0.4 2.8 1.6 11.5 1.6 11.5-1.1-4.2 0-7.3-0.2-9.9-0.1-2.7-0.6-8.6-1.5-10.8-1-2.3-2.2-4.5-2.2-4.5l3.3-1.8c0 0 2.5 0.1 3.1 0.5 0.6 0.3 1.1 3.2 1.2 4.8 0.1 1.6 2.3 8.2 2.3 8.2 0 0-0.5-3-1.1-5.7-0.6-2.6-1.3-7.3-1.3-7.3 0 0 2.2-0.8 2-0.4-0.1 0.4 2.2 4.9 2.4 7.2 0.3 2.3 3.2 4.9 4.4 9 1.2 4.1-0.4 15-0.4 15 1.6-2.2 2.8-11.1 2.8-11.1-0.1 1.7 0.2 7.9-1.6 11.4-1.8 3.5-1.3 7.7-0.3 11.4 0.6 2.3 0.6 5.8 0.5 8.1 1.9 0.5 3.4 2.3 3.4 4.4 0 1.6-0.7 2.9-1.9 3.8q0 0 0 0.1c2.6 5.4 13.7 17.2 25.4 25.6 8.4 6.1 14.6 16.3 17.9 22.2 2-9.3 8.8-43 9.6-45.5l17.7 5.6-2.6 2.7-2.1 13c0 0 19.3 2.2 21.1 2.7 1.8 0.6 5.6 2.9 7.1 3.5 1.4 0.5 12.3 7.7 10.6 8.3-1.6 0.5-4.7 2.1-5 2.7-0.4 0.5-0.2 6.5-1.5 9.4-1.2 2.9-2 9-2.7 11.4-0.7 2.3-2.9 6.7-3.6 7.9-0.7 1.3-3.4 6-3.8 7.8-0.4 1.8-2.3 7.4-2.2 9.6 0.2 2.1 0.6 9.9-0.9 11.2-1.4 1.2-3.8 0.3-3.8 0.3l-1.8 2.8c0 0-7.6-1.7-10.3-2-2.7-0.4-18.1-3.6-18.1-3.6 0 0-1.4 8.1-1.4 9.7 0 1.6 0.2 4.7 0.2 4.7l-17.6-0.3c0 0-0.9-6.2 0-9.4 0.9-3.1 9.1-44 10.4-49.5-1.4-3.1-3.6-8-8.2-14-6.9-9-15.9-15.2-21.3-18.8-5-3.3-13.4-15.5-14.7-17.4q-0.5 0.1-1 0.1c-2.4 0-4.4-1.9-4.6-4.3-1.9-1.9-4.4-4.8-4.5-5.7-0.1-1.2-0.9-6.6-2-9.9-1.1-3.2-12.8-15.3-12.8-15.3 4.6 2.1 10.5 9.7 9 6.7z"/>
		<path id="Layer" class="s0" d="m509 515.8l-9.5-23.8 87.8-27.6c0 0 14.6 36.9 22.7 57.1 9.8 2.5 19.1 7.3 24.7 16.5 12 20 23.5 39.2 30.5 48.4 1.2-0.7 2.6-1.1 4-1.1 3.8 0 6.9 2.6 7.7 6.1 4.6 3.1 11.8 9.6 12 19.9 0.2 14.7-8 34.9-6 48.9 1.9 14 0.7 26-0.5 29.4 0 0-1.7-19.7-2.2-25.5 0 0 0.7 23.8-6 25.8l-6.8-1.5c0 0 2.2-10.3 3.7-17.6 0 0-4.9 12.3-7 16.4l-7.5-2.4c0 0-2.5-4.5 0.5-12.4q0.7-2 1.9-4.2c5.8-10.6 12.1-20.3 12.3-24.4 0 0-15.2 21.5-17.4 29.4 0 0 2.9-18 9-27 6-8.9 6.7-17.8 6.7-19.7 0-1.9-3.1-9.9-3.1-14.5 0-2.8-0.4-7.8-0.6-11.8-2.6-1.3-4.5-4-4.5-7.1 0-2.2 0.9-4.1 2.3-5.5-0.8-1.1-1.5-2.2-2-3.3-2-4.3-32.1-49.4-39.3-54.2-2.9-2-6.7-3.3-10.8-4.3 0.9 2.2 1.7 4 2.2 5.5 5.5 13.5 16 40.3 16.3 41.2 0.3 0.8-15.2 6.5-23 9.2-7.9 2.7-61.8 21.9-61.8 21.9l-8.4-20c0 0-13.3-4.9-20.9-15.5-7.6-10.5-16.5-38.2-15.2-43.6z"/>
		<path id="Layer" class="s0" d="m255.8 334.5c0 0 1.3-1.2 2.9-1.9 1.5-0.8 1.5-6.2-0.4-13.8-2-7.6 5.8-18 5.8-18l24.8-11.8-5.6-51.6 34 33.7c0.3-8.2-1.2-16-6.6-20-10.8-8-14.5-14.2-16-18.3q-0.3 0-0.6 0c-2.5 0-4.5-2-4.5-4.4 0-1.1 0.4-2.1 1.1-2.8-0.5-2.2-1.1-6.6-1.1-7.9 0-1.7-2.3-6-4.3-9.3-2.1-3.3-2.4-5.8-3.8-9.7-1.5-4-2.1-5.6-1.5-8.6 0.6-3.1-0.8-6-0.8-6 1.8 1 2.6 1.2 2.7 4.2 0.2 3.1 5.5 12.2 5.5 12.2-0.1-0.4-2-5-2.6-6.6-0.6-1.6-1.4-8.5-1.4-8.5l4.3-0.3 0.6 6.4c0-0.1 0-0.3 0-0.7 0-1.6 0.7-5.8 1.2-5.8 0.4 0 2-0.6 2 0.4 0 1 0.2 9.6 0.2 9.6 0 0 0.4 2.8 0.2-0.6-0.1-3.3 1.5-9.8 1.5-9.8l-0.1 7.2c-0.8 4.7 3.4 14.1 5.6 22.3 1.6 6 0 10.5-0.9 12.4 0.3 0.5 0.5 1.2 0.5 1.9 0 1.8-1.1 3.3-2.6 4 1.8 4.5 5.9 12 13.5 15.4 8.3 3.7 10 12.9 9.2 24.7l31.9 31.6-1.7 71.1c0 0-32-21.9-32.4-22.5 0 0-12.8 6.8-19.8 8-6.9 1.1-18.4-3.3-22.2-5.3-3.9-1.9-11.9-10.6-13.6-12.8-1.8-2.1-4.5-4.2-4.5-4.2l2.6-2z"/>
		<path id="Layer" class="s0" d="m847.9 898c-0.8-1.2-2-2.3-2-2.3 0 0-7.8-0.6-9.8-1.2l-0.1 2.2c0 0 1.2 0.5 1.8 1.1 0.7 0.7 0.9 1.3 1.4 1.5 0.5 0.2 2 0.7 2.6 1.4 0.6 0.6 1.3 0.7 2 1.2 0.7 0.5 4.2 0.8 5.6 1 1.3 0.1 3.5 0.4 3.5 0.4 0 0-4.2-4.2-5-5.3z"/>
		<path id="Layer" fill-rule="evenodd" class="s0" d="m920.7 1121.8h-112.3q0.1-0.1 0.1-0.2c5.9-14.4 46.5-75.2 47.6-77.9 1.2-2.6 4.7-4.7 4.7-6.7 0-2.1-0.5-4.2-3.2-13.6-2.6-9.4-4.4-37.3-6.2-52-1.7-14.7-3.5-39.7-3.5-39.7 0 0-1.8-3.2-4.4-5.6-2.6-2.3-10.3-8.5-12.6-10.2-2.4-1.8-2.7-5.9-3.6-10.9-0.9-5 0-10.3-0.3-13-0.3-2.6 0-7 2.4-13.5 2.3-6.4 6-11.9 8.5-10.3 3.5 2.4-0.9 13.3-0.9 13.3 0 0 5.6 3.8 6.2 5.3 0.6 1.4 8.2 6.1 10.3 6.7 2 0.6 8.5 5.6 10 8.2 1.5 2.7 3.5 10.9 4.4 16.5 0.9 5.6 7.3 46.1 7.3 46.1l0.7 4.5c0.6 7.8 1.9 18.7 4.9 30.7 0 0 0.8 16.9 6.1 16.1 5.4-0.7 20.4-2.7 22.3 6.6 1.9 9.2-0.4 14.5-2.3 18-1.9 3.5 4.6 11.1 7.3 13.8 2.7 2.7 8.8 11.5 8.8 15.4 0 3.8 0.4 9.6 0.4 9.6l-5.8 7.7c0 0 1.2 11.1 0.8 16.1-0.4 5 0 5.7 1.5 11.1 0.8 2.6 0.9 5.4 0.8 7.9zm-67.8-218.5c0 0-4.2-4.2-5-5.3-0.8-1.2-2-2.3-2-2.3 0 0-7.8-0.6-9.8-1.2l-0.1 2.2c0 0 1.2 0.5 1.8 1.1 0.7 0.7 0.9 1.3 1.4 1.5 0.5 0.2 2 0.7 2.6 1.4 0.6 0.6 1.3 0.7 2 1.2 0.7 0.5 4.2 0.8 5.6 1 1.3 0.1 3.5 0.4 3.5 0.4z"/>
		<path id="Layer" class="s0" d="m1071.5 1060.1c-0.8-12.4-7.2-33.8-5.5-45.7 1.7-12 3.4-17.6 1.3-27.4-2.2-9.8-1.7-13.2-4.7-16.7-3-3.4-4.7-4.2-4.7-4.2 0 0-3.9 6.8-6 6.4-2.1-0.4-1.3-42.3-3-53.4-1.7-11.1-2.1-60.3-4.7-65.4-2.6-5.1-5.6-15.4-3.8-23.5 1.7-8.1 4.7-16.3 5.1-20.1 0.4-3.9 6.8-14.5 9-17.5 2.1-3 5.5-9.9 5.5-9.9 0 0-5.5-3.8-9-0.4l6.9-13.7c0 0-1.7-5.1-9.4-1.2-7.7 3.8-8.6 8.9-10.7 14.1-2.1 5.1-11.1 20.9-12.8 23.9-1.7 3-4.3 2.6-7.3 8.1-3 5.6-6 13.3-6 13.3 0 0-5.1-15.4-11.9-13.7-6.9 1.7-5.2 2.5-2.2 7.7 3 5.1 7.3 14.5 8.1 18.4 0.9 3.8 3.9 10.2 6.9 14.1 3 3.8 6.8 2.9 7.7 10.6 0.8 7.7-0.5 47.5-0.9 62-0.4 14.5-3 39.7-4.3 46.6-1.2 6.8-1.7 17.1-3 19.6-1.2 2.6-6.8 8.2-8.5 14.6-1.7 6.4-9.8 17.1-9 31.6 0.9 14.5 2.2 12.8 2.2 12.8 0 0-5.6 9.8-4.3 16.2 1.3 6.5 3 6 2.1 8.2-0.8 2.1-6.8 7.2-8.5 11.5q-0.1 0.1-0.1 0.2-0.2 7.1-0.5 14.2c1.9 3.5 4.1 7.3 3.6 8.7-0.8 1.8-3.4 0.2-4.1 0.5q-0.4 5.6-0.8 11.2h103.9c-7.8-23.4-16-53.3-16.6-61.7z"/>
		<path id="Layer" class="s0" d="m1197.4 1118.5c-2.2-0.9-6-2.6-6-6 0-3.4-1.3-12.4-2.6-13.7-1.3-1.3-2.1-4.3-3.8-6.8-1.7-2.6-5.6-9.9-8.1-13.7-2.6-3.8-10.7-11.5-10.7-11.5l-2.6-3.5c0 0-9.4-31.2-12.4-49.1-3-17.9-4.3-44.4-4.3-46.6 0-2.1 3.5 0 3-3.4-0.4-3.4-2.5-3.8-1.7-6.8 0.9-3 3-9.4 5.2-11.6 2.1-2.1 6.8-11.1 8.5-13.6 1.7-2.6 4.3-18.4 6.8-21.8 2.6-3.5 7.3-6 7.3-7.3 0-1.3-4.3-4.3-8.5-1.3-4.3 3-10.7 10.7-10.7 10.7 0 0-4.3-29.9-10.7-29.9-6.5 0-2.1 10.2-0.4 14.5 1.7 4.3 1.7 13.7 1.7 13.7l-0.5 2.5-2.5-2.5c0 0-2.2-12.8-5.6-12.8-3.4 0-7.2 1.2-8.1 5.1 0 0-6.4-0.9-7.7 3.4-1.3 4.3-1.3 4.3-1.3 4.3 0 0-4.7 0-6.4 2.5-1.7 2.6-3 9-2.1 10.7 0.8 1.7 0.4 12 0.8 16.3 0.5 4.2 1.3 12.4 1.3 12.4l2.2 4.2c0 0-4.3 0.9-3 4.3 1.2 3.4 3.8 2.6 3.8 2.6 0 0 1.7 8.1 1.3 12.4-0.4 4.2-3.9 43.1-3 50.8 0.9 7.7 0.4 35.1 2.1 41 0 0-27.7 27-26.9 31.7 0.7 3.8 2.9 14.6 5.3 22.1h102.2c-0.6-1.7-1.2-3.1-1.9-3.3z"/>
		<path id="Layer" class="s0" d="m660.9 1121.4c-9.1-4.7-10.1-15.8-12.8-20.1-2.6-4.4-12.7-39.2-14-43.6-1.4-4.3 0-13.7 0-20.1 0-6.3-2.7-11.4-2.4-18 0.4-6.7 3.4-33.2 3.4-33.2 0 0-6.4-1.3-9.1-2.3 0 0 1.1-11.1 3.4-13.8 2.3-2.7 11.7-12 13.1-15 1.3-3.1 4.3-17.1 4.3-19.1 0-2 1-4.7 1-4.7 0 0 13.1-2.4 14.4-2.7 0 0 3-5.7-8.4-3.7l-5-2.3c0 0 16.8-1 20.4-1.7 3.7-0.7 4.7-4.7 0-5-4.6-0.4-14.7 0.3-14.7 0.3 0 0-1.3-4.7-4.3-4.3-3.1 0.3-8.1 3.6-11.4 3.6-3.4 0-9.4 0-9.4 0 0 0 24.1-26.4 24.4-31.8 0 0-1.6-6.3-7.7 1-6 7.4-9.3 10.8-9.3 10.8 0 0 5-18.5 1.6-17.8-3.3 0.7-12.7 23.1-14.7 27.1-2 4-6 8.7-8 9.4-2 0.7-5.7 1.3-6.7 5.4-1 4-1.4 6-1.7 10-0.3 4-0.7 15.1-2 20.8-1.4 5.7-1.4 11-3.7 16-2.3 5.1-5.4 9.4-5 11.4 0.3 2-3-0.6-3-0.6 0 0-1.7 14.4-2 17-0.4 2.7-3.7 12.8-2.4 21.5 1.4 8.7-3 18.1-3 25.8 0 7.7 4.7 43.1 4.4 54.5-0.3 7.8-1.8 17.5-3.1 25.6h74.2q-0.4-0.2-0.8-0.4z"/>
		<path id="Layer" class="s0" d="m319.6 900.8c1.4-0.2 2.2-0.9 2.8-1.1 0.7-0.2 1.8-0.8 2.1-0.9 0.2 0-0.2-0.6-1.2-0.8-1-0.3-11 0.2-11 0.2 0 0 2.9 2.4 3.9 3 0.9 0.6 2-0.2 3.4-0.4z"/>
		<path id="Layer" class="s0" d="m326.4 891.2c0.7 0.2 2.2 1.2 2.5 1.4 0.2 0.2 1.5 0.5 1.8 0.2 0.3-0.3 1.5-1.8 1.7-1.9 0.3 0-0.5-0.8-1.7-1-1.3-0.2-11.4-0.3-11.4-0.3 0.6 0.4 1.6 1.1 2.3 1.1 0.7 0 4 0.2 4.8 0.5z"/>
		<path id="Layer" fill-rule="evenodd" class="s0" d="m318.8 1120.8h-87.7c-2.3-13.7-4.9-26.9-4.9-26.9-1.3-11.6 1.1-12.8 5.3-22 4.1-9.3 6.3-12.6 7.9-23.5 1.6-10.8 4.1-21.7 6.6-26.1 2.5-4.4 3.9-8.9 3.8-12.2-0.2-3.2-0.3-8.2 2.9-13.9 3.2-5.7 5.6-14.2 5.7-17.2 0.2-2.9 1.9-2.7 1.9-3.8 0-1 4-15.2 4.9-18.2 0.9-2.9 2.5-4.5 2.5-4.5 0 0 0 0 0.7-3.8 0.7-3.8-0.6-6 1.8-9.7 2.3-3.7 6-8.8 8-14.4 2.1-5.5 6-29.4 6.6-33 0.6-3.5 1.5-8 2.7-9.6 1.1-1.7 5.5-2.8 8-4 2.5-1.2 6.3-11.3 7.8-13.9 1.5-2.7 2.9-4.4 4.7-4.7 1.8-0.3 8.2-2.5 10.4-3.5 2.2-1.1 4.3-1.5 6.8-1.4 2.5 0.2 7.3 0 7.3 0 0 0 1.1 0.9 1.2 1.9 0.1 1.1-1.5 3.7-4.1 4.5-2.6 0.8-9.1 1.3-9.6 1.5-0.6 0.2-0.7 1.3-2.7 2.2-2.1 0.9-3.5 2.5-3.5 2.5 0 0 1 0.6 2.6 0.2 1.5-0.4 2.5-0.5 3.5-0.5 1 0 2.5-0.6 3.5-0.7 1-0.1 3.3-0.9 5-1.4 1.7-0.5 5.8-1.3 7-1.3 1.2 0 4-0.5 6.8-1.8 2.9-1.3 3.4 1.7 3.2 3.7-0.2 2.1-1.7 2.9-7.1 5.1-5.5 2.3-8.7 3.6-12.5 3.8-3.8 0.1-8.4 3.6-9.2 4.6-0.7 1-0.1 1 0.9 1.4 0.9 0.4 2.9 1.3 4.3 1.5 1.4 0.2 9.8 1.3 12.2 1.9 2.4 0.7 7.5 0.5 7.5 0.5 8.6-5.3 10.8 2.7 9.4 5.1-1.4 2.3-5.2 5.2-9.9 7.1-4.7 1.8-5.6 6.6-8.4 8.4-2.9 1.9-1.5 3.8-3.8 9-2.4 5.2-9.9 13.7-13.2 15.1-3.3 1.4-6.6 7.5-12.3 9.9-5.6 2.3-5.2 18.4-5.2 18.4 0 0 3.3 6.1 1.5 8.5-1.9 2.3-1.5 12.7-1.5 12.7 0 0-0.9 11.8-0.9 13.2 0 1.4 2.4 7.5 1.9 10.8-0.5 3.3 4.2 20.8 4.2 22.6 0 1.9 3.3 13.7 5.2 25 1.9 11.3 2.8 47.2 4.3 50.9 1.4 3.8 3.7 18 3.7 18q1.2 0.8 2.3 2zm0.5-231.2c0.6 0.4 1.6 1.1 2.3 1.1 0.7 0 4 0.2 4.8 0.5 0.7 0.2 2.2 1.2 2.5 1.4 0.2 0.2 1.5 0.5 1.8 0.2 0.3-0.3 1.5-1.8 1.7-1.9 0.3 0-0.5-0.8-1.7-1-1.3-0.2-11.4-0.3-11.4-0.3zm-7 8.6c0 0 2.9 2.4 3.9 3 0.9 0.6 2-0.2 3.4-0.4 1.4-0.2 2.2-0.9 2.8-1.1 0.7-0.2 1.8-0.8 2.1-0.9 0.2 0-0.2-0.6-1.2-0.8-1-0.3-11 0.2-11 0.2z"/>
		<path id="Layer" class="s0" d="m533.9 1083.2c-2.5-3.3-2.2-6.8-0.2-10.2-1.6-1.2-2.6-2.2-2.6-2.7 0-2-2.3-18.1-3.1-21.2q-1.2-4.7-1.2-4.7c0 0 18.2-44.7 26.7-58.9 8.4-14.3 18.1-18.2 22.3-18.9 4.3-0.8 10.8-7.4 13.9-13.1 3.1-5.8 6.6-9.7 6.2-12-0.4-2.3 0.7-13.5 1.1-15 0.4-1.6-3.4-5.1-8.8 5.4-5.4 10.4-5.1 12.7-5.1 12.7 0 0-8.1-1.2-9.6-1.2-1.5 0-2.7-4.6-1.5-8.5 1.1-3.8 0.7-9.6 3.4-13.5 2.7-3.8 7.4-12.7 10.4-15 3.1-2.3 8.1-5.4 8.5-6.5 0.4-1.2 3.9-3.9-0.7-5.4-4.7-1.6-12.4 5.7-18.6 10-6.1 4.2-8.8 7.3-8.8 7.3 0 0-3.9-3.8 7.3-10.8 11.2-6.9 16.2-11.2 10.4-15 0 0-10.8 3.8-15 8.1 0 0-6.2 0.4-9.3 1.5-3.1 1.2-9.2 4.6-10.4 5.4-1.1 0.8-7.7 15.8-9.6 18.9-2 3.1-0.8 6.6 0 8.9 0.7 2.3 6.1 11.9 3.8 15.4-2.3 3.5-4.6 4.2-6.5 8.5-2 4.2-14.3 17.3-17 20.4-2.7 3.1-13.9 14.3-13.9 14.3 0 0-0.4-4.3-1.9-5-1.5-0.8 0-13.5-5-17.8-5-4.2-20.4-13.5-35.5-11.9-15 1.5-42 1.5-46.3 1.5-4.2 0-13.8-0.7-13.8-0.7 0 0-17 26.9-16.2 32.3 0.7 5.4-0.4 9.7-0.8 13.9-0.4 4.3 1.2 16.6 1.5 19.7 0.4 3.1 2.4 19.6 2 25.8-0.4 6.2 1.5 24.7 3.1 30.9 1.5 6.1 4.6 10.4 8.1 14.6 3.4 4.3 5.4 7.3 9.2 12.7 3.9 5.4 6.9 9.3 6.2 12-0.4 1.2-0.8 3.5-0.9 6.4h127.7c3-12 1.1-25.1-9.5-38.6z"/>
		<path id="Layer" class="s0" d="m793.3 1120.6c-2.6-5.9-3.4-7.2-4.1-6.4-0.8 0.8-15.1-25-32.2-44.4-17-19.4-28.5-38.3-31.8-47.9-3.4-9.7-3.4-22-9-30.9-5.6-8.9-15-27.3-16-26.8 0 0-5.9-16.1-9.2-15.8 0 0 1.3-4.1-4.6-1.8-5.9 2.3 0.2 25 2.8 34.2 0 0-5.9-12.8-8.7-20.4 0 0-9.4-5.6-3 18.3 6.3 24 7.4 25.6 7.1 26.8-0.3 1.3 0.3 9 0.3 9l-2.9 0.2c0 0-4.8-11.5-10.2-17.1-5.3-5.6-13.5-6.6-11.4-0.5 2 6.1 3.3-2 6.9 13.3 3.5 15.3 4.8 11.7 6.3 16.3 1.6 4.6 9.5 10 13.3 12.8 3.8 2.8 12.5 5.1 19.1 13.2 6.7 8.2 14.1 20.2 18.1 28.1 4.1 7.9 15.3 25.5 19.4 39.3q0.3 0.9 0.5 1.7h49.9q-0.4-0.7-0.6-1.2z"/>
		<path id="Layer" class="s0" d="m976.4 1098.1c-4-6.6-7.5-14.4-7.8-16.6-0.3-2.2-5-41.2-6-57.2-0.9-16-0.9-53.4 1-58.2 1.8-4.7 6.6-10 7.5-15.4 0.9-5.3 0-9.4 3.5-15 3.4-5.7 8.8-12.3 11.3-16.7 2.5-4.4 3.7-9.1 4-10.4 0.4-1.2-3.7-5-10.9 2.9-7.3 7.8-8.2 14.1-14.2 14.7-6 0.7-10 1.9-11.6 0-1.6-1.8-8.2-8.4-8.2-9.4 0-0.9 5.7-12.9 4.7-15.4-0.9-2.5-4.4-4.1-4.7-0.9-0.3 3.1-2.2 5.3-3.1 6.9-1 1.6-1 1.6-1 1.6 0 0-6.9-6-6.9-8.8 0-2.9 1.9-15.8-0.9-19.2-2.9-3.5-4.4-2.2-4.4-2.2l-1 6.3c0 0-1.5-15.4-9.7-12.6-1 0.3 1.6 7.9 1.6 7.9 0 0-3.2 0.3-2.6 2.2 0.7 1.8 2.2 6.2 2.2 10.3 0 4.1 1.9 6.6 2.6 12.3 0.6 5.6 4 9.7 4.7 14.1 0.6 4.4 0.9 10.7 2.2 13.9 1.2 3.1 5.6 13.1 5.3 16-0.3 2.8 1.9 9.4 2.2 13.8 0.3 4.4 0.3 7.2-0.3 10.7-0.6 3.4 0 8.8 0 13.8 0 5-1.9 31.8-2.5 44.6-0.6 12.9-3.5 28.6-3.5 28.6 0 0-7.2 24.5-8.5 30.8-1.2 6.3-0.6 13.2 1.9 19.8 0.6 1.5 1.9 5.3 3.7 10.5h58.6c-3.5-10.3-7.2-20.4-9.2-23.7z"/>
		<path id="Layer" class="s0" d="m1305.2 1108.3c0.8-5.9 1.3-7.5 1.3-7.5 0 0 5.5 0.8 6.7-0.6 1.3-1.5 0-1.9-0.6-3-0.6-1.1-4.4-3.6-3.8-5.5 0.6-1.9 1.9-19-0.9-25.6-2.9-6.6-2.9-7.9-7.1-13.1-4.2-5.2-6.4-10.7-7.2-11.9-0.8-1.3-2.5-3-3.5-5.2-0.9-2.2-2-3.8-3.4-7.1-1.5-3.3-0.8-4.5-2.7-7.5-1.9-3-2.8-4.6-4.7-5.8-1.9-1.3-10.2-4.7-10.2-4.7 0 0 4.8-39 6.1-41.1 1.2-2 14-27.8 14.4-28.9 0.5-1.1-9.2-7.8-9.5-8.9-0.4-1.1 4.7-20.6 6.6-24.1 1.8-3.4 12.5-18.3 14.4-33.1 1.9-14.8 1.9-20.6 2.4-21.4 0.4-0.8 5.6-11.6 7.2-12.6 1.6-0.9 7.5-4.2 8.3-5 0.8-0.8 2.9-3.4 1.3-4.4-1.6-0.9-7.1-0.5-11 1.3-3.9 1.7-10.1 3.9-11.2 4.7-1.1 0.8-2.8-1-1.1-4.3 1.8-3.3 15.3-22.3 16.5-24 1.3-1.7 3.5-4.6 0.5-7.2-3-2.7-7.9 5.9-9.6 6.9-1.7 0.9-4.5 5-5.8 6.4-1.3 1.4-9.3 9.1-10.5 10.7-1.3 1.6-2.5 3.2-2.5 3.2 0 0 0.7-10.6 2.3-13.1 1.6-2.5 11.2-20.9 11.6-23.7 0.5-2.8-0.1-4.6-3.4-4.3-3.3 0.4-5.7 5.2-7.6 8.2-1.8 3-8.9 14-10.6 15.9-1.8 1.9-3.2 3.1-3.5 5.3-0.3 2.2-0.9 5.2-0.9 4.7 0-0.4-1.9-4.8-1.6-7.2 0.3-2.3 1.4-9.6 1.9-11.5 0.4-1.8 2.8-8.1 2.8-9.7 0-1.6 2.3-7.6-4.8-6.2-3.4 0.6-3.6 6.8-5.9 10.8-2.2 4.1-2.4 9.4-3.7 12.7-1.3 3.2-2.6 6.1-1.6 9.7 1 3.6 2.4 8.3 2.9 12.7 0.5 4.3 0.8 12.9 0.8 16.7 0 3.7 0.5 14.7-0.3 24.1-0.8 9.4-0.8 14.8-2.1 16.7-1.3 2-4.4 6.8-6.8 14.1-2.5 7.3-5 15.3-5 15.3 0 0-4.1 1.3-5.1 5.7-0.9 4.3-12.8 28.5-14.7 32.1-2 3.5-5.5 12.6-6.8 14.7-1.3 2.1-4.7 10.1-5.1 11.7-0.3 1.6-9.7 15.4-12.6 18.5-2.9 3.1-13.5 11.5-13 11.3 0.5-0.1 2.3 3.8 2.6 6.5 0.3 2.8-0.8 5.5 0.2 8.6 0.9 3.1 1.3 5.1 1.3 5.1 0 0-4.1 9-5.6 24.6-1.4 15.6-2.1 20.9-2.1 22.9 0 1.9-0.1 5.2-0.1 5.2 0 0-5.2 5.5-7.8 10.8 0 0-14.6 11.1-25.2 23.9h150.2c-0.8-4.6-1.5-10.3-1.1-13.5z"/>
		<path id="Layer" class="s0" d="m1694.4 1101.1c-1.7-8.1-7.7-30.5-11.4-40.6-3.7-10-27.5-46.2-30.5-54.6-3-8.4-14.7-29.8-14.7-31.8 0-2-2-1-1.7-2 0.4-1-5-5.1-4.3-13.8 0.6-8.7 7-27.8 7-31.8 0-4-2.3-5.4-2.7-8.4-0.3-3 0-8.7-0.3-12.7-0.4-4-1.7-6.4-3.4-9.7-1.6-3.4-7.3-15.4-7.7-18.4-0.3-3.1-5.3-3.7-8.7 1.3l0.3 4.7c0 0-2.6 2.7 0 5.7l0.4 11c0 0-3-10.3-7.4-9-4.3 1.3-4 8.7-2.7 16.1 1.4 7.3 1.4 11.4 0.4 14.4-1 3-3 6.7-3.7 8.4-0.7 1.6-1 4.3-2 5.3-1 1-9.7 4.4-11.4 5-1.7 0.7-7.4 0-7.4 0 0 0-15.4-13.4-23.8-13.4-8.4 0-9.4 3.7-9.4 3.7 0 0 6.7 5.1 9.1 9.4 2.3 4.4 6 4.7 8.4 7 2.3 2.4 7 6.7 8 9.1 1 2.3 8.4 9.4 13.4 10.7 5 1.4 11.7 8.4 12.1 11.4 0.3 3 1.6 5.4 1.6 5.4l-1.6 2.3c0 0 4 5.4 5.7 8.4 1.6 3 3.3 17.1 4.3 19.4 1 2.4 2.7 6.7 2.4 8.4-0.4 1.7 1.6 8 1.6 9.7 0 1.7 0.7 9.4 0.4 16.8-0.4 7.3-0.4 16.4 0 18.7 0.3 2.4-4.4 3.4-1.7 9.4 2.7 6 4.7 6.7 4.4 11.7-0.4 5.1-5.7 9.1-4.1 11.8 1.7 2.6 4.4 6.7 5.4 10.3 1 3.7 0.3 9.8-0.7 11.4h78.8c-0.5-6.7-1.4-15.8-2.4-20.7z"/>
		<path id="Layer" class="s1" d="m882.1 874.1c0.9-1.3 2.2-2.5 2.2-2.5 0 0 8.7-0.7 10.9-1.4l0.1 2.5c0 0-1.3 0.5-2 1.2-0.7 0.7-1 1.4-1.5 1.7-0.6 0.2-2.3 0.8-2.9 1.5-0.7 0.7-1.4 0.8-2.2 1.3-0.8 0.6-4.7 0.9-6.2 1.1-1.5 0.2-3.9 0.5-3.9 0.5 0 0 4.7-4.7 5.5-5.9z"/>
		<path id="Layer" fill-rule="evenodd" class="s1" d="m802.4 1113.1c1.7-6 2.1-6.8 1.7-12.4-0.4-5.5 0.8-17.8 0.8-17.8l-6.3-8.5c0 0 0.4-6.4 0.4-10.6 0-4.3 6.8-14 9.8-17 2.9-3 10.2-11.5 8-15.3-2.1-3.8-4.6-9.8-2.5-20 2.1-10.2 18.7-8.1 24.6-7.2 6 0.8 6.8-17.9 6.8-17.9 3.3-13.2 4.8-25.3 5.4-33.9l0.8-5c0 0 7.1-44.8 8.1-51 1-6.2 3.2-15.3 4.9-18.2 1.6-3 8.8-8.5 11-9.1 2.3-0.7 10.8-5.9 11.4-7.5 0.7-1.7 6.8-5.9 6.8-5.9 0 0-4.8-12-0.9-14.6 2.7-1.9 6.8 4.2 9.4 11.4 2.6 7.1 2.9 12 2.6 14.9-0.3 3 0.7 8.8-0.3 14.3-1 5.6-1.3 10.1-3.9 12.1-2.6 1.9-11.1 8.8-14 11.4-2.9 2.6-4.9 6.1-4.9 6.1 0 0-1.9 27.7-3.9 44-1.9 16.2-3.9 47.1-6.8 57.5-3 10.4-3.6 12.7-3.6 15 0 2.3 3.9 4.6 5.2 7.5 1.3 2.9 46.2 70.2 52.7 86.2q0.1 0.1 0.1 0.2h-124.3c-0.1-2.8 0.1-5.8 0.9-8.7zm78.1-233.6c1.5-0.2 5.4-0.5 6.2-1.1 0.8-0.5 1.5-0.6 2.2-1.3 0.6-0.7 2.3-1.3 2.9-1.5 0.5-0.3 0.8-1 1.5-1.7 0.7-0.7 2-1.2 2-1.2l-0.1-2.5c-2.2 0.7-10.9 1.4-10.9 1.4 0 0-1.3 1.2-2.2 2.5-0.8 1.2-5.5 5.9-5.5 5.9 0 0 2.4-0.3 3.9-0.5z"/>
		<path id="Layer" class="s1" d="m82.6 1053.5c1-13.7 8.1-37.4 6.2-50.6-1.9-13.3-3.8-19.4-1.4-30.3 2.3-10.9 1.9-14.6 5.2-18.4 3.3-3.8 5.2-4.8 5.2-4.8 0 0 4.2 7.6 6.6 7.1 2.4-0.4 1.4-46.8 3.3-59.1 1.9-12.3 2.4-66.7 5.2-72.3 2.8-5.7 6.1-17.1 4.3-26.1-1.9-8.9-5.2-17.9-5.7-22.2-0.5-4.2-7.6-16.1-9.9-19.4-2.4-3.3-6.2-10.8-6.2-10.8 0 0 6.2-4.3 9.9-0.5l-7.5-15.2c0 0 1.9-5.6 10.4-1.4 8.5 4.3 9.4 10 11.8 15.6 2.4 5.7 12.3 23.2 14.2 26.5 1.9 3.3 4.7 2.9 8 9 3.3 6.2 6.6 14.7 6.6 14.7 0 0 5.7-17.1 13.3-15.2 7.6 1.9 5.7 2.9 2.4 8.5-3.4 5.7-8.1 16.1-9 20.4-1 4.2-4.3 11.3-7.6 15.6-3.3 4.2-7.6 3.3-8.5 11.8-1 8.5 0.5 52.5 0.9 68.6 0.5 16.1 3.3 44 4.8 51.5 1.4 7.6 1.9 19 3.3 21.8 1.4 2.8 7.5 9 9.4 16.1 1.9 7.1 10.9 18.9 10 35-1 16.1-2.4 14.2-2.4 14.2 0 0 6.1 10.8 4.7 17.9-1.4 7.1-3.3 6.7-2.3 9 0.9 2.4 7.5 8.1 9.4 12.8q0.1 0.1 0.1 0.2 0.2 7.9 0.6 15.8c-2.2 3.7-4.6 8-4 9.5 0.8 2.1 3.8 0.2 4.6 0.6q0.3 6.2 0.8 12.4h-115c8.7-25.9 17.7-59 18.3-68.3z"/>
		<path id="Layer" class="s1" d="m536.2 1118.1c2.3-0.9 6.6-2.8 6.6-6.6 0-3.8 1.4-13.7 2.8-15.1 1.5-1.5 2.4-4.8 4.3-7.6 1.9-2.9 6.1-10.9 9-15.1 2.8-4.3 11.8-12.8 11.8-12.8l2.8-3.8c0 0 10.4-34.5 13.8-54.4 3.3-19.9 4.7-49.2 4.7-51.5 0-2.4-3.8 0-3.3-3.8 0.4-3.8 2.8-4.3 1.9-7.6-1-3.3-3.3-10.4-5.7-12.8-2.4-2.3-7.6-12.3-9.5-15.1-1.9-2.8-4.7-20.3-7.5-24.1-2.9-3.8-8.1-6.6-8.1-8.1 0-1.4 4.8-4.7 9.5-1.4 4.7 3.3 11.8 11.9 11.8 11.9 0 0 4.7-33.2 11.8-33.2 7.3 0 2.4 11.4 0.5 16.1-1.9 4.8-1.9 15.2-1.9 15.2l0.5 2.8 2.8-2.8c0 0 2.4-14.2 6.2-14.2 3.8 0 8 1.4 9 5.6 0 0 7-0.9 8.5 3.8 1.4 4.8 1.4 4.8 1.4 4.8 0 0 5.2 0 7.1 2.8 1.9 2.8 3.3 9.9 2.3 11.8-0.9 1.9-0.4 13.3-0.9 18-0.5 4.7-1.4 13.7-1.4 13.7l-2.4 4.7c0 0 4.7 1 3.3 4.8-1.4 3.8-4.2 2.8-4.2 2.8 0 0-1.9 9-1.4 13.7 0.4 4.7 4.2 47.8 3.3 56.3-1 8.5-0.5 38.8-2.4 45.4 0 0 30.7 29.8 29.8 35-0.8 4.3-3.2 16.2-5.8 24.5h-113.1c0.6-1.9 1.3-3.4 2.1-3.7z"/>
		<path id="Layer" class="s1" d="m1346.2 1121.3c10-5.2 11.1-17.4 14.1-22.2 3-4.9 14.1-43.4 15.6-48.2 1.4-4.8 0-15.2 0-22.3 0-7 2.9-12.6 2.6-20-0.4-7.4-3.8-36.7-3.8-36.7 0 0 7.1-1.4 10.1-2.6 0 0-1.2-12.2-3.8-15.1-2.5-3-12.9-13.4-14.4-16.7-1.5-3.4-4.8-18.9-4.8-21.1 0-2.3-1.1-5.2-1.1-5.2 0 0-14.5-2.6-16-3 0 0-3.3-6.3 9.3-4.1l5.5-2.6c0 0-18.5-1.1-22.6-1.8-4-0.8-5.1-5.2 0-5.6 5.2-0.4 16.3 0.4 16.3 0.4 0 0 1.5-5.2 4.9-4.8 3.3 0.3 8.9 4 12.6 4 3.7 0 10.3 0 10.3 0 0 0-26.6-29.2-27-35.2 0 0 1.8-7 8.5 1.2 6.7 8.1 10.4 11.8 10.4 11.8 0 0-5.6-20.4-1.9-19.6 3.7 0.7 14.1 25.5 16.3 30 2.3 4.4 6.7 9.6 8.9 10.4 2.3 0.7 6.3 1.4 7.5 5.9 1.1 4.4 1.4 6.7 1.8 11.1 0.4 4.5 0.7 16.7 2.2 23 1.5 6.3 1.5 12.2 4.1 17.8 2.6 5.5 5.9 10.4 5.6 12.6-0.4 2.2 3.3-0.8 3.3-0.8 0 0 1.9 16 2.2 18.9 0.4 3 4.1 14.1 2.6 23.8-1.5 9.6 3.4 20 3.4 28.5 0 8.5-5.2 47.8-4.9 60.4 0.3 8.6 1.9 19.4 3.4 28.3h-82.1q0.5-0.3 0.9-0.5z"/>
		<path id="Layer" class="s1" d="m1437.7 878.4c-1.5-0.2-2.3-0.9-3.1-1.2-0.7-0.2-2-0.9-2.2-0.9-0.3-0.1 0.1-0.8 1.3-1 1.1-0.3 12.1 0.2 12.1 0.2 0 0-3.2 2.7-4.3 3.3-1 0.7-2.2-0.1-3.8-0.4z"/>
		<path id="Layer" class="s1" d="m1430.3 867.8c-0.8 0.2-2.5 1.3-2.8 1.6-0.2 0.2-1.7 0.5-2 0.1-0.3-0.3-1.7-1.9-2-2-0.2-0.1 0.6-0.9 2-1.1 1.4-0.3 12.5-0.4 12.5-0.4-0.6 0.5-1.7 1.2-2.5 1.2-0.8 0-4.4 0.3-5.2 0.6z"/>
		<path id="Layer" fill-rule="evenodd" class="s1" d="m1441.2 1119.6c0 0 2.6-15.6 4.1-19.8 1.6-4.2 2.6-43.8 4.7-56.3 2.1-12.6 5.8-25.6 5.8-27.7 0-2.1 5.2-21.4 4.7-25-0.6-3.7 2-10.5 2-12 0-1.6-1-14.6-1-14.6 0 0 0.5-11.5-1.6-14.1-2-2.6 1.6-9.4 1.6-9.4 0 0 0.5-17.7-5.7-20.4-6.3-2.6-9.9-9.3-13.6-10.9-3.6-1.6-12-11-14.6-16.7-2.6-5.7-1-7.8-4.2-9.9-3.1-2.1-4.2-7.3-9.4-9.4-5.2-2.1-9.4-5.2-10.9-7.8-1.6-2.6 0.9-11.5 10.4-5.7 0 0 5.7 0.2 8.3-0.5 2.7-0.7 11.9-2 13.5-2.2 1.5-0.2 3.8-1.2 4.8-1.6 1-0.4 1.8-0.4 0.9-1.5-0.8-1.2-5.9-5-10.1-5.2-4.2-0.2-7.7-1.6-13.8-4.1-6-2.4-7.7-3.4-7.9-5.6-0.2-2.3 0.3-5.6 3.5-4.1 3.2 1.4 6.3 1.9 7.6 1.9 1.3 0 5.8 0.9 7.7 1.5 1.8 0.5 4.4 1.4 5.5 1.5 1.2 0.1 2.8 0.8 3.9 0.8 1.2 0 2.2 0.1 3.9 0.5 1.8 0.4 2.9-0.2 2.9-0.2 0 0-1.6-1.7-3.9-2.7-2.2-1.1-2.3-2.3-3-2.5-0.6-0.2-7.8-0.7-10.6-1.7-2.9-0.9-4.7-3.8-4.6-4.9 0.1-1.1 1.4-2.1 1.4-2.1 0 0 5.3 0.2 8.1 0 2.8-0.2 5 0.3 7.5 1.5 2.4 1.1 9.5 3.5 11.5 3.9 1.9 0.3 3.6 2.2 5.2 5.2 1.6 2.9 5.8 14.1 8.6 15.4 2.7 1.3 7.6 2.6 8.9 4.4 1.3 1.7 2.3 6.8 2.9 10.7 0.7 3.9 5.1 30.3 7.3 36.5 2.3 6.2 6.4 11.8 9 15.9 2.6 4 1.1 6.5 1.9 10.7 0.8 4.2 0.8 4.2 0.8 4.2 0 0 1.8 1.8 2.8 5.1 1 3.2 5.3 18.9 5.3 20.1 0 1.1 2 1 2.1 4.2 0.2 3.2 2.8 12.7 6.4 19 3.5 6.3 3.4 11.8 3.2 15.4-0.1 3.6 1.5 8.6 4.2 13.5 2.8 4.8 5.6 16.9 7.3 28.9 1.8 12 4.3 15.7 8.8 25.9 4.6 10.3 7.3 11.6 5.9 24.4 0 0-2.9 14.6-5.5 29.7h-97q1.2-1.3 2.5-2.2zm-15.7-253.2c-1.4 0.2-2.2 1-2 1.1 0.3 0.1 1.7 1.7 2 2 0.3 0.4 1.8 0.1 2-0.1 0.3-0.3 2-1.4 2.8-1.6 0.8-0.3 4.4-0.6 5.2-0.6 0.8 0 1.9-0.7 2.5-1.2 0 0-11.1 0.1-12.5 0.4zm8.2 8.9c-1.2 0.2-1.6 0.9-1.3 1 0.2 0 1.5 0.7 2.2 0.9 0.8 0.3 1.6 1 3.1 1.2 1.6 0.3 2.8 1.1 3.8 0.4 1.1-0.6 4.3-3.3 4.3-3.3 0 0-11-0.5-12.1-0.2z"/>
		<path id="Layer" class="s1" d="m1208 1079.1c2.8-3.7 2.4-7.5 0.2-11.3 1.8-1.3 2.9-2.4 2.9-3 0-2.2 2.6-20.1 3.4-23.5q1.3-5.1 1.3-5.1c0 0-20-49.5-29.4-65.3-9.4-15.8-20.1-20.1-24.8-20.9-4.7-0.9-11.9-8.1-15.3-14.5-3.5-6.4-7.3-10.7-6.9-13.2 0.5-2.6-0.8-15-1.3-16.7-0.4-1.7 3.9-5.5 9.9 6 5.9 11.5 5.5 14.1 5.5 14.1 0 0 9-1.3 10.7-1.3 1.7 0 3-5.1 1.7-9.4-1.3-4.3-0.9-10.7-3.9-14.9-2.9-4.3-8.1-14.1-11.5-16.7-3.4-2.5-8.9-6-9.4-7.2-0.4-1.3-4.2-4.3 0.9-6 5.1-1.7 13.6 6.4 20.5 11.1 6.8 4.7 9.8 8.1 9.8 8.1 0 0 4.3-4.3-8.1-12-12.4-7.6-17.9-12.3-11.5-16.6 0 0 11.9 4.3 16.6 9 0 0 6.8 0.4 10.2 1.7 3.5 1.3 10.3 5.1 11.6 5.9 1.2 0.9 8.5 17.5 10.6 21 2.2 3.4 0.9 7.2 0 9.8-0.8 2.5-6.8 13.2-4.2 17 2.5 3.9 5.1 4.7 7.2 9.4 2.1 4.7 15.8 19.2 18.8 22.6 3 3.5 15.4 15.8 15.4 15.8 0 0 0.4-4.7 2.1-5.5 1.7-0.9 0-15 5.5-19.6 5.6-4.7 22.6-15 39.3-13.3 16.6 1.7 46.5 1.7 51.2 1.7 4.7 0 15.4-0.8 15.4-0.8 0 0 18.7 29.8 17.9 35.8-0.9 6 0.4 10.7 0.8 15.4 0.5 4.7-1.2 18.3-1.7 21.7-0.4 3.5-2.5 21.8-2.1 28.6 0.4 6.9-1.7 27.3-3.4 34.2-1.7 6.8-5.1 11.5-9 16.2-3.8 4.7-6 8.1-10.2 14.1-4.3 5.9-7.7 10.2-6.9 13.2 0.4 1.3 0.9 3.9 1 7.1h-141.3c-3.4-13.3-1.2-27.7 10.5-42.7z"/>
		<path id="Layer" class="s1" d="m1562.3 1120.4c2.8-6.5 3.7-7.9 4.5-7 0.9 0.8 16.7-27.7 35.6-49.1 18.9-21.5 31.6-42.4 35.3-53.1 3.7-10.7 3.7-24.3 9.9-34.2 6.2-9.9 16.6-30.2 17.8-29.6 0 0 6.5-17.8 10.1-17.5 0 0-1.4-4.5 5.1-2 6.5 2.5-0.3 27.7-3.1 37.8 0 0 6.5-14.1 9.6-22.5 0 0 10.4-6.3 3.4 20.3-7.1 26.5-8.2 28.2-7.9 29.6 0.3 1.4-0.3 9.9-0.3 9.9l3.1 0.3c0 0 5.4-12.7 11.3-18.9 5.9-6.2 15-7.4 12.7-0.6-2.3 6.8-3.7-2.3-7.6 14.7-4 16.9-5.4 13-7.1 18-1.7 5.1-10.4 11.1-14.7 14.2-4.2 3.1-13.8 5.6-21.1 14.6-7.4 9.1-15.6 22.3-20.1 31.1-4.5 8.7-16.9 28.2-21.4 43.5q-0.3 1-0.6 1.9h-55.2q0.5-0.8 0.7-1.4z"/>
		<path id="Layer" class="s1" d="m1009.7 1095.6c4.6-7.3 8.4-16 8.7-18.4 0.4-2.5 5.6-45.6 6.7-63.3 1-17.8 1-59.2-1.1-64.4-2.1-5.2-7.3-11.1-8.3-17-1.1-5.9 0-10.4-3.9-16.7-3.8-6.3-9.7-13.6-12.5-18.4-2.8-4.9-4.2-10.1-4.5-11.5-0.4-1.4 4.2-5.6 12.2 3.1 8 8.7 9 15.7 15.6 16.4 6.6 0.7 11.1 2 12.9 0 1.7-2.1 9-9.4 9-10.5 0-1-6.2-14.2-5.2-17 1.1-2.8 4.9-4.5 5.2-1.1 0.4 3.5 2.5 6 3.5 7.7 1.1 1.7 1.1 1.7 1.1 1.7 0 0 7.6-6.6 7.6-9.7 0-3.1-2.1-17.4 1-21.2 3.2-3.8 4.9-2.5 4.9-2.5l1.1 7c0 0 1.7-17 10.7-13.9 1.1 0.3-1.7 8.7-1.7 8.7 0 0 3.5 0.3 2.8 2.4-0.7 2.1-2.5 7-2.5 11.5 0 4.5-2 7.3-2.7 13.6-0.7 6.2-4.6 10.7-5.3 15.6-0.6 4.9-1 11.8-2.4 15.3-1.4 3.5-6.2 14.6-5.9 17.8 0.3 3.1-2.1 10.4-2.4 15.3-0.4 4.8-0.4 8 0.3 11.8 0.7 3.8 0 9.7 0 15.3 0 5.5 2.1 35.1 2.8 49.4 0.7 14.2 3.8 31.6 3.8 31.6 0 0 8 27.1 9.4 34.1 1.4 7 0.7 14.6-2.1 21.9-0.6 1.6-2.1 5.9-4 11.6h-64.9c3.9-11.4 7.9-22.6 10.1-26.2z"/>
		<path id="Layer" class="s1" d="m664.5 1106.9c-0.9-6.6-1.4-8.4-1.4-8.4 0 0-6.1 0.9-7.5-0.7-1.4-1.5 0-2 0.7-3.3 0.7-1.2 4.9-4 4.2-6-0.7-2.1-2.1-21.1 1-28.4 3.2-7.3 3.2-8.7 7.9-14.4 4.7-5.8 7.1-11.8 8-13.2 0.8-1.4 2.7-3.3 3.8-5.8 1-2.4 2.2-4.2 3.8-7.8 1.6-3.7 0.9-5 3-8.4 2.1-3.3 3.1-5 5.2-6.4 2.1-1.4 11.3-5.2 11.3-5.2 0 0-5.4-43.1-6.8-45.4-1.4-2.2-15.5-30.8-16-32-0.5-1.2 10.3-8.7 10.6-9.9 0.4-1.2-5.2-22.8-7.3-26.6-2.1-3.8-13.9-20.3-16-36.7-2.1-16.3-2.1-22.8-2.6-23.6-0.5-0.9-6.3-12.9-8-14-1.7-1-8.3-4.7-9.2-5.5-0.9-0.9-3.1-3.8-1.4-4.9 1.7-1 7.8-0.5 12.2 1.4 4.3 1.9 11.1 4.3 12.3 5.2 1.2 0.9 3.1-1 1.2-4.7-1.9-3.6-16.8-24.7-18.2-26.6-1.4-1.9-3.8-5-0.5-8 3.3-2.9 8.6 6.6 10.6 7.7 1.9 1 5 5.5 6.4 7.1 1.4 1.6 10.3 10.1 11.6 11.8 1.4 1.8 2.8 3.5 2.8 3.5 0 0-0.8-11.6-2.6-14.4-1.7-2.8-12.3-23.2-12.8-26.3-0.6-3.1 0.1-5 3.8-4.7 3.6 0.4 6.2 5.8 8.3 9.1 2.1 3.3 9.9 15.4 11.9 17.5 1.9 2.1 3.4 3.5 3.8 5.9 0.3 2.5 1 5.8 1 5.3 0-0.6 2.1-5.4 1.8-8-0.4-2.7-1.6-10.7-2.1-12.7-0.6-2.1-3.2-9.1-3.2-10.8 0-1.8-2.5-8.5 5.4-6.9 3.7 0.7 3.9 7.5 6.4 12 2.5 4.5 2.7 10.4 4.2 14 1.4 3.6 2.8 6.8 1.8 10.8-1.1 3.9-2.7 9.1-3.3 14-0.5 4.8-0.9 14.3-0.9 18.4 0 4.2-0.5 16.4 0.4 26.8 0.9 10.4 0.9 16.3 2.3 18.5 1.5 2.1 4.9 7.5 7.6 15.6 2.7 8.1 5.5 16.9 5.5 16.9 0 0 4.5 1.4 5.6 6.2 1.1 4.9 14.2 31.6 16.3 35.6 2.2 3.9 6.1 14 7.6 16.3 1.4 2.3 5.2 11.1 5.5 12.9 0.4 1.8 10.8 17.1 14 20.5 3.3 3.4 14.9 12.7 14.4 12.6-0.6-0.2-2.5 4.1-2.9 7.1-0.3 3.1 0.9 6.1-0.2 9.6-1 3.4-1.4 5.5-1.4 5.5 0 0 4.5 10.1 6.1 27.3 1.6 17.2 2.3 23.2 2.3 25.3 0 2.2 0.2 5.7 0.2 5.7 0 0 5.8 6.2 8.6 12.1 0 0 16.2 12.3 28 26.4h-166.3c0.9-5.2 1.6-11.4 1.2-14.9z"/>
		<path id="Layer" class="s1" d="m268.3 1098.8c1.9-8.9 8.6-33.7 12.6-44.8 4.1-11.1 30.4-51.2 33.8-60.5 3.3-9.2 16.3-33 16.3-35.2 0-2.2 2.2-1.1 1.8-2.2-0.3-1.1 5.6-5.6 4.9-15.2-0.8-9.7-7.8-30.8-7.8-35.2 0-4.5 2.6-6 2.9-9.3 0.4-3.3 0-9.7 0.4-14.1 0.4-4.4 1.9-7 3.7-10.8 1.9-3.7 8.2-17 8.6-20.3 0.3-3.4 5.9-4.1 9.6 1.4l-0.4 5.2c0 0 3 3 0 6.3l-0.3 12.3c0 0 3.3-11.5 8.1-10 4.8 1.4 4.5 9.6 3 17.8-1.5 8.1-1.5 12.6-0.4 15.9 1.1 3.3 3.3 7.4 4.1 9.3 0.7 1.8 1.1 4.8 2.2 5.9 1.1 1.1 10.8 4.8 12.6 5.6 1.9 0.7 8.2 0 8.2 0 0 0 17-14.9 26.3-14.9 9.3 0 10.4 4.1 10.4 4.1 0 0-7.4 5.6-10 10.4-2.6 4.8-6.7 5.2-9.3 7.8-2.6 2.6-7.8 7.4-8.9 10-1.1 2.6-9.3 10.4-14.8 11.9-5.6 1.4-13 9.2-13.4 12.6-0.3 3.3-1.8 5.9-1.8 5.9l1.8 2.6c0 0-4.4 5.9-6.3 9.3-1.8 3.3-3.7 18.9-4.8 21.5-1.1 2.6-3 7.4-2.6 9.2 0.4 1.9-1.9 8.9-1.9 10.8 0 1.8-0.7 10.4-0.3 18.5 0.3 8.2 0.3 18.2 0 20.8-0.4 2.6 4.8 3.7 1.8 10.4-2.9 6.7-5.2 7.4-4.8 13 0.4 5.5 6.3 10 4.5 12.9-1.9 3-4.9 7.5-6 11.5-1.1 4.1-0.3 10.8 0.8 12.6h-87.2c0.5-7.4 1.5-17.5 2.6-23z"/>
	</g>
	<g id="Layer">
		<filter id="f1">
			<feFlood flood-color="#80ffff" flood-opacity=".4" />
			<feBlend mode="normal" in2="SourceGraphic"/>
			<feComposite in2="SourceAlpha" operator="in" />
		</filter>
		<g id="Folder 1" style="opacity: .2" filter="url(#f1)">
			<path id="Layer" class="s2" d="m611.2 1119.9c-2.5-6.3-28.3-28.3-35.8-32.7-7.6-4.4-8.2-5-12.6-5.7-4.4-0.6-19.5-11.9-22-12.5-2.5-0.7-21.3-12-21.3-12 0 0-0.7-14.1-1.7-16.1-0.9-2-2.3-3.7-2.3-3.7 0 0 0.9-3.2 0.7-4-0.2-0.7 11.1-21.7 11.8-25.9 0 0 1.5 3.6 4.9 3.8 3.5 0.2 7.8-4.5 9.3-7.8 1.4-3.3 5.6-13.4 5.6-17.2 0-3.9-2.2-5.7-4.9-6.2-2.7-0.6-4.5 0.2-4.5 0.2 0 0 2.9-7.8 3.2-14.6 0.4-6.7 1.8-16.1 2.4-16.1 0.5 0 45.1-19.6 58.2-26 0.2 2.8 0.8 8.5 2.1 15.6 1.9 10.2 4.6 13.6 13.4 19.1 8.8 5.6 3.9 13 3.9 13 0 0 0 0-3.7 1.3-3.7 1.4-1.1 4.7-1.4 5.6-0.2 0.9-0.7 7.4-1.8 12-1.2 4.6 3.2 16.3 3.2 16.3-0.9-4.1-1.1-13.6-1.1-13.6 2.3 2.1 4.8 17.1 4.8 17.1 5.3-4.6-0.2-18-0.2-18 2.3 2.5 3.2 9.9 3.2 9.9 1.2-3-0.7-6.7-2.1-10.1-1.3-3.5 0-9.5 2.8-12.9 2.8-3.5-2.1-7.2-2.1-7.2 4.2-10.6-6-14.7-13.3-22.6-6.1-6.4-6.4-21-6.3-26.2 0.9-0.5 1.6-0.9 1.9-1.1 0 0-1.8-2.5-2.7-3.1-0.9-0.5-107.5-59.3-109.3-60.2-1.8-0.9-7.2 4.2-11.8 6-4.5 1.8-90.9 33.2-92.2 34.5-1.2 1.2-0.7 3.4 0.8 4.3 1.4 0.9 51 30.7 51 30.7 0 0-2.9 13.8-3.3 16.7-0.4 2.9-1.5 9.8-1.3 11.6 0.2 1.8 0.4 4 0.4 4 0 0-4-1.8-7.8 2.5-3.8 4.4-2.2 7.5-2.2 12.7 0 5.3-1.1 10-0.5 10.7 0.5 0.8 4.1 9.7 8.9 9.5 4.7-0.2 5.9-1.5 5.9-1.5 0 0 1.9 4.7 1.9 5.3 0 0.5-8.8 12.1-10.9 16.3-2.2 4.2-8 8.6-9.1 10-1.1 1.5-4.9 0-4.9 0 0 0-20-4.9-24.1-4.2 0 0-16.4-6.1-19.1-7-2.7-1-8.3-3.1-8.9-4.6-0.5-1.4-2.9-7.6-2.5-9.1 0.3-1.4 3.6-3.8 2.5-10.5-1.1-6.7-4.9-13.4-4.9-13.4 0 0-11.1-1.8-17.2-1.8-6.2 0-13.5 3.4-16-3.3-2.5-6.7-7.4-26.3-10.5-31.2-3.1-4.9-15.5-21.2-14.4-26.3 1.1-5.1 0.2-20.5 0-28.5 0 0 6.6 1.6 7.3-12.9 0.7-14.5-0.7-26 1.4-28 2.2-1.9 9.8-9.2 10.4-13 0.5-3.8 0.2-16.5 2-20.2 1.8-3.6 2.2-11.2 3.6-13.4 1.5-2.2 8.9-9.1 13.3-12.3 4.3-3.3 7.4-7.8 8.1-8.6 0.8-0.7 2.4-4.7 1.5-11.8-0.9-7 0.9-10.1 0.5-11-0.3-0.9-1.8-2.4-1.4-3.3 0.3-0.9 5.1-8.5 4.5-12.9-0.5-4.3-10.2-5.1-12.3-2.9-2.2 2.2-2.2 2.2-2.2 2.2 0 0-7.4-3.8-9.6-3.6-2.2 0.1-8.4-0.4-11.1 1.6-2.7 2-4.4 4.5-4.4 4.5 0 0-5.8-2.1-8.5-1.1-2.7 1.1-5.6 3.7-6.3 3.5-0.8-0.2-5.8 0.2-7.8 1.8-2 1.6-4.8 9.3-5.7 13.1-0.9 3.8-2.7 17.5-2.7 17.5 0 0-7.1-2-14.3 15.7 0 0-7.8 8.4-18.3 14.3-10.4 5.9-40.4 17.6-50.9 47.7-10.4 30-16.9 45-21.5 49.6-4.6 4.5-22.2 31.9-31.3 57.4-9.2 25.4-17.7 40.4-17.7 40.4 0 0-9.7 1.3-11 7.2-1.4 5.9 1.3 30.7-1.4 40.5-2.6 9.8-7.8 21.5-9.7 26.7-2 5.2-1.3 19.6 0 23.5 0.7 2.1 0.8 10.3 2.1 17.9h502.1c-0.3-0.7-0.6-1.4-0.8-1.9z"/>
			<path id="Layer" class="s2" d="m1042.2 1094.8c-21.4-4.2-32.7-7.2-32.7-7.2 0 0 0-3.8-5.8-3.6-5.8 0.1-12.5 0.1-12.5 0.1l-2.2 2.1c0 0-13.8-1.4-15.7-1-1.9 0.5-2.2-8.6-2.4-9.7-0.1-1.1 1.4-0.6 1.4-0.6 0 0-8.8-15.7-10.2-16.8-1.4-1.1-3-2.9-3-2.9 0 0-0.3-8.9 1.1-10.3 1.5-1.4 5.8-14.8 5.4-15.6-0.5-0.8 2.8 2.5 5.6 1.3 2.9-1.3 4.4-7.4 4.6-8.6 0.1-1.3 0-5.5 0.9-7.1 1-1.6 1.3-4.4 0.8-6.1-0.5-1.8-3.1-8.2-3.9-8.4-0.8-0.1 0.3-3.1 0.3-4.8 0-1.8 1.1-5.1 1.4-5.8 0.3-0.8-0.1-4.7-0.3-5.5-0.2-0.8-0.3-3.8 0.2-5.1 0.4-1.2-0.8-5.6-0.8-5.6l-1-2.8 3.6 3.7c0 0-0.6-2.3-0.9-3.4-0.3-1.1 1.4-1.1 1.4-1.1l-1.6-2.8c0 0-4.8-9.9-5.6-10.7-0.8-0.8-2.5-4.9-4.1-5.7-1.6-0.8-7.8-5.5-8.6-6.7-0.8-1.3-0.5-3.2-2.4-4.3-1.9-1.1-3.3-1.9-6.9-3.1-3.6-1.3-8.2-2.5-11.5-3-3.3-0.5-9.5 0-11.4-0.2-1.9-0.1 1.1-4.3 8.3-3.3 0 0-6.1-2.5-14.8 2.6 0 0-7.5 0.7-8 0.7-0.4 0 1.4-1.8 6-3.3 0 0-7.5 0-13.2 7 0 0-4.4 7.2-5.3 7.2-1 0-0.3-3.8-0.3-3.8 0 0-4 5-4.8 5.2-0.7 0.2-4.4 3.1-5.6 4.2-1.3 1.1-2.2 0.7-3.1 3.2-1 2.5-2.1 0.4-3.8 2.8-1.7 2.4-3.9 3.8-4.6 5.8-0.6 2.1-0.9 1.9-1.2 4.6-0.3 2.6-0.3 2.2-1.8 4.7-1.4 2.5-2.9 5.2-2.2 6.6 0.8 1.4 1.6 3.3 2.1 5.3 0.5 2.1 0 1 1.2 3.9 1.3 3 2.1 7.6 2.2 9.9 0.2 2.4 0.8 3.3 0.8 3.3 0 0-3.3 3.3-3.4 7.6-0.2 4.2 1.5 7.3 1.4 11.3-0.2 3.9-1 5.9 0.6 7.5 1.6 1.6 4.3 2.5 5.7 3 1.4 0.5 3.4 0.8 3.4 0.8 0 0 2.2 6.7 3.3 8.3 1.1 1.6 1.7 7.5 3.2 9.6 1.4 2 1.5 10 2 11.3 0.5 1.2 0.8 2.8 0.8 2.8 0 0-1.7 2-2.1 2.5-0.3 0.5-4.2 15.9-4.7 19.3-0.4 3.5 0.8 3.5 0.8 3.5 0 0-2.2 2.3-3.4 2-1.3-0.3-17-12.8-22.2-14.1-5.2-1.3-9.7-3.6-9.6-5.5 0.2-1.9-0.3-9.6-0.4-11.1-0.2-1.6-9-20-10.4-23.6-1.4-3.6-1.6-6.1-3.4-7.1-1.9-0.9-5.7-2.2-8.2-1.4-2.5 0.8-5.7 1.9-7.5 1.3-1.9-0.7-8.8-6.1-13.9-7.4-5-1.3-7.5-1.9-8.8-2.8-1.2-1-20.1-28.6-24-33.2-3.9-4.5-15.4-25.7-17.6-28.4-2.2-2.7-8.8-12.9-10.2-13.5-1.4-0.6-3.1-4.2-5-5-1.9-0.8-9.6-14.9-10.5-20.1-1-5.2-2.1-11.3-1.9-14.5 0.2-3.1-1.1-11.1-1.1-13 0-1.9-0.5-4.9-0.5-4.9l-11.1-0.7c0 0-3-13.7-4.4-17.8-1.4-4.1-5-7.4-6.9-8.9-1-0.9-2.9-2.7-4.7-4.2q0.7-1.8 1.4-3.6c6.3-17.8 3.8-52.7-0.7-59.3l-17.1-5.3c0 0-0.4-31.4-4.5-38.3l-20 12.4c1.7-22.6-1.5-44.1-17.3-51-33.7-14.8-23.9 23.9-36.7 37.8-0.9-0.8-2-1.3-3.2-1.3-2 0-3.8 1.3-4.5 3.2-1.2-0.4-4.1-0.2-9.6 4.2-7.9 6.5-9.3 11.2-12.2 14.2-3 2.9-4.1 7.3-6.1 7.1-2.1-0.2-3.8 1.8-4.2 6.6 0 0 1.8-4.8 5.3-5.3 0 0-3.2 2.4-2.6 6 0.6 3.5 1.5 3.4-0.5 6.2 0 0 3.8-1.9 2.8-6.1-1.1-4.2 2.3-5.8 4.4-7 2-1.3 5.5-2.1 6.3-3.2 0.8-1.2-4.6 6.5-5.1 11.8-0.4 5.2-0.2 8.7-1.5 9.4 0 0 3-1.8 3.2-6.9 0.2-5.1 3.2-9.3 4.4-10.9 1.1-1.4 2.6-3.3 2.9-3.9-0.4 1.3-2.1 8.9-1.7 12.8 0 0 0.5 6.3-0.7 7.2 0 0 2.4-1.6 2.4-5.7 0-4.1 1.1-11.1 2.1-12.8 1-1.7 1.7-1.9 4.1-4.4 2.4-2.5 3.4-3.9 4.6-5.9 1-1.6 3.5-5.1 4.7-7.2q0.7 0.3 1.5 0.3c2.7 0 4.8-2.2 4.8-4.8q0-1-0.3-1.9 0.9-0.8 1.8-1.7c4.6-4.6 8.9-37.2 17.7-38.1 8.8-0.9 21 3 23.5 8.5 2.4 5.5 9.1 11 7.9 30.2-0.3 5.1-0.8 10-1.4 14.6l-54.3 33.7 5.9 107.8 40.2-21.2c0 0 20.2 1.3 22.6 9.7 0 0 5.2-6.1 7.6-10 1.3 0.2 2.5 0.2 3.6-0.1 3.5-1 5.6 3.1 6.6 5.6 1.1 2.4 0.4 12.2 0.4 12.2 0 0 5.2 18.1 4.5 18.5-0.7 0.3 3.2 22 2.8 23.4-0.3 1.4 1.1 9.4 1.1 9.4 0 0-7 0-11.9 0.3-4.9 0.4-9.8 3.9-9.8 3.9 0 0 2.8 3.1 7.7 11.8 4.9 8.8 9.4 10.9 8.7 18.2-0.7 7.3-0.3 9.1-0.3 9.1 0 0 10.4 12.9 15.3 18.1 4.9 5.2 11.5 9.8 14 11.5 2.4 1.8 5.2 23.4 14.3 42.9 9.1 19.6 17.1 33.2 21.3 37.7 4.2 4.6 7 8.1 14.3 15.4 0.7 0.7 1.4 1.5 2.2 2.3h305.8c-9.7-10.6-24.1-24-38.9-27z"/>
			<path id="Layer" class="s2" d="m1731.3 501.8l1.1-1.6c0 0-0.5 0.6-1.1 1.6z"/>
			<path id="Layer" class="s2" d="m1554.2 1120.1c-0.6-5.7-3.2-15.4-1.8-20 1.4-4.7 8.7-16 9.1-18.2 0.4-2.2 2.6-16.1-0.4-19.7-3.1-3.7 6.6-4.9 6.2-6.5-0.4-1.6-5.2-6.7-4.8-10.3 0.4-3.6 1.8-9.7 2.6-13.1 0.8-3.4 2.6-10.1 2.2-12.9-0.4-2.8 1-4.3 2.2-7.1 1.3-2.8 1.7-3.4 2.9-7.6 1.2-4.3 1.6-5.7 3.6-7.7 2-2 9.5-14.9 10.9-19.4 1.4-4.4 1.8-12.3 4.2-15.5 2.4-3.2 10.3-11.1 10.3-16.8 0-5.6-1.8-14.5-1.2-15.7 0.6-1.2 3.2-11.1 4.4-15.3 1.3-4.3 4.5-14.2 3.9-17.8-0.6-3.6-2.4-8.7-1.4-11.5 1-2.8 3.8-10.3 5.4-10.7 1.6-0.4 7.7-4.8 9.1-7.9 1.4-3 4.6-10.2 5-14.7 0.4-4.4 3.3-12.9 5.1-14.5 1.8-1.6 4.6-2.2 6.6-5.1 2.1-2.8 9.5-21.3 9.5-27.8 0-6.4 3-15.7 3.5-17.1 0.4-1.5 14.9-34.3 15.5-36.8 0.6-2.4 2-5.2 4.4-6.8 2.4-1.6 13.7-9.5 15.6-11.9 1.8-2.4 3.2-5.1 2.6-6.3-0.6-1.2-0.4-6-1.4-7.4-1-1.5-0.6-5.9-1.4-6.7-0.8-0.8-0.2-3.4-2.1-3.6-1.8-0.2-1.8-1.4-2.2-2.1-0.4-0.6-3.4-1.8-4.2-2.8-0.8-1 0.4-2.8 0.4-4.4 0-1.6-2.4-7.5-1-9.1 1.4-1.6 5-4.8 5-4.8 0 0 11.6-33.5 17.9-52.8 9-8.2 29.2-32.6 32.7-38.6 3.8-6.6 2.6-17 1.4-21.2-1.1-4-5.9-14-7.7-16.9 3.2-0.8 5.6-3.6 5.6-7.1 0-2.7-1.6-5.1-3.8-6.3q-0.2-0.3-0.2-0.3c0 0 0-3.5 0.5-6.6 0.4-3 0-4.2-1.7-15-1.2-8.1 2.3-14.9 4.1-17.9l-4.3 6.4c-0.3-1.4-1.9-4.3-3.5-9-1.7-4.7-5.9-11.3-12-13.4-6.2-2.1-9-7.5-9-7.5-2.6 3.1-0.2 7.3-0.2 7.3-4.5-3.8-9.2-0.5-9.2-0.5 3.8-0.4 7.5 6.4 7.5 6.4-5.6-6.4-8.7-2.1-8.7-2.1 3.8-1 6.6 5.6 6.6 5.6-3.5 0.5-6.6-3.1-6.6-3.1-0.4 3.3 6.4 5.9 6.4 5.9-7.3 1-8.5-2.8-8.5-2.8-1.2 4 5.9 4.7 5.9 4.7 6.8-0.7 12.6 6.5 15.3 10.5-2.8-2.6-7.5-2.7-7.5-2.7 7.5 0.4 10.3 14.3 10.3 14.3-3.3-6.3-7.3-7.3-7.3-7.3 3.1 0.7 7.3 10.4 9 13 1.6 2.5 3.5 9.6 4.2 13.1 0.1 0.6 0.3 1.2 0.5 1.9-1.4 1.4-2.4 3.3-2.4 5.4 0 3.9 3 7 6.8 7.3 0.3 1.6 1 3.3 2.1 4.5 2.9 2.8 5.7 10.8 6.4 17.6 0.7 6.8-2.8 18.1-12.2 29.4-6.1 7.3-13.9 14.9-18.6 19.4 0.9-3 1.7-5.3 2-6.6 2.4-8.9 21.6-60.7 21.6-60.7 0 0-22.8 30.2-26 31.2-3.3 1.1-12.3-2.8-15-3-2.6-0.2-26.6-9.1-27.6-9.1-1 0-24.2 30.7-26.6 36.2-2.4 5.4-11.7 31.2-11.7 31.2 0 0-8.7 8.7-7.9 11.9 0.8 3.3 8.3 9.1 8.3 9.1 0 0 11.1 1.6 16.7 3.6 5.7 2.1 13.1 7.9 18.6 8.1 5.4 0.2 15.1 4.8 15.1 4.8l-5.2 16.2c0 0-1.4-3-3.7-1.2-2.2 1.8-3.6 6.8-4.6 7.2-1 0.4-8.3 5.7-9.9 6.1-1.6 0.4-5.2 1.6-6.6 5.6-1.5 4.1-2.1 13.2-2.3 17.2-0.2 4 0.2 5.8-1.8 10.5-2 4.6-16.1 36.7-16.1 36.7 0 0-118.1 32.1-130 38.3-11.9 6.3-31.8 23.8-32 34.1-0.2 10.3 3.4 24 4.4 27.1 1 3 4.4 12.3 3.8 14.7-0.6 2.4-2 3.8-2.2 5.9-0.2 2 0.2-9.5-4.6-19-4.9-9.5-7.1-16-8.7-15.1-1.6 0.8-3.6-3.5-4.2-5.3-0.6-1.8-2.1-4.8-5.5-4.2-3.4 0.6-5.2 0.8-7.4-0.6-2.3-1.4-3.1-2.9-5.9-2.1-2.8 0.9-4 1.5-6.7 1.9-2.6 0.4-13.5-0.2-16.5 1.2-3 1.4-4.4 2.4-6.9 3.4-2.4 1-7.4 3.1-7.4 3.1 0 0-6.9 0.6-10 2.5-3.2 1.9-12 9.4-15.1 12.5-3.1 3.2-5 1.9-8.1 5.7-3.2 3.7-4.4 9.4-5.1 13.2-0.6 3.7 1.3 6.9-1.2 12.5-2.5 5.6-3.8-1.3-2.5 5.6 1.2 6.9 0 8.8-1.9 13.2-1.9 4.4 0.6 4.4 1.9 10 1.2 5.7 0.6 10.7 3.7 13.2 3.2 2.5 6.9 6.9 6.9 6.9 0 0-3.7 3.8 0.7 11.3 4.4 7.5 7.5 13.8 10.6 15.7 3.2 1.9 17.6 5 17.6 5 0 0-3.1 2.5-13.2 4.4-10 1.9-38.2 3.8-42 5.6-3.8 1.9-22.6 0-25.1 7.6-2.5 7.5-9.4 12.5-6.9 20.7 0 0-11.3-0.7-20.1-4.4-5.1-2.2-12.5-6.5-18.5-9.5-4.6-15.1-17.3-24.6-21.8-34.2-5.7-11.8-8.7-21.5-7.7-24 1-2.6 10.7-8.7 9.2-15.4-0.2-0.7-0.4-2.7-0.6-5.1q0.2-0.1 0.5-0.3c4-3.8 3.8-12.2 3-13.7-1-1.9-3.2-2.4-4.8-2.6-0.5-2-1.4-4-3.2-5.4-2.1-1.6-23-3-26.6 4.6 0 0-4.1 14.3-3.1 20.5 1.1 6.1-2 11.2 0.5 17.4 2.6 6.1 7.2 45.5 10.8 54.2 2.3 5.6 4.2 16.1 7.7 24-3.3 4.3-5.4 8.1-5.7 11.8-0.6 7.5-5.5 27.3-6.3 30.3-0.8 3-2.8 5.6-1.4 8.3 1.4 2.6 6.3 10.1 6.5 12.1 0.2 2-5.9 3-4.1 5.2 1.9 2.2 9.7 11.5 12.8 15.1 0.6 0.8 1.5 1.9 2.6 3h324.6q-0.1-1.2-0.2-1.9z"/>
			<path id="Layer" class="s2" d="m291.3 468.3c-1.3-4-4.9-2.8-4.9-2.8 0 0-33.9 9.7-66 18.8 4.4-12.4 10.8-23.1 15.1-29.5 0.9 0.5 1.9 0.8 3 0.8 3.6 0 6.5-2.9 6.5-6.4 0-0.9-0.2-1.8-0.6-2.6 2.1-1.7 4.7-3.8 7.2-6.2 4.3-4.2-0.2-9.2 2.2-12.5 2.3-3.3 5-5.4 7.6-9.3 2.7-3.9 6.2-8.1 9.3-13.6 3.1-5.5 1.6-14.3 1.6-14.3-2.1 9.7-6.8 13.5-6.8 13.5 2.7-3 5.2-14.3 5.2-14.3l-2.4-2.3c-4 2.6-12.4 22.2-11.6 19.6 0.8-2.7 3.8-10.5 5.5-12.7 1.7-2.2 4.6-8.4 4.6-8.4l-4.1-3.1-3 4.7c0 0 1.7-4.9 1.1-5.9-0.6-1.1-2.3-1.8-2.3-1.8 0 0 0.7-1.1-1.3 1.4-2 2.5-3.6 13.1-3.6 13.1-1.7-5.8 0.6-15.1 0.6-15.1-2.2 4.9-3.3 9.6-3 15.1 0.4 5.4-4.7 14.4-4.7 14.4-1.2 5.2-3.7 11.4-4.7 14.3-0.9 2.8-0.4 5.4-0.3 7.5 0.2 2-0.1 3.3-1.9 6.1-1 1.7-1.7 4.3-2.1 6.1-3.1 0.5-5.4 3.1-5.4 6.3 0 2.3 1.2 4.2 2.9 5.4-8.7 11.2-14 21.5-17.1 30.4-23 6.6-44.7 12.7-51.9 14.5-17.4 4.5-26 8.9-26 8.9 5.7 47.9 26.4 130.2 26.4 130.2 4-3.7 40.9-12.6 43-12.6 2 0 10.5 2 12.1 1.6 1.6-0.4 3.3 2 24.4-2.4 21-4.5 29.5-18.7 29.5-18.7 5.7-1.6 42.6-12.9 42.6-12.9 0 0-25.5-121.2-26.7-125.3z"/>
			<path id="Layer" class="s2" d="m941.3 556.9c-4.9 1.1-5.4-2.6-5.4-2.6l8-10.7c0 0 15.7-1.2 21.8 1 6.1 2.1 5 0.2 5 0.2 0 0-0.6-3.1-4.6-4.9-3.9-1.8-6.4-6.4-9.1-9.4-2.6-3-9.3-10.8-11.6-9.5-2.2 1.2-19 5.9-23.2 7.2-4.2 1.3-9.7-4.1-16.2-7-6.5-2.9-34.1-16.5-36.7-17.6-2.6-1-11.5-5.6-14.4-5.5 0 0-4.8 28.4-9.8 57.5-8.8-13.8-16-32.4-10.6-52.3 5-18.2 5.7-29 4.6-36.1q0.2-0.1 0.4-0.2c6.3-3.4 8.6-11.4 5.2-17.7q-0.6-1.1-1.4-2c0.4-1.9 0.8-4.1 1-6.4 0.9-8.2-0.8-8.6-3.1-14.4-2.3-5.7-2.8-8.1-5-11.7-2.1-3.6-3.3-7.6-4.2-11.3-0.8-3.7-2.7-6.4-4-9.9-1.3-3.5-1.1-8-1.3-10.2-0.2-2.1-0.9-5.2-1.3-7.1-0.5-2-3.5-5-3.5-5 0 0 0.4 2 1.8 7 1.4 5.1-0.3 4.5-0.9 6.7-0.7 2.1-0.5 4.6 0.5 7.1 1 2.6 2.8 19.4 2.2 15.8-0.5-3.6-2.1-7.9-3.2-11-1.1-3.2-1.3-8.9-1.1-12.7 0.1-3.8-2.3-10.7-3.6-11.2-1.2-0.5-6.7 2.2-6.7 2.2 0 0 0.3 9.2 0 8.6-0.4-0.5-1.6-7.9-1.6-7.9l-2.3 0.9c0 0-2.5 1.1-2.2 2.9 0.4 1.7 8.7 16.6 8.7 16.6l-0.9 1.2c-0.4-0.3-2.5-1.5-4.1-7-1.6-5.5-6.9-10.1-6.9-10.1 0 0 1.7 2.3 3.7 7.1 2 4.7 0.4 5.9 1.8 9.4 1 2.6 4.3 6.8 6.1 8.9-1.2-0.8-3.2-1.5-6.8-4.7-5.4-4.7-5-10.6-5-10.6-1 3.3-3.6 4 3.2 9.6 6.8 5.5 20.9 21.9 19.4 38.8-0.3 3.1-0.4 5.7-0.4 7.9-3.6 4-4.5 10-1.8 15 2.9 5.2 8.7 7.7 14.2 6.5 0.9 6.6 0.9 14.7-1.7 23.7-6.3 22.6-7.3 38.9 10.6 65.2-3.5 19.9-6.9 40.1-8.8 51.5-4.9 28.3 1.1 32 6.6 35.9 5.6 3.8 52.9 35.4 67.3 34.5l5.8-38.2c0 0 11.9-3.6 18.7-11.2 6.7-7.6 14.1-16.6 17.3-20.8 3.2-4.2 10.6-13.2 13.4-17.1 2.8-4 7.7-30.4 8.7-33.9 1.1-3.6 2.8-5 2.8-5 0 0-30.6 2.8-35.4 4z"/>
			<path id="Layer" class="s2" d="m571.8 343.6c-2.3-26.9-1.5-30.8-1.5-30.8 0 0-13.5-5.4-19.7-4.6 0 0-9.2-36.2-10.4-40.9-1.2-4.6-3.1-7.3-3.9-2.3 0 0-34.3 16.5-63.5 31.2-21.1-23.3-12.4-37.6-6.3-43.5 0.7 1 1.9 1.7 3.2 1.7 2.2 0 4-1.8 4-4.1q0-0.2 0-0.4c2-2 4.8-4.5 7.5-5.6 4.4-1.7 14.3-17.2 12.6-16.3-1.6 0.9-3.3 4-3.4 4.5-0.1 0.5-12.2 9.4-12.2 9.4 0 0 1.6-1.5 3-3.1 1.4-1.6 2.4-3.3 3-5 0.6-1.6 3.9-4 5.9-5.1 2-1.1 1.8-4.8 1.8-4.8-0.6 0.2-3.3 2.1-4.4 3.2-1.2 1.1-2.9 2.9-3.6 3.6-0.7 0.8-3.3 2.1-3.3 2.1 1.6-1.3 1.3-1.6 4.5-5.3 3.2-3.8 5.1-4 5-4.4-0.2-0.4-2.3-3.5-2.3-3.5 0 0-2.8 0.2-3.9 0.8-1 0.6-1 3.1-2.1 4.7-1 1.6-4.8 6.5-4.8 6.5 0.1-0.9-0.9-3.4 0.7-4.1 1.6-0.8 3.9-7.1 3.9-7.1 0 0-4.7 5.5-5.9 7.3-1.2 1.9-1.5 5.1-2 8-0.5 2.9-2 5.6-3.9 7.7-0.8 0.9-1.2 2.1-1.5 3.2-1.5 0.5-2.6 2-2.6 3.7q0 0.6 0.2 1.2c-7.3 4.4-8.1 13.9-8.7 20.1-0.4 3.9 6.2 14.7 13.9 25.5-20 10.2-37.2 19.3-38.4 21.5-3.1 5.4-0.8 6.9-0.8 6.9l4.2 16.6c0 0 26.2 100.6 28.2 106.8 0 0 0.7 3 6.5-1.2 5.8-4.2 57.8-28.1 66.3-33.9 8.5-5.8 33.9-17 33.9-17l-3-13.5c0 0 6.1-12.7 3.8-39.7z"/>
			<path id="Layer" class="s2" d="m1326.7 304.1c2.4-4.8 1.8-7.3 1.8-12 0-4.6 2.1-10.1 1.5-15.1-0.5-5 2.2-20.9 2.2-20.9-2 1.9-4.1 6.6-5.1 9.5-0.9 2.9-2.5 8.3-1.9 12.8 0.6 4.4-2.5 18.4-2.5 18.4 1.7-6.8 0-11.7 0.2-15.9 0.2-4.3 0.9-13.8 2.5-17.5 1.5-3.6 3.5-7.1 3.5-7.1l-5.3-2.9c0 0-4 0.2-5 0.7-1 0.6-1.7 5.3-1.9 7.8-0.2 2.5-3.7 13.2-3.7 13.2 0 0 0.8-4.9 1.7-9.1 1-4.3 2.2-11.9 2.2-11.9 0 0-3.5-1.1-3.3-0.5 0.2 0.5-3.5 7.9-3.9 11.6-0.4 3.7-5 7.7-7 14.3-1.9 6.6 0.6 24.2 0.6 24.2-2.5-3.4-4.5-17.8-4.5-17.8 0.2 2.7-0.3 12.6 2.6 18.2 2.9 5.7 2.1 12.4 0.5 18.4-0.9 3.7-0.9 9.4-0.8 13.1-3.1 0.8-5.5 3.7-5.5 7.1 0 2.5 1.2 4.7 3.1 6q0 0.1-0.1 0.1c-4.1 8.8-21.9 27.7-40.7 41.3-13.6 9.7-23.6 26.1-28.8 35.7-3.2-15-14.1-69.1-15.4-73.2l-28.5 9 4.1 4.3 3.5 21c0 0-31.1 3.5-34 4.3-3 0.9-9.1 4.7-11.4 5.6-2.3 0.8-19.7 12.5-17.1 13.3 2.6 0.9 7.5 3.5 8.1 4.4 0.6 0.9 0.3 10.4 2.3 15.1 2.1 4.6 3.2 14.5 4.4 18.3 1.2 3.8 4.6 10.8 5.8 12.8 1.2 2 5.5 9.6 6.1 12.5 0.6 2.9 3.8 11.9 3.5 15.4-0.3 3.5-0.9 16 1.4 18 2.4 2.1 6.2 0.6 6.2 0.6l2.9 4.4c0 0 12.2-2.7 16.5-3.2 4.4-0.6 29.1-5.8 29.1-5.8 0 0 2.3 13 2.3 15.6 0 2.7-0.3 7.6-0.3 7.6l28.2-0.6c0 0 1.5-9.9 0-15.1-1.4-5-14.6-70.7-16.6-79.6 2.2-4.9 5.8-12.8 13.1-22.4 11.1-14.5 25.6-24.4 34.3-30.2 8.1-5.4 21.5-25 23.6-28.1q0.8 0.2 1.7 0.2c3.9 0 7-3 7.3-6.8 3.1-3.2 7.1-7.8 7.2-9.2 0.2-2 1.6-10.7 3.3-15.9 1.8-5.2 20.6-24.6 20.6-24.6-7.4 3.3-16.9 15.5-14.6 10.6z"/>
			<path id="Layer" class="s2" d="m1004.9 472.2c0.5-7.5-4.5-11-7.1-12.7-2.5-1.7-15.7-11.7-16.7-13.5-0.8-1.3-7.9-4.5-11.7-6.9q0.9-2.1 0.9-4.5c0-4.9-3.3-9.1-7.8-10.5q0-1.6-0.2-3.4c-1.6-13.9-13.3-32.5-26.1-41.5-13.5-9.5-11.5-17.5-10.6-19.7q5.4 3 11 5.9c60.7 31.1 92.9 39.8 92.9 39.8l-48-23.5-2.6-16.3 25.1-46.5-25.1-16.3-10.2 8.7 0.5-13.3c0 0-25-22.5-51-17.9 0 0-25.5 39.9-24 55.2 0 0-40.9-25.7-56.5-37.7 12.3 10.9 43.5 37 84.1 59.9-1.1 2.4-3.6 11.5 12.9 23.1 12.9 9.1 23.3 29.8 24.6 41.1q0.1 1 0 1.9c-6.1 0-11 5-11 11 0 3.8 1.9 7.1 4.7 9.1 0.6 2.5 1.8 5.4 4 8.2 6.4 8.3 17.8 18.4 24.1 25.6 6.2 7.2 2 12.6 0.1 16.4 0 0 2.9-2.3 3.8-6.6 1-4.3-0.5-10.8-0.8-10.8 0 0 5.2 5.7 3.5 14.1-1.7 8.3 0.1 5.4 2.1 8.9 0 0-2.4-4.4-1.1-7.6 1.3-3.2 1.6-10.4 0.2-14.1-1.4-3.7-3.3-9.1-3.4-9.3 0-0.3 12.8 6.7 14 15.1 1.2 8.4 3.8 9.4 5.1 10.4 0 0-5.1-11.9-5-17.3 0.1-5.3-1.1-8.1-4.3-11.2 0 0 7.3 1.2 8.1 8.3 0.9 6.7 3.4 6.5 4.4 6.8-0.6-0.3-3.4-1.9-2.9-8.4z"/>
		</g>
	</g>
	<g id="Folder 3" style="opacity: .2">
		<path id="Layer" class="s3" d="m1423.4 531.1l-11.4-26.3-91 47.8c0 0 17.8 40.7 27.5 63-5.9 9.7-9.4 20.9-6.4 32.5 6.3 25.3 12.4 49.5 14.2 62.3-1.5 0.4-2.9 1.1-4 2.3-3 3-3.4 7.5-1.2 10.9-1.2 6.1-1.7 16.9 6.3 25.1 11.5 11.8 33.9 21.2 43.5 33.8 9.6 12.5 20 21 23.7 22.7 0 0-14.4-16.9-18.6-21.8 0 0 18.4 19.4 25.2 15.5l4.2-6.4c0 0-9.9-6.5-16.8-11 0 0 13.5 5.8 18.5 7.3l3.9-7.8c0 0-1.5-5.5-10.2-9.4q-2.1-1-4.8-1.8c-13-3.7-25.5-6.4-29-9.4 0 0 29 4.9 37 9.4 0 0-16.6-11.9-28.4-14.2-11.8-2.2-19.5-8.7-21-10.2-1.5-1.5-5.3-10.2-9-13.8-2.2-2.3-5.8-6.5-8.9-9.8 1.1-3.1 0.4-6.7-2.1-9.1-1.7-1.7-3.9-2.6-6.2-2.6-0.1-1.4-0.4-2.9-0.9-4.2-2-4.9-13.9-64.2-12.1-73.8 0.8-3.8 2.7-7.9 5.1-11.9 1 2.5 1.9 4.5 2.6 6.1 6.5 15 19.4 44.4 19.8 45.3 0.5 0.9 17.1-6.9 25.5-11 8.3-4.1 66-31.6 66-31.6l-9.3-22.5c0 0 6.6-14.3 4.2-28.6-2.4-14.4-17.3-43.2-22.6-46.4z"/>
		<path id="Layer" class="s2" d="m837.7 297.6c-3.8-3.3-5.8-5.2-5.8-5.2 0.6 1 2.7 2.8 5.8 5.2z"/>
		<path id="Layer" class="s2" d="m1008 480.7q-0.1 0-0.2-0.1 0.2 0.1 0.2 0.1z"/>
	</g>
</svg>