<svg version="1.2" xmlns="http://www.w3.org/2000/svg" viewBox="0 0 1800 664" width="1800" height="664">
	<title>hats-svg</title>
	<style>
		.s0 { fill: #272425 } 
	</style>
	<g id="Object">
		<g id="&lt;Group&gt;">
			<filter id="f0">
				<feFlood flood-color="#e7f0fe" flood-opacity="1" />
				<feBlend mode="normal" in2="SourceGraphic"/>
				<feComposite in2="SourceAlpha" operator="in" />
			</filter>
			<g id="&lt;Group&gt;" style="opacity: .1" filter="url(#f0)">
				<g id="&lt;Group&gt;">
					<path id="&lt;Path&gt;" class="s0" d="m62 313.3c-4-3.4-6.1-5.4-6.1-5.4 0.6 1 2.8 2.9 6.1 5.4z"/>
					<path id="&lt;Path&gt;" class="s0" d="m243.6 501q-0.1 0-0.2-0.1 0.2 0.1 0.2 0.1z"/>
					<path id="&lt;Path&gt;" class="s0" d="m130.2 366.5c0.4-7.3-4-10.6-6.3-12.3-2.2-1.6-13.9-11.4-14.8-13.1-0.7-1.2-7-4.3-10.4-6.7 0.5-1.3 0.8-2.8 0.8-4.3 0-4.8-2.9-8.9-6.9-10.2q0-1.6-0.1-3.3c-1.4-13.5-11.8-31.5-23.2-40.2-11.9-9.3-10.2-17.1-9.4-19.1q4.8 2.9 9.7 5.7c53.9 30.2 82.4 38.6 82.4 38.6l-42.6-22.8-2.2-15.8 22.2-45.1-22.2-15.8-9.1 8.4 0.5-12.8c0 0-22.2-21.8-45.3-17.3 0 0-22.6 38.5-21.2 53.4 0 0-36.3-24.8-50.1-36.5 10.9 10.6 38.6 35.8 74.6 58-1 2.4-3.2 11.2 11.4 22.4 11.4 8.8 20.6 28.9 21.8 39.9q0.1 0.9 0 1.8c-5.4 0-9.8 4.8-9.8 10.7 0 3.6 1.7 6.9 4.2 8.7 0.5 2.6 1.6 5.4 3.5 8.1 5.7 8 15.8 17.8 21.4 24.7 5.5 7 1.8 12.4 0.1 15.9 0 0 2.5-2.2 3.4-6.3 0.8-4.2-0.5-10.6-0.7-10.6 0 0 4.6 5.7 3 13.8-1.5 8.1 0.1 5.2 1.9 8.6 0 0-2.1-4.3-0.9-7.4 1.1-3.1 1.3-10.2 0.1-13.7-1.2-3.5-2.9-8.8-3-9 0-0.3 11.3 6.5 12.4 14.7 1.1 8.1 3.3 9 4.6 10 0 0-4.6-11.5-4.5-16.7 0-5.2-1-7.9-3.8-10.9 0 0 6.4 1.2 7.2 8.1 0.7 6.4 3 6.2 3.9 6.6-0.6-0.3-3-1.9-2.6-8.2z"/>
				</g>
				<path id="&lt;Path&gt;" class="s0" d="m1753.9 256.9l-10.1-4.7-6.6-48.9c0 0-70.9 57.7-79.2 63.6 0 0 3.5 38.1 11.8 59.8l19.9-18.6c1.8 3.5 3.9 6.9 6.4 9.8 6.9 7.9 6.4 17.2 4.9 23.3q-0.2 0-0.3 0c-4.5 0-8.1 3-8.1 6.5 0 1.1 0.3 2.1 0.9 3-1 1.5-2 4-2 7.9 0 7.4-1.3 12.3-5 16.1-3.8 3.7-2.2 9.6-2.2 7.9 0-0.1-0.7-4.3 2.4-6.4 0 0-0.9 4.2 0 8.6 0.9 4.5 0.2 5.8-1.8 7.4 0 0 4.8-1.9 3.5-6.2-1.3-4.3 1.8-7 1.8-7 0 0-0.7 5.7 2 10.3 2.6 4.5 3.9 7 3.9 7 0 0-2.2-8.2-2.9-11.1-0.6-2.9-0.6-6.2-0.6-6.2 0 0 4.8 4.3 5.5 9.2 0.6 4.8 1.1 6.1 4.3 7.8 0 0-2.8-6.1-2.1-8.9 0.6-2.7-2-6.4-2.2-7.2-0.3-0.9 5.2 1.8 6.5 7.5l2.9 5.6c0 0-2-6.3-2.2-8.9-0.2-2.6-2-4.7-2.6-5.7-0.7-0.9-0.5-4.4 0-6.9 0.4-2.3 3.9-7.8 3.7-9.9-0.2-1.7-0.2-6.4-0.4-8.9 1.7-1.3 2.8-3 2.8-5 0-2.5-1.9-4.8-4.6-5.8 1.4-6.7-0.1-16.5-12.5-34.1q-0.3-0.6-0.7-1.1l4.7-4.3 24.9 10.4c0 0 12.3-2.3 19.7-9.4 7.5-6.9 16.6-20.6 17.1-28.8 0.4-8.1-3.5-17.7-3.5-17.7z"/>
				<path id="&lt;Path&gt;" class="s0" d="m926.1 73.8v-5l33.2-33.4-84.4 58.4c-3.6-7.5-6.9-18.9-9.4-29.6-1.9-8.2 3.9-14.9 9-19.1 1.2 1.4 3.1 2.5 5.2 2.5 2.5 0 4.7-1.4 5.8-3.3 3-1.5 3-8.8 4.5-10.8 1.7-2.1 3.7-4.3 7.5-9.4 3.8-5.3 12.3-10.7 12.3-10.7-3.8-0.2-11.9 5.6-11.6 5 0.3-0.5 4.7-4.7 7.2-5.5 2.4-0.9 3.6-1.8 3.5-3.9-0.2-2.2-1.1-5-1.1-5 0 0-4.4 2.5-4 2.1 0.5-0.4 2.5-2.5 2.5-2.5l-3.5-2.5-0.5 1.2c0 0-3.2 3.9-5.2 6.5 1-1.8 2.3-4.1 2.8-5.2 0.9-1.9 0.8-3.3 0.8-3.3 0 0-3.5 5.8-5.6 8.7-2.2 2.9-5.2 3-9.6 7.6-4.4 4.6-2.3 7.5-1.7 11.6 0.4 2.8-1.6 5.4-2.9 6.8q-0.5-0.1-1.2-0.1c-3.7 0-6.6 2.8-6.6 6.3q0 0.8 0.2 1.5c-2.6 1.1-5.5 3.2-8.3 8.3-7.9 15.2 2.9 34.2 9.3 43.2l-13.6 9.5-69.7 60.7 45.6-23.8c3.7 17.7 32.1 54.6 32.1 54.6l9.1-8.1c0 0 0-16.7 0.6-18.1 0.5-1.6 7.5 11.6 7.5 11.6 0 0 10.2-9.7 12.8-14.2 2.7-4.5 61.7-61.2 61.7-61.2z"/>
				<g id="&lt;Group&gt;">
					<path id="&lt;Path&gt;" class="s0" d="m1472.1-7.7l-10.2 32.1c0 0-2.3-31.4-2.2-35.2-2.8 3.2-55.4 19.3-67.4 36.7-12.3 18-19.9 37.8-19.9 37.8 0 0-80.1 8.3-81.1 12.6-0.3 1.2 26.2 34.9 51.2 66.2-19-2.5-36.3-9.9-44.7-26.7-9-18-15.3-27.3-19.9-32 1-2.9 0.7-6-0.9-8.7-1.4-2.2-3.6-3.6-6-4.3-2.6-5.3-9.4-11-18-21.4-9.9-12-11.9-36.2-11.9-36.2-5 7.2 8.8 41 5.7 37.8-3.1-3.1-6.8-15-8.1-21.9-1.4-6.8-4.9-17.7-6.1-17.3-1.2 0.5-9.5 6.9-9.5 6.9l3.9 6.2-6.9-4.6c0 0-6 2.5-2.1 3.6 3.8 0.9 7.6 11 7.6 11-4.5-7.2-16.8-11.8-11.1-8.5q0.4 0.2 0.9 0.6c5.8 4.5 14.8 20.5 21.4 38.3 5.4 14.7 16.3 18.6 20.8 19.6q0.4 1.1 1 2.1c3.1 5 9.6 6.2 14.7 2.9 1.7-1.1 3-2.6 3.9-4.2 1.5 1.6 2.8 3.7 3.7 6.3 3.6 11.1 24.4 51 40.2 50.8 4.3-0.1 12.7 0.7 22.7 1.4 21.5 26.9 41.5 51.7 41.5 51.7 0 0 144-15.4 157.8-21.7l-44.8-62.6c0 0 1.1-11.3 1.8-13.9 0.6-2.6-3.4-67.1-3.4-70.6 0-3.5-24.6-34.8-24.6-34.8z"/>
					<path id="&lt;Path&gt;" class="s0" d="m1112.8 217.8q0.2-0.1 0.2-0.2c0.1-0.2 0-0.1-0.2 0.2z"/>
				</g>
				<path id="&lt;Path&gt;" class="s0" d="m1153.6 90.3c-0.9-3-3.7-2-3.7-2 0 0-25.5 6.9-49.7 13.6 3.4-9 8.2-16.8 11.4-21.4 0.7 0.4 1.5 0.6 2.3 0.6 2.7 0 4.8-2.1 4.8-4.6q0-1-0.4-2c1.6-1.1 3.6-2.7 5.4-4.4 3.3-3.1-0.1-6.7 1.7-9.1 1.7-2.4 3.7-3.9 5.7-6.7 2-2.8 4.6-5.9 7-9.9 2.4-3.9 1.2-10.3 1.2-10.3-1.5 7-5.1 9.8-5.1 9.8 2-2.2 3.9-10.4 3.9-10.4l-1.8-1.6c-3 1.8-9.3 16.1-8.7 14.1 0.6-1.9 2.8-7.6 4.1-9.2 1.3-1.6 3.5-6 3.5-6l-3.1-2.3-2.3 3.5c0 0 1.3-3.6 0.9-4.3-0.5-0.9-1.8-1.4-1.8-1.4 0 0 0.6-0.7-0.9 1.1-1.6 1.8-2.8 9.4-2.8 9.4-1.3-4.2 0.5-10.9 0.5-10.9-1.6 3.5-2.5 7-2.2 10.9 0.2 4-3.6 10.4-3.6 10.4-0.9 3.8-2.8 8.4-3.5 10.4-0.7 2.1-0.4 4-0.2 5.4 0.1 1.5-0.2 2.4-1.5 4.5-0.8 1.2-1.3 3.1-1.6 4.4-2.3 0.4-4 2.2-4 4.6 0 1.6 0.9 3.1 2.2 3.9-6.6 8.1-10.6 15.5-12.9 22-17.4 4.7-33.7 9.2-39.1 10.5-13.1 3.2-19.5 6.4-19.5 6.4 4.3 34.6 19.8 94.2 19.8 94.2 3.1-2.6 30.8-9 32.4-9 1.5 0 7.9 1.4 9.1 1.1 1.2-0.3 2.4 1.4 18.3-1.7 15.9-3.3 22.3-13.6 22.3-13.6 4.3-1.1 32-9.3 32-9.3 0 0-19.2-87.8-20.1-90.7z"/>
				<path id="&lt;Path&gt;" class="s0" d="m314.1 461.8c-0.1-3 1.6-2.6 1.6-2.6l4.4 6.4c0 0-0.8 9.2-2.3 12.3-1.5 3.2-0.6 2.9-0.6 2.9 0 0 1.6 0.2 2.8-1.8 1.1-1.9 3.5-2.6 5.2-3.6 1.6-1 5.9-3.4 5.5-5-0.4-1.5-1.2-11.9-1.4-14.6-0.3-2.6 2.8-4.8 4.7-8.1 1.9-3.1 10.7-16.7 11.5-18 0.7-1.2 3.6-5.5 3.8-7.3 0 0-13-7.6-26.3-15.5 7.3-2.6 16.7-3.6 25.6 3 8.2 5.9 13.2 8.2 16.7 8.7q0 0.2 0.1 0.3c1 4.2 4.6 6.9 7.9 6.1q0.5-0.2 1-0.4 1.4 0.8 3 1.6c3.8 1.9 4.1 1 7 0.7 3-0.4 4.1-0.3 6-0.9 1.9-0.6 3.9-0.6 5.7-0.4 1.9 0.1 3.3-0.4 5-0.6 1.8-0.1 3.9 0.7 5 1 1 0.2 2.5 0.4 3.5 0.4 0.9 0.1 2.6-1.1 2.6-1.1 0 0-1-0.1-3.5-0.2-2.5 0-2.1-0.9-3-1.7-1-0.7-2.2-1-3.5-0.9-1.3 0.1-9.3-1.7-7.6-1.4 1.7 0.3 3.9 0.1 5.5 0.1 1.6-0.1 4.3 0.7 6.1 1.4 1.8 0.7 5.2 0.6 5.6-0.1 0.3-0.6-0.5-4.2-0.5-4.2 0 0-4.4-1.4-4.1-1.5 0.3 0 3.9 0.5 3.9 0.5l-0.2-1.5c0 0-0.3-1.6-1.2-1.7-0.8-0.1-8.6 2.1-8.6 2.1l-0.5-0.8c0.2-0.2 0.9-1.1 3.7-1.1 2.8 0 5.4-2.1 5.4-2.1 0 0-1.3 0.5-3.7 0.8-2.4 0.3-2.8-0.7-4.6-0.6-1.3 0.2-3.6 1.3-4.7 2 0.4-0.5 0.9-1.5 2.8-3.2 2.7-2.2 5.4-1 5.4-1-1.5-1.1-1.6-2.7-4.8 0.2-3.2 3-12.1 8.2-20 4.4q-2.2-0.9-3.7-1.5c-1.6-2.8-4.4-4.3-7-3.6-2.6 0.7-4.3 3.7-4.3 7-3.2-0.5-7-2-11-5.1-10.2-7.4-17.8-10.8-31.7-5.1-9.2-5.3-18.4-10.8-23.6-13.8-13-7.7-15.2-5-17.6-2.4-2.3 2.5-21.3 24.2-22.1 32.6l17.6 9.9c0 0 0.6 7.5 3.6 12.6 3 5.2 6.6 11 8.4 13.5 1.7 2.6 5.3 8.3 6.9 10.7 1.7 2.2 13.7 9.5 15.3 10.8 1.6 1.2 2.1 2.4 2.1 2.4 0 0 1.3-18 1.2-21z"/>
				<path id="&lt;Path&gt; copy 6" class="s0" d="m171.4 557.3c2.1-2 3-0.3 3-0.3l-2 7.6c0 0-7.4 5.1-10.8 5.9-3.3 0.8-2.4 1.4-2.4 1.4 0 0 0.8 1.3 3.1 1 2.2-0.3 4.2 1.2 6 1.8 1.8 0.7 6.4 2.5 7.2 1.1 0.9-1.2 8.3-8.5 10.1-10.3 1.8-2 5.4-0.9 9-1.5 3.7-0.5 19.5-2.2 20.9-2.4 1.4-0.2 6.5-0.7 7.9-1.7 0 0-2.5-15-5.2-30.6 6.7 4 13.4 10.9 14.2 22.1 0.8 10.2 2.3 15.6 4.1 18.8q-0.1 0.1-0.2 0.2c-2.5 3.5-2.2 8 0.5 10.1q0.5 0.4 1 0.6 0.3 1.5 0.7 3.3c1 4.3 1.8 4 4 6 2.1 2.2 2.8 3.1 4.4 4.2 1.7 1.1 2.9 2.7 4 4.2 1 1.6 2.4 2.4 3.7 3.6 1.2 1.3 1.9 3.5 2.4 4.5 0.4 1 1.3 2.3 1.9 3.1 0.5 0.8 2.5 1.3 2.5 1.3 0 0-0.6-0.8-2.1-2.8-1.6-2.1-0.6-2.3-0.7-3.5-0.1-1.2-0.6-2.4-1.5-3.3-0.9-0.9-4.7-8.5-3.8-7 0.9 1.7 2.4 3.3 3.5 4.4 1 1.3 2.1 3.9 2.7 5.8 0.6 1.9 3 4.5 3.7 4.4 0.7-0.1 2.9-3.1 2.9-3.1 0 0-1.8-4.4-1.5-4.2 0.2 0.2 2.1 3.4 2.1 3.4l0.9-1.1c0 0 1.1-1.4 0.6-2.1-0.5-0.7-7-5.4-7-5.4l0.2-0.9c0.2 0 1.4 0 3.2 2.2 1.7 2.2 5.1 2.9 5.1 2.9 0 0-1.3-0.7-3.1-2.4-1.7-1.7-1.2-2.8-2.5-4-0.9-1-3.2-2-4.5-2.4 0.7 0 1.8-0.4 4.2 0.2 3.4 0.7 4.2 3.5 4.2 3.5-0.1-1.8 1-2.9-3.2-3.5-4.3-0.8-13.9-4.5-16.1-13.1q-0.6-2.3-1.2-3.9c1-2.9 0.5-6.1-1.7-7.8-2.3-1.6-5.6-1.1-8 1.2-1.6-3-3-6.9-3.3-12-0.8-12.9-3.2-21-16.4-28.3-1.8-10.7-3.6-21.5-4.6-27.5-2.6-15.1-6.1-15.2-9.5-15.4-3.4-0.2-31.8-1.3-38.6 3.4l3.8 20.2c0 0-5.2 5.2-7.1 11-2 5.6-4 12.2-4.8 15.1-0.9 3-2.9 9.6-3.6 12.2-0.6 2.8 1.5 17.1 1.7 19 0.1 2.1-0.5 3.3-0.5 3.3 0 0 14.3-10.5 16.5-12.5z"/>
				<path id="&lt;Path&gt; copy 2" class="s0" d="m1418.1 481.3c-0.1-3 1.6-2.6 1.6-2.6l4.4 6.4c0 0-0.8 9.2-2.3 12.3-1.5 3.2-0.6 2.9-0.6 2.9 0 0 1.6 0.2 2.8-1.8 1.1-1.9 3.5-2.7 5.2-3.6 1.6-1 5.9-3.5 5.5-5-0.4-1.5-1.2-11.9-1.4-14.6-0.3-2.6 2.8-4.8 4.7-8.1 1.9-3.1 10.7-16.7 11.5-18 0.7-1.2 3.6-5.6 3.8-7.3 0 0-13-7.6-26.3-15.5 7.3-2.7 16.7-3.6 25.6 3 8.2 5.9 13.2 8.2 16.7 8.7q0 0.2 0.1 0.3c1 4.2 4.6 6.9 7.9 6.1q0.5-0.2 1-0.4 1.4 0.8 3 1.6c3.8 1.8 4.1 1 7 0.7 3-0.4 4.1-0.3 6-0.9 1.9-0.6 3.9-0.6 5.7-0.4 1.9 0.1 3.3-0.4 5-0.6 1.8-0.1 3.9 0.7 5 1 1 0.2 2.5 0.4 3.5 0.4 0.9 0.1 2.6-1.1 2.6-1.1 0 0-1-0.1-3.5-0.2-2.5 0-2.1-1-3-1.7-1-0.7-2.2-1-3.5-0.9-1.3 0.1-9.3-1.7-7.6-1.4 1.7 0.3 3.9 0.1 5.5 0.1 1.6-0.1 4.3 0.7 6.1 1.4 1.8 0.7 5.2 0.6 5.6-0.1 0.3-0.6-0.5-4.2-0.5-4.2 0 0-4.4-1.4-4.1-1.5 0.3 0 3.9 0.5 3.9 0.5l-0.2-1.5c0 0-0.3-1.6-1.2-1.7-0.8-0.1-8.6 2-8.6 2l-0.5-0.7c0.2-0.2 0.9-1.1 3.7-1.1 2.8 0 5.4-2.2 5.4-2.2 0 0-1.3 0.6-3.7 0.9-2.4 0.3-2.8-0.8-4.6-0.7-1.3 0.3-3.6 1.4-4.7 2.1 0.4-0.5 0.9-1.5 2.8-3.2 2.7-2.2 5.4-1 5.4-1-1.5-1.1-1.6-2.7-4.8 0.2-3.2 3-12.1 8.2-20 4.4q-2.2-0.9-3.7-1.5c-1.6-2.8-4.4-4.3-7-3.6-2.6 0.7-4.3 3.7-4.3 7-3.2-0.6-7-2-11-5.1-10.2-7.5-17.8-10.8-31.7-5.1-9.2-5.3-18.4-10.8-23.6-13.8-13-7.7-15.2-5-17.6-2.4-2.3 2.5-21.3 24.2-22.1 32.6l17.6 9.9c0 0 0.6 7.4 3.6 12.6 3 5.2 6.6 10.9 8.4 13.5 1.7 2.6 5.3 8.3 6.9 10.7 1.7 2.2 13.7 9.5 15.3 10.7 1.6 1.3 2.1 2.5 2.1 2.5 0 0 1.3-18 1.2-21z"/>
				<path id="&lt;Path&gt;" class="s0" d="m1577 304.5c-2-20.6-1.3-23.6-1.3-23.6 0 0-11.3-4.1-16.5-3.6 0 0-7.7-27.7-8.7-31.3-1-3.5-2.6-5.5-3.2-1.7 0 0-28.8 12.6-53.3 23.9-17.7-17.9-10.4-28.9-5.3-33.4 0.6 0.9 1.6 1.3 2.7 1.3 1.8 0 3.3-1.4 3.3-3.1q0-0.1 0-0.3c1.7-1.6 4.1-3.4 6.4-4.3 3.6-1.4 11.9-13.2 10.5-12.5-1.4 0.7-2.8 3-2.9 3.4-0.1 0.5-10.2 7.3-10.2 7.3 0 0 1.4-1.2 2.6-2.4 1.1-1.3 1.9-2.6 2.4-3.8 0.5-1.3 3.3-3.1 5-3.9 1.6-0.8 1.5-3.7 1.5-3.7-0.5 0.2-2.7 1.5-3.7 2.4-1 0.9-2.4 2.2-3 2.8-0.6 0.5-2.7 1.7-2.7 1.7 1.2-1.2 1-1.3 3.7-4.2 2.7-2.8 4.3-3 4.2-3.3-0.1-0.3-1.9-2.7-1.9-2.7 0 0-2.4 0.1-3.3 0.6-0.9 0.4-0.9 2.4-1.8 3.6-0.8 1.2-4 4.9-4 4.9 0.1-0.6-0.8-2.5 0.6-3.1 1.4-0.6 3.3-5.4 3.3-5.4 0 0-4 4.2-5 5.7-1 1.3-1.3 3.9-1.7 6-0.3 2.2-1.6 4.3-3.2 6-0.7 0.6-1 1.5-1.3 2.3-1.3 0.4-2.2 1.6-2.2 2.9q0 0.5 0.2 0.9c-6.1 3.4-6.8 10.7-7.3 15.4-0.4 3 5.2 11.3 11.6 19.6-16.7 7.7-31.1 14.7-32.2 16.4-2.5 4.1-0.6 5.3-0.6 5.3l3.6 12.7c0 0 21.9 77.1 23.5 81.8 0 0 0.7 2.3 5.5-0.9 4.9-3.2 48.5-21.6 55.6-26 7.1-4.4 28.4-13 28.4-13l-2.5-10.3c0 0 5.1-9.7 3.2-30.4z"/>
				<path id="&lt;Path&gt;" class="s0" d="m719.7 84.4c4.6-0.9 6-2.8 9.2-5.4 3.2-2.5 8.2-3.9 11.3-7 3.2-3.3 15.7-10 15.7-10-2.5-0.4-6.9 0.6-9.4 1.5-2.6 0.9-7.2 2.6-10 5.5-2.7 3-14.1 8.3-14.1 8.3 5.7-2.5 8-6.5 11.1-8.6 3-2.3 10-6.9 13.4-7.7 3.5-0.8 7-1.3 7-1.3l-1-5.6c0 0-2.5-3-3.4-3.4-1-0.4-4.6 1.6-6.5 2.9-1.8 1.2-11.2 4.4-11.2 4.4 0 0 3.8-2 7.3-3.7 3.5-1.6 9.4-4.9 9.4-4.9 0 0-1.2-3.2-1.5-2.8-0.3 0.5-7.5 1.8-10.2 3.5-2.8 1.8-8.3 0.4-13.9 2.7-5.7 2.1-16.4 13.7-16.4 13.7 1-3.9 9.8-13.2 9.8-13.2-1.8 1.6-8.9 6.7-11.1 11.9-2.2 5.3-7.4 8.5-12.4 10.6-3.1 1.3-6.9 4.4-9.5 6.5-2.3-1.9-5.6-2.1-8-0.2-1.7 1.4-2.5 3.5-2.3 5.7q-0.1 0-0.2 0c-8.4 1.7-31.6-1.4-51.7-8-14.5-5-31.5-3.4-41.1-2.1 8.6-10.7 39.6-48.7 41.7-51.9l-22.5-16.5-0.7 5.4-12.4 14.2c0 0-20.2-21.5-22.4-23.2-2.3-1.7-8.4-4.3-10.3-5.5-2-1.3-19.9-8-19-5.6 0.9 2.5 1.9 7.6 1.6 8.5-0.3 1-7 6-9.1 10.1-2 4.1-8.2 10.4-10.1 13.3-1.9 3-4.7 9.5-5.5 11.4-0.7 2.1-3.4 9.5-5.1 11.5-1.7 2.1-6.1 9.4-8.6 11.1-2.6 1.7-11.5 8.2-11.6 11.1-0.1 2.8 3.1 4.9 3.1 4.9l-1.4 4.5c0 0 8.8 7.8 11.7 10.8 2.9 2.9 20.6 18.6 20.6 18.6 0 0-7.7 8.9-9.5 10.4-1.8 1.4-5.3 4-5.3 4l16.5 20.9c0 0 7.6-4.4 10.4-8.3 2.6-3.8 40.4-49.9 45.3-56.3 4.7-1 12.1-2.7 23-2.5 16.3 0.4 31.4 5.9 40.4 9.3 8.3 3.1 29.5 2.4 32.8 2.3q0.3 0.7 0.8 1.5c2.2 2.8 6.1 3.5 8.9 1.7 4 0.5 9.5 1 10.5 0.4 1.4-0.9 8.2-4.7 12.8-6.2 4.6-1.7 28.7 1.9 28.7 1.9-6.5-3.8-20.3-4.2-15.6-5.1z"/>
				<path id="&lt;Path&gt;" class="s0" d="m370.2 258.6l9.8-23.9-91.3-27.7c0 0-15.3 37.1-23.6 57.3-10.3 2.4-20 7.4-25.8 16.5-12.5 20-24.5 39.3-31.7 48.5-1.3-0.7-2.7-1.1-4.2-1.1-4 0-7.2 2.5-8 6.1-4.8 3.1-12.3 9.6-12.5 19.9-0.2 14.7 8.3 35 6.3 48.9-2 14.1-0.8 26.1 0.5 29.5 0 0 1.7-19.8 2.2-25.6 0 0-0.7 23.9 6.3 25.9l7-1.6c0 0-2.2-10.3-3.7-17.5 0 0 5 12.3 7.2 16.4l7.8-2.5c0 0 2.6-4.4-0.5-12.4q-0.7-1.9-2-4.2c-6-10.6-12.5-20.3-12.8-24.4 0 0 15.8 21.6 18.1 29.5 0 0-3-18.1-9.3-27-6.3-8.9-7-17.9-7-19.8 0-2 3.2-10 3.2-14.5 0-2.8 0.4-7.8 0.6-11.9 2.8-1.2 4.7-3.9 4.7-7 0-2.2-0.9-4.1-2.4-5.6 0.9-1 1.6-2.1 2.2-3.3 2-4.3 33.3-49.4 40.8-54.2 3.1-2 7-3.4 11.2-4.3-0.9 2.1-1.7 4.1-2.3 5.5-5.6 13.5-16.6 40.4-16.9 41.2-0.3 0.8 15.8 6.5 24 9.2 8.2 2.7 64.3 22 64.3 22l8.7-20.1c0 0 13.8-4.9 21.7-15.5 7.9-10.5 17.2-38.2 15.8-43.7z"/>
				<path id="&lt;Path&gt; copy 3" class="s0" d="m1562.6 576l4.5-11.5-41.8-13.5c0 0-6.9 18-10.7 27.8-4.7 1.1-9.2 3.5-11.8 8-5.7 9.7-11.2 19-14.5 23.5-0.6-0.4-1.3-0.6-2-0.6-1.7 0-3.2 1.3-3.6 3.1-2.2 1.4-5.6 4.6-5.7 9.6-0.1 7.1 3.8 16.9 2.9 23.7-1 6.8-0.4 12.6 0.2 14.3 0 0 0.8-9.6 1-12.4 0 0-0.3 11.5 2.9 12.6l3.2-0.8c0 0-1-5-1.7-8.6 0 0 2.3 6.1 3.3 8l3.6-1.1c0 0 1.1-2.2-0.3-6.1q-0.3-1-0.9-2c-2.7-5.1-5.7-9.9-5.8-11.8 0 0 7.2 10.4 8.2 14.3 0 0-1.4-8.9-4.2-13.2-2.9-4.3-3.2-8.6-3.2-9.5 0-1 1.5-4.8 1.5-7.1 0-1.3 0.1-3.8 0.2-5.7 1.3-0.6 2.2-2 2.2-3.4 0-1.1-0.4-2.1-1.1-2.8 0.4-0.5 0.7-1 1-1.5 0.9-2.2 15.2-24 18.6-26.4 1.4-0.9 3.2-1.6 5.2-2-0.5 1-0.8 1.9-1.1 2.6-2.6 6.6-7.6 19.6-7.7 20-0.2 0.4 7.2 3.2 10.9 4.4 3.8 1.4 29.4 10.7 29.4 10.7l4-9.7c0 0 6.3-2.4 9.9-7.5 3.6-5.1 7.9-18.6 7.2-21.1z"/>
				<path id="&lt;Path&gt; copy 4" class="s0" d="m100.6 39.7l4.5-11.6-41.8-13.5c0 0-6.9 18-10.7 27.8-4.7 1.2-9.2 3.5-11.8 8-5.7 9.7-11.2 19-14.5 23.5-0.6-0.4-1.3-0.6-2-0.6-1.7 0-3.2 1.3-3.6 3.1-2.2 1.4-5.6 4.6-5.7 9.6-0.1 7.1 3.8 16.9 2.9 23.7-1 6.8-0.4 12.6 0.2 14.3 0 0 0.8-9.6 1-12.3 0 0-0.3 11.4 2.9 12.5l3.2-0.7c0 0-1-5.1-1.7-8.7 0 0 2.3 6.1 3.3 8l3.6-1.1c0 0 1.1-2.1-0.3-6q-0.3-1.1-0.9-2.1c-2.7-5.1-5.7-9.8-5.8-11.8 0 0 7.2 10.4 8.2 14.3 0 0-1.4-8.9-4.2-13.2-2.9-4.3-3.2-8.6-3.2-9.5 0-1 1.5-4.8 1.5-7.1 0-1.3 0.1-3.8 0.2-5.7 1.3-0.6 2.2-2 2.2-3.4 0-1.1-0.4-2.1-1.1-2.8 0.4-0.5 0.7-1 1-1.5 0.9-2.2 15.2-24 18.6-26.4 1.4-0.9 3.2-1.6 5.2-2-0.5 1-0.8 1.9-1.1 2.6-2.6 6.6-7.6 19.6-7.7 20-0.2 0.5 7.2 3.2 10.9 4.5 3.8 1.3 29.4 10.6 29.4 10.6l4-9.7c0 0 6.3-2.4 9.9-7.5 3.6-5.1 7.9-18.6 7.2-21.1z"/>
				<path id="&lt;Path&gt; copy" class="s0" d="m1769.2 67.9l9.8-23.9-91.3-27.7c0 0-15.3 37-23.6 57.2-10.3 2.5-20 7.4-25.8 16.5-12.5 20-24.5 39.3-31.7 48.5-1.3-0.7-2.7-1.1-4.2-1.1-4 0-7.2 2.6-8 6.2-4.8 3-12.3 9.5-12.5 19.8-0.2 14.7 8.3 35 6.3 49-2 14-0.8 26 0.5 29.4 0 0 1.7-19.8 2.2-25.5 0 0-0.7 23.9 6.3 25.8l7-1.5c0 0-2.2-10.4-3.7-17.6 0 0 5 12.3 7.2 16.4l7.8-2.4c0 0 2.6-4.4-0.5-12.4q-0.7-2-2-4.2c-6-10.7-12.5-20.3-12.8-24.4 0 0 15.8 21.5 18.1 29.4 0 0-3-18.1-9.3-27-6.3-8.9-7-17.8-7-19.8 0-1.9 3.2-9.9 3.2-14.4 0-2.9 0.4-7.8 0.6-11.9 2.8-1.3 4.7-3.9 4.7-7.1 0-2.2-0.9-4.1-2.4-5.5 0.9-1.1 1.6-2.2 2.2-3.3 2-4.3 33.3-49.5 40.8-54.3 3.1-1.9 7-3.4 11.2-4.3-0.9 2.2-1.7 4.1-2.3 5.6-5.6 13.5-16.6 40.4-16.9 41.2-0.3 0.7 15.8 6.4 24 9.1 8.2 2.8 64.3 22.1 64.3 22.1l8.7-20.1c0 0 13.8-5 21.7-15.5 7.9-10.6 17.2-38.3 15.8-43.7z"/>
				<path id="&lt;Path&gt; copy 5" class="s0" d="m618.2 224.8l9.8-23.9-91.3-27.7c0 0-15.3 37-23.6 57.2-10.3 2.5-20 7.4-25.8 16.5-12.5 20-24.5 39.3-31.7 48.5-1.3-0.7-2.7-1.1-4.2-1.1-4 0-7.2 2.6-8 6.2-4.8 3-12.3 9.5-12.5 19.9-0.2 14.6 8.3 34.9 6.3 48.9-2 14-0.8 26 0.5 29.4 0 0 1.7-19.8 2.2-25.5 0 0-0.7 23.9 6.3 25.8l7-1.5c0 0-2.2-10.4-3.7-17.5 0 0 5 12.3 7.2 16.4l7.8-2.5c0 0 2.6-4.4-0.5-12.4q-0.7-2-2-4.2c-6-10.7-12.5-20.3-12.8-24.4 0 0 15.8 21.5 18.1 29.4 0 0-3-18-9.3-27-6.3-8.9-7-17.8-7-19.8 0-1.9 3.2-9.9 3.2-14.4 0-2.9 0.4-7.8 0.6-11.9 2.8-1.2 4.7-3.9 4.7-7.1 0-2.1-0.9-4.1-2.4-5.5 0.9-1.1 1.6-2.2 2.2-3.3 2-4.3 33.3-49.4 40.8-54.3 3.1-1.9 7-3.3 11.2-4.3-0.9 2.2-1.7 4.1-2.3 5.6-5.6 13.5-16.6 40.4-16.9 41.2-0.3 0.7 15.8 6.5 24 9.1 8.2 2.8 64.3 22.1 64.3 22.1l8.7-20.1c0 0 13.8-5 21.7-15.5 7.9-10.6 17.2-38.3 15.8-43.7z"/>
				<path id="&lt;Path&gt;" class="s0" d="m1330 330.1c0 0-1.4-1.2-3-1.9-1.7-0.9-1.7-6.3 0.4-13.9 2-7.5-6.1-17.9-6.1-17.9l-25.8-11.9 5.8-51.6-35.4 33.7c-0.3-8.2 1.3-16 6.9-20 11.2-8.1 15.1-14.2 16.7-18.3q0.3 0 0.6 0c2.6 0 4.6-2 4.6-4.4 0-1.2-0.4-2.1-1-2.9 0.4-2.2 1-6.6 1-7.8 0-1.8 2.5-6.1 4.6-9.3 2.1-3.4 2.4-5.9 3.9-9.8 1.5-4 2.1-5.5 1.5-8.6-0.6-3.1 0.9-5.9 0.9-5.9-1.9 1-2.7 1.1-2.8 4.2-0.2 3-5.8 12.2-5.8 12.2 0.2-0.4 2.1-5.2 2.7-6.7 0.6-1.6 1.5-8.4 1.5-8.4l-4.5-0.3-0.6 6.3c0-0.1 0-0.3 0-0.7 0-1.6-0.8-5.8-1.2-5.8-0.5 0-2.1-0.5-2.1 0.5 0 0.9-0.2 9.5-0.2 9.5 0 0-0.4 2.8-0.3-0.6 0.2-3.3-1.5-9.8-1.5-9.8l0.2 7.2c0.7 4.7-3.7 14.2-5.9 22.3-1.7 6-0.1 10.6 0.9 12.4-0.3 0.6-0.5 1.2-0.5 2 0 1.7 1.1 3.2 2.7 4-1.9 4.5-6.1 12-14 15.3-8.7 3.7-10.5 13-9.7 24.8l-33.2 31.6 1.9 71.2c0 0 33.2-21.9 33.6-22.4 0 0 13.4 6.7 20.6 7.9 7.3 1.1 19.2-3.3 23.2-5.3 4.1-1.9 12.3-10.6 14.1-12.8 1.9-2.1 4.7-4.2 4.7-4.2l-2.6-1.9z"/>
				<path id="&lt;Path&gt;" class="s0" d="m155.3 429.1c0.3-3.5 5.1-5.1 5.1-5.1-3.7 0.1-4.7 2.4-4.7 2.4-4.1 0.8-9.2-0.7-11.8-4.9-2.6-4.3-10.3-3.1-17.7-2.1-5.7 0.8-9 5-10.2 6.9-1.5 0.7-2.5 2.2-2.5 3.9 0 1.3 0.7 2.6 1.7 3.4-2.6 3.4-7.6 7.9-18.1 12.7-4.5 2.2-9.4 5.8-14.2 10-1.9-0.8-3.5-1.2-4.4-1.2l-67.5 52.7c0 0 23.7 13.6 25 13.6 1.2 0 4.2-0.7 4.2-0.7 0 0 3.7 5.1 7 7.1 3.4 2 13 4.5 36.3-7.1 23.3-11.6 31.2-20.9 31.2-20.9 0 0-16.2-20.3-21.6-21.1l16.2-9.9c0 0-14.8-8-24.2-11.7 1.2-1.3 2.5-2.6 3.6-3.8 4.9-5.1 17.4-10.7 20.7-13.3 1.7-1.4 4.1-3.9 6.1-6.2 0.7 0.4 1.6 0.7 2.6 0.7 2.3 0 4.2-1.6 4.5-3.8 1-1 3.5-3.8 4.1-3.8 0.6 0 7.2 0.9 7.7 1.6 0.6 0.7 3.5 4.9 4.8 5.5 1.3 0.6 1.4 0.6 5.7 1.1 4.3 0.5 8.3 3.2 8.3 3.2-0.3-1.4-5.8-3.3-5.8-3.3 1 0.1 5.7 1.5 6.7 1.6 0.9 0.1 4-0.2 4.8-2.3 0.8-1.9 1-4.4 1-4.4l-2.6 1.1c0.4-0.2 2.2-1 2.7-2.4 0.5-1.7-0.8-3-0.8-3-1.7 0.2-3.9 3.5-3.9 3.5z"/>
				<path id="&lt;Path&gt;" class="s0" d="m1737.2 487.1c0 0-83.6-48.6-92.2-48.6l-5.5 21.6c-2.9 0.6-6.3 1.5-8.9 2.6-4.9 2.1-10.9 4.3-16 5.9-0.9-1.1-2.2-1.7-3.8-1.7-2.4 0-4.4 1.7-4.9 3.9-1.7-0.4-3.6-1.4-5.2-3.7-4.2-5.8 0.5-14.7 7.6-21.8 0 0 8.9-8.1 10.5-16.6 0 0-9.6 15.1-14.5 18.9 0 0-12 11-4.6 20.8 0 0-10.8-9.2-1.1-31.2 0 0 1.3-14.2 0-17 0 0-10.1 7.2-12.8 11.1 0 0 3.4 11.3 2.5 17.6 0 0-4-15.8-5-16.4-1.1-0.7-3 0.8-3 0.8 0 0-1.7 7.1-1.7 8.1 0 1 8 17.4 10.8 22.9 1.9 3.8 2.9 5.6 3.9 6.3-3.1-0.8-9.7-4-14.5-16.6 0 0-4-7.3-4-14 0 0-5.9 4.9-4.6 9.1 0 0 1.9 9.5 6.7 13.8 0 0-9-8.7-16-7.9 0 0 7.8 4.4 12.5 9.1 0 0-12.9-6.5-17.9-6.1l-1.7 3.3c0 0 5 1.8 8.8 5.6 3.8 3.9 6.6 11.4 13.9 12 7.4 0.6 17.3 0.4 23-2.4 2.5-1.4 5-1.8 7-2.3 0.9 1.4 2.5 2.5 4.3 2.5 2.8 0 5.1-2.2 5.1-5 0-0.9-0.3-1.8-0.8-2.5 2.7-0.9 6.1-2.1 7.5-2.3 2.6-0.4 6.6-2.4 12.9-3.1q1.8-0.1 3.1-0.2l-3.7 14.7 3.2 2.2c0 0-17.8 17.2-18.1 20-0.3 2.6 1.4 5.4 3.2 5.4 1.7 0 29.3 19.9 34.7 23.5 5.5 3.6 24.2 14.1 25.3 14.1 1.2 0 10.6-1.9 10.6-1.9l13.3-21c0 0 19.8 11.6 21.5 12.2 1.7 0.5 3.2-5.9 3.5-9.2 0.2-3.2 6-17.7 7.1-19.3 1.2-1.7 4.9-12.5 4.9-14.1 0-1.6-6.9-3.1-6.9-3.1z"/>
				<g id="&lt;Group&gt;">
					<path id="&lt;Path&gt;" class="s0" d="m333.1 35l2.4-9.2c0 0-25.2-19.8-45.2-23.5-20-3.7-35.2-9.2-35.2-9.2 0 0-17.7 48.6-30.1 88.8q-0.2 0-0.4 0c-29.3 5.3-48.7 9.2-58.4 15-1.5-1.1-3.3-1.8-5.3-1.8-3 0-5.7 1.6-7.4 3.8-5.1 1.3-26.8 8-10.6 36.7 18.4 32.2 28.4 23.4 42 19.6 13.7-3.9 19.4 2 21.4 4.2 0 0-3.7-11.3-23.4-6.7 0 0 15-5.2 19.7-7.8 4.3-2.4 13.5 1.2 16.1 3.6-2.7-3-15.2-15.2-28.1-6.8-1 0.6-9-2.2-12.3-3 0 0 17.3-3.5 23.6-4.2 6.4-0.6 4.7-8 4-11.9 0 0-2.3 10.4-14 11.3-11.6 0.9-11-1.6-12.6-3.2-1.7-1.6-6-1.9-10.4-3.2-4.3-1.4-9.3-4.3-7.6-7.4 1.4-2.9 7.6-6 6.2-10.3 1.5-1.5 2.4-3.6 2.4-5.9 0-2-0.7-3.9-1.9-5.4 2.9-1.6 6.9-3.5 11.9-4.9 9.4-2.8 30.9-8.3 44.9-11.1-7.4 23.8-12.9 44.5-11.6 50.2 0 0 30.4 18.9 35.7 22.1 5.2 3.2 59.5 18.4 59.5 18.4l7.1-35.9c0 0 25.2-4.6 30.9-10.6 5.7-6 29-47.5 32.4-56.7 3.3-9.2 3.3-9.2 3.3-9.2z"/>
					<path id="&lt;Path&gt; copy 7" class="s0" d="m959.1 262.7l2.4-9.2c0 0-25.2-19.8-45.2-23.5-20-3.7-35.2-9.2-35.2-9.2 0 0-17.7 48.6-30.1 88.8q-0.2 0-0.4 0c-29.3 5.3-48.7 9.2-58.4 15-1.5-1.2-3.3-1.8-5.3-1.8-3 0-5.7 1.6-7.4 3.8-5.1 1.3-26.8 8-10.6 36.6 18.4 32.2 28.4 23.5 42 19.7 13.7-3.9 19.4 2 21.4 4.2 0 0-3.7-11.4-23.4-6.7 0 0 15-5.3 19.7-7.8 4.3-2.4 13.5 1.2 16.1 3.6-2.7-3-15.2-15.2-28.1-6.8-1 0.6-9-2.3-12.3-3 0 0 17.3-3.5 23.6-4.2 6.4-0.6 4.7-8 4-11.9 0 0-2.3 10.4-14 11.3-11.6 0.9-11-1.6-12.6-3.2-1.7-1.6-6-1.9-10.4-3.3-4.3-1.3-9.3-4.2-7.6-7.4 1.4-2.8 7.6-5.9 6.2-10.2 1.5-1.5 2.4-3.6 2.4-6 0-1.9-0.7-3.9-1.9-5.3 2.9-1.6 6.9-3.5 11.9-4.9 9.4-2.8 30.9-8.3 44.9-11.1-7.4 23.8-12.9 44.5-11.6 50.2 0 0 30.4 18.8 35.7 22.1 5.2 3.2 59.5 18.4 59.5 18.4l7.1-35.9c0 0 25.2-4.6 30.9-10.6 5.7-6 29-47.5 32.4-56.7 3.3-9.2 3.3-9.2 3.3-9.2z"/>
					<path id="&lt;Path&gt;" class="s0" d="m352.8 354.4c0.4 0.4 0.6 0.7 0.6 0.7q-0.2-0.3-0.6-0.7z"/>
				</g>
			</g>
		</g>
	</g>
</svg>